<?xml version="1.0" encoding="UTF-8"?><svg id="Calque_2" xmlns="http://www.w3.org/2000/svg" viewBox="0 0 68.07 70"><defs><style>.cls-1{fill:#cee56c;}.cls-1,.cls-2,.cls-3,.cls-4,.cls-5,.cls-6,.cls-7{stroke-width:0px;}.cls-2{fill:#190017;}.cls-3{fill:#b9d34f;}.cls-4{fill:#d1aaca;}.cls-8{opacity:.64;}.cls-5{fill:#380f31;}.cls-6{fill:#290124;}.cls-7{fill:#a5b658;}</style></defs><g id="_ÎÓÈ_1"><path class="cls-5" d="M58.08,10.95c-.44.69-.91,1.43-1.4,2.21.66.12,1.8.34,2.65.57.28-.71.54-1.39.77-2.02,1.08-3.04,3.32-2.92,1.87-3.38.94.3-2.05-.28-3.9,2.62Z"/><path class="cls-5" d="M56.05,10.18c-.26.28-.53.56-.8.85.55,1.01.89,2.03.89,2.03,0,0,.21.04.54.09.48-.78.96-1.52,1.4-2.21,1.85-2.9,4.84-2.31,3.9-2.62.44.14-3.3-.91-5.93,1.85Z"/><path class="cls-5" d="M55.25,11.03c.27-.29.53-.58.8-.85,2.62-2.76,6.37-1.71,5.93-1.85-.06-.02-4.56-1.53-7.95,1.09.47.38.89.99,1.23,1.62Z"/><path class="cls-5" d="M60.1,11.71c-.23.63-.49,1.31-.77,2.02.48.13.88.26,1.04.38.32.24.88.65,1.33.98.2-.93.34-1.81.42-2.62.32-3.18,1.79-3.52-.15-4.15,1.44.47-.79.34-1.87,3.38Z"/><path class="cls-5" d="M64.16,13.24c.04.33.08.68.1,1.03.38-.16.79-.27,1.23-.26.23,0,.46,0,.7,0-1.22-3.46-1.26-4.72-4.21-5.67,2.44.79,1.73,1.59,2.18,4.91Z"/><path class="cls-5" d="M62.13,12.47c-.08.81-.23,1.69-.42,2.62.38.28.68.5.68.5,0,0,.79-.88,1.87-1.32-.02-.35-.05-.7-.1-1.03-.45-3.32.27-4.12-2.18-4.91,1.94.63.47.96.15,4.15Z"/><path class="cls-5" d="M54.02,9.42c-2.81,1.58-5.19,4.35-6.76,7.36,1.58-3.02,4.21-5.4,6.76-7.36Z"/><path class="cls-2" d="M66.18,14c-.24,0-.47.01-.7,0-.43,0-.85.1-1.23.26.15,2.29-.18,5.02-1.03,8-5.02,17.55-17.65,32.67-35.48,40.12-13.32,4.24-24.63,3.29-26.34-1.21,3.32,8.75,13.55,11.29,27.73,6.26,19.21-8.73,32.53-25.32,37.28-44.08.89-3.52.68-6.77-.24-9.37Z"/><path class="cls-6" d="M64.26,14.27c-1.08.45-1.87,1.32-1.87,1.32,0,0-.3-.22-.68-.5-.45-.33-1.01-.74-1.33-.98-.16-.12-.56-.25-1.04-.38-.74,1.86-1.63,3.97-2.49,6.35-5.48,15.14-16.79,27.3-31.87,32.2C13.36,54.96-.11,57.17,1.41,61.18c1.71,4.49,13.01,5.45,26.34,1.21,17.83-7.45,30.46-22.57,35.48-40.12.85-2.98,1.18-5.71,1.03-8Z"/><path class="cls-5" d="M56.68,13.16c-.32-.06-.54-.09-.54-.09,0,0-.34-1.02-.89-2.03-.34-.62-.76-1.24-1.23-1.62-2.55,1.97-5.19,4.35-6.76,7.36-5.83,11.65-15.51,19.25-26.45,20.31-9.06.35-25.77,7.32-19.4,24.09-1.52-4.01,11.94-6.23,23.56-8.91,15.07-4.89,26.38-17.06,31.87-32.2.86-2.38,1.75-4.49,2.49-6.35-.86-.23-1.99-.45-2.65-.57Z"/><path class="cls-7" d="M62.07,9.35c-.54-.27-1.08-.54-1.63-.81,1.27-2.54.24-5.64-2.3-6.91.27-.54.54-1.08.81-1.63,3.44,1.72,4.84,5.91,3.11,9.35Z"/><g class="cls-8"><path class="cls-4" d="M36.4,35.83c3.3.17-4.29,10.23-17.76,12.7-4.36.8-8.12.07-8.38-1.46-.25-1.53,3.04-4.27,7.46-4.08,12.6.55,17.12-7.24,18.67-7.16Z"/></g><path class="cls-1" d="M62.27,7.26c-.06,0-2.26-.8-4.49-.36-1.91-.12-6.83,4.46-8.52,5.4,1.24.99,6.91.36,6.91.36,0,0,.06,6.97.66,7.41.01.01.04,0,.06,0l5.4-12.81s-.02,0-.02,0Z"/><path class="cls-3" d="M62.3,7.27l-5.4,12.81c.78.17,5.53-4.89,5.53-4.89,0,0,1.12-1.94,2.56,2.7.59,1.91,2.84,3.95,3.08,3.95-1.5-5.6.57-12.32-5.77-14.57Z"/></g></svg>