<?xml version="1.0" encoding="UTF-8"?><svg id="Calque_2" xmlns="http://www.w3.org/2000/svg" viewBox="0 0 70 70"><defs><style>.cls-1{fill:#8fcc76;}.cls-1,.cls-2,.cls-3,.cls-4,.cls-5,.cls-6,.cls-7,.cls-8,.cls-9,.cls-10,.cls-11,.cls-12,.cls-13{stroke-width:0px;}.cls-2{fill:#247f03;}.cls-3{fill:#6faf58;}.cls-4{fill:#206307;}.cls-5{fill:#2e7c11;}.cls-6{fill:#1f6300;}.cls-7{fill:#30890b;}.cls-8{fill:#379311;}.cls-9{fill:#217000;}.cls-10{fill:#1a5103;}.cls-11{fill:#236e09;}.cls-12{fill:#2e8c07;}.cls-13{fill:#2a7f03;}</style></defs><g id="_ÎÓÈ_1"><path class="cls-1" d="M26.46,37.56l-10.89,10.39,7.56-11.89-3.29-4.75-3.24,9.29,1.2-11.47-3.27-6.57s2.71,18.73-5.01,29.18c-3.76,5.09-7.8,8.16-9.52,9.34l4.57,4.6,25.52-25.73-3.63-2.4Z"/><path class="cls-3" d="M30.84,54.65l5.32-4.65-1.48-1.63-13.37,6.65,12.07-10.08-2.53-4.4-4.62,4.23,4.44-4.42-.59-.39-25.52,25.73,4.28,4.31c1.39-1.79,4.58-5.47,9.56-8.79,10.78-7.2,29.17-3.43,29.17-3.43l-6.33-3.65-10.4.52Z"/><path class="cls-11" d="M27.54,42.52c.11,0,.21.01.32.01,0-.12,0-.24.02-.36l-.34.34Z"/><path class="cls-11" d="M30.48,35.44c-2.32-.56-4.52-1.74-6.33-3.57-1.4-1.41-2.41-3.06-3.06-4.81-2.07-.45-4.05-1.39-5.77-2.84-1.81,4.82-.8,10.47,3.05,14.35,2.54,2.56,5.85,3.87,9.18,3.95l.34-.34c.23-2.39,1.11-4.72,2.6-6.73Z"/><path class="cls-5" d="M14.43,4.29c-5.24,5.28-5.24,13.84,0,19.12.28.29.58.55.88.81,1.71,1.45,3.7,2.39,5.77,2.84-1.17-3.15-1.14-6.64.09-9.77.66-1.65,1.64-3.21,2.97-4.54.2-.2.42-.39.63-.57.3-3,1.58-5.92,3.86-8.22.66-.66,1.36-1.24,2.11-1.73C25.59-.85,18.85-.17,14.43,4.29Z"/><path class="cls-8" d="M47.6,3.96c-4.58-4.62-11.66-5.2-16.86-1.73-.74.5-1.45,1.07-2.11,1.73-2.28,2.3-3.56,5.22-3.86,8.22,3.29-2.92,7.64-3.95,11.69-3.07,1.5.33,2.96.92,4.3,1.77,2.55-2.49,5.83-3.77,9.13-3.82-.6-1.11-1.36-2.15-2.29-3.09Z"/><path class="cls-11" d="M30.48,35.44c-1.49,2.01-2.36,4.34-2.6,6.73l5.81-5.86c-.02-.16-.02-.32-.03-.48-1.07,0-2.14-.14-3.19-.39Z"/><path class="cls-10" d="M54.3,46.46c-.54,2.42-1.72,4.72-3.59,6.6-1.39,1.4-3.01,2.42-4.73,3.07.25.3.51.6.8.89,5.24,5.28,13.73,5.28,18.97,0,4.42-4.46,5.1-11.26,2.04-16.45-.49.75-1.06,1.46-1.72,2.12-3.2,3.23-7.62,4.47-11.77,3.75Z"/><path class="cls-4" d="M54.14,46.44c-3.4,2.15-7.55,2.61-11.27,1.38-1.94-.64-3.77-1.72-5.31-3.28-1.18-1.19-2.08-2.55-2.73-4-.61-1.35-.99-2.78-1.13-4.23l-5.81,5.86c-.01.12-.01.24-.02.36-.27,3.78,1.02,7.65,3.88,10.53,3.85,3.88,9.46,4.9,14.24,3.07,1.72-.66,3.34-1.68,4.73-3.07,1.87-1.88,3.06-4.18,3.59-6.6-.05,0-.11-.01-.16-.02Z"/><path class="cls-7" d="M36.46,9.1c-4.04-.88-8.4.15-11.69,3.07-.21.19-.43.37-.63.57-1.33,1.34-2.32,2.89-2.97,4.54-1.24,3.13-1.26,6.62-.09,9.77.65,1.75,1.67,3.4,3.06,4.81,1.81,1.83,4.01,3,6.33,3.57,1.05.25,2.12.39,3.19.39-.05-.87-.03-1.75.09-2.61.05-.36.1-.71.17-1.06.39-1.87,1.19-3.66,2.37-5.25.38-.52.79-1.02,1.26-1.49,0,0,.02-.02.02-.02-.78-2.06-1.04-4.27-.79-6.43.2-1.73.74-3.43,1.61-4.99.59-1.06,1.32-2.06,2.21-2.97.05-.05.1-.09.14-.13-1.34-.85-2.8-1.44-4.3-1.77Z"/><path class="cls-2" d="M33.67,35.83c0,.16.01.32.03.48l.5-.51c-.18,0-.35.02-.53.03Z"/><path class="cls-2" d="M39.91,30.05c.2-.02.41-.02.61-.03-.1-.1-.18-.2-.27-.31l-.34.34Z"/><path class="cls-2" d="M38.33,27.04c-.29-.53-.54-1.08-.75-1.64,0,0-.02.01-.02.02-.47.47-.88.97-1.26,1.49-1.18,1.6-1.97,3.39-2.37,5.25-.07.35-.13.7-.17,1.06-.11.87-.14,1.74-.09,2.61.18,0,.35-.02.53-.03l.89-.9,4.82-4.86.34-.34c-.76-.83-1.4-1.72-1.91-2.67Z"/><path class="cls-6" d="M66.07,23.59c-.8-.81-1.68-1.47-2.61-2.03-.23,3.12-1.51,6.18-3.88,8.57,0,0-.02.02-.03.02.55,1.44.84,2.96.87,4.48.09,3.58-1.2,7.18-3.91,9.91-.68.68-1.41,1.27-2.19,1.78,0,.05-.02.09-.03.14,4.15.72,8.57-.52,11.77-3.75.66-.66,1.23-1.37,1.72-2.12,3.44-5.25,2.86-12.38-1.72-17Z"/><path class="cls-2" d="M54.3,46.46s.02-.09.03-.14c-.06.04-.13.08-.2.12.05,0,.11.01.16.02Z"/><path class="cls-9" d="M59.56,30.15c-.89.89-1.87,1.62-2.92,2.21-1.82,1.02-3.81,1.59-5.83,1.69-2.62.14-5.26-.49-7.59-1.89-.08-.05-.17-.1-.26-.15-.64-.4-1.24-.87-1.82-1.39-.18-.16-.36-.31-.53-.49-.04-.04-.06-.07-.1-.11-.2.01-.41.01-.61.03l-4.82,4.86-.89.9-.5.51c.14,1.45.53,2.88,1.13,4.23.65,1.45,1.55,2.81,2.73,4,1.54,1.56,3.37,2.64,5.31,3.28,3.72,1.23,7.87.77,11.27-1.38.07-.04.13-.08.2-.12.77-.51,1.51-1.1,2.19-1.78,2.71-2.73,4-6.34,3.91-9.91-.04-1.52-.33-3.04-.87-4.48Z"/><path class="cls-12" d="M49.89,7.05c-3.3.05-6.58,1.32-9.13,3.82-.05.05-.1.08-.14.13-.9.9-1.62,1.91-2.21,2.97-.87,1.56-1.41,3.26-1.61,4.99-.25,2.16,0,4.37.79,6.43.21.56.46,1.11.75,1.64.51.95,1.16,1.85,1.91,2.67l1-1.01,3.28-3.3,2.49-2.51,1.35-1.36,1.53-1.55,4.12-4.15,5.16-5.2c-2.62-2.43-5.95-3.63-9.28-3.57Z"/><path class="cls-13" d="M59.58,11c-.13-.13-.28-.25-.41-.38l-5.16,5.2-4.12,4.15-1.53,1.55-1.35,1.36-2.49,2.51-3.28,3.3-1,1.01c.09.1.18.21.27.31.04.04.06.08.1.11.17.17.36.33.53.49.58.52,1.18.99,1.82,1.39.08.05.17.1.26.15,2.32,1.4,4.97,2.03,7.59,1.89,2.02-.11,4.02-.67,5.83-1.69,1.04-.59,2.03-1.32,2.92-2.21,0,0,.02-.01.03-.02,2.37-2.39,3.66-5.45,3.88-8.57.27-3.78-1.01-7.66-3.88-10.55Z"/><path class="cls-13" d="M43.26,31.71c.41-.43.78-.87,1.12-1.34-.29-.07-.57-.13-.86-.19-.11.5-.2,1.01-.25,1.52Z"/></g></svg>