<?xml version="1.0" encoding="UTF-8"?><svg id="Calque_2" xmlns="http://www.w3.org/2000/svg" viewBox="0 0 70 70"><defs><style>.cls-1{fill:#97c956;}.cls-1,.cls-2,.cls-3,.cls-4,.cls-5,.cls-6,.cls-7,.cls-8,.cls-9,.cls-10,.cls-11,.cls-12,.cls-13,.cls-14,.cls-15{stroke-width:0px;}.cls-2{fill:#badb2c;}.cls-3{fill:#81aa1e;}.cls-4{fill:#b4e140;}.cls-5{fill:#89b426;}.cls-6{fill:#e9eac2;}.cls-7{fill:#a1cd2e;}.cls-8{fill:#6e9e16;}.cls-9{fill:#cbe783;}.cls-10{fill:#aad12f;}.cls-11{fill:#91c422;}.cls-12{fill:#6d9f1c;}.cls-13{fill:#cbea68;}.cls-14{fill:#f2f4cd;}.cls-15{fill:#9bc33e;}</style></defs><g id="_ÎÓÈ_1"><polygon class="cls-5" points="5.45 63.84 33.95 31.97 41.34 27 45.39 23.9 44.55 23.06 35.26 29.65 32.99 31.47 34.75 23.98 42.18 20.7 42.18 19.96 34.97 22.73 37.78 16.71 36.3 16.28 33.39 24.3 30.99 30.84 5.74 52.99 5.45 63.84"/><polygon class="cls-12" points="6.16 64.55 38.03 36.05 43 28.66 46.1 24.61 46.94 25.45 40.35 34.74 38.53 37.01 46.02 35.25 49.3 27.82 50.05 27.89 47.27 35.03 53.23 33.05 53.72 33.7 45.7 36.61 39.16 39.01 17.01 64.26 6.16 64.55"/><path class="cls-2" d="M45.46,24.45l.45.45c2.77,2.77,7.88,3.79,10.41,1.26l1.19-1.19-2.37-2.37c-1.71-1.71-3.43-1.36-5.91-.27l-3.77,2.12Z"/><path class="cls-2" d="M45.46,24.45l-.45-.45c-2.77-2.77-3.79-7.88-1.26-10.41l1.19-1.19,2.37,2.37c1.71,1.71,1.36,3.43.27,5.91l-2.12,3.77Z"/><rect class="cls-2" x="40.43" y="25.05" width="7.97" height=".87" transform="translate(-5.01 38.87) rotate(-45)"/><path class="cls-2" d="M33.41,14.25l.63-.08c3.88-.5,7.88-3.37,7.51-6.22l-.17-1.34-3.32.43c-2.39.31-3.2,1.6-3.92,3.74l-.72,3.47Z"/><path class="cls-11" d="M33.41,14.25l-.63.08c-3.88.5-8.48-1.25-8.85-4.1l-.17-1.34,3.32-.43c2.39-.31,3.51.73,4.75,2.62l1.59,3.17Z"/><path class="cls-11" d="M34.81,9.82l-1.55,3.25-2.33-2.75c-1.69-2-2.04-4.71-.92-7.08l1.55-3.25,2.33,2.75c1.69,2,2.04,4.71.92,7.08Z"/><rect class="cls-13" x="33.13" y="12.22" width=".87" height="6.4" transform="translate(-1.71 4.46) rotate(-7.41)"/><path class="cls-2" d="M36.57,14.93l.5.38c3.12,2.36,8.37,2.62,10.57-.29l1.04-1.37-2.67-2.02c-1.92-1.46-3.6-.85-5.95.62l-3.5,2.69Z"/><path class="cls-2" d="M36.57,14.93l-.5-.38c-3.12-2.36-4.79-7.34-2.59-10.26l1.04-1.37,2.67,2.02c1.92,1.46,1.79,3.24,1.02,5.89l-1.64,4.1Z"/><path class="cls-2" d="M41.36,11.84l-3.88,1.89.76-4.25c.55-3.09,2.66-5.86,5.48-7.23l3.88-1.89-.76,4.25c-.55,3.09-2.66,5.86-5.48,7.23Z"/><rect class="cls-13" x="31.58" y="15.7" width="8.15" height=".87" transform="translate(1.27 34.83) rotate(-52.88)"/><path class="cls-2" d="M41.86,20.74l.55.31c3.4,1.94,8.48,1.8,10.09-1.03l.76-1.33-2.91-1.66c-2.1-1.2-3.6-.52-5.6.99l-2.89,2.72Z"/><path class="cls-2" d="M41.86,20.74l-.55-.31c-3.4-1.94-5.86-6.38-4.25-9.21l.76-1.33,2.91,1.66c2.1,1.2,2.28,2.84,1.99,5.32l-.87,3.87Z"/><path class="cls-11" d="M45.93,17.56l-3.4,2.01v-3.95c0-2.87,1.54-5.56,4.01-7.02l3.4-2.01v3.95c0,2.87-1.54,5.56-4.01,7.02Z"/><rect class="cls-2" x="37.57" y="21.47" width="7.26" height=".87" transform="translate(1.75 46.82) rotate(-60.28)"/><path class="cls-2" d="M42.63,23.45l.34.53c2.12,3.29,6.19,5.83,8.33,4.46l1.01-.65-1.81-2.82c-1.3-2.03-2.7-2.28-4.75-2.14l-3.12.62Z"/><path class="cls-2" d="M42.63,23.45l-.34-.53c-2.12-3.29-2.73-8.06-.59-9.43l1.01-.65,1.81,2.82c1.3,2.03.95,3.41-.02,5.21l-1.86,2.58Z"/><path class="cls-2" d="M46.81,23.09l-3.31-.2,1.19-3.09c.87-2.25,2.9-3.55,5.31-3.41l3.31.2-1.19,3.09c-.87,2.25-2.9,3.55-5.31,3.41Z"/><rect class="cls-2" x="38.91" y="23.58" width="5.66" height=".87" transform="translate(-6.36 26.37) rotate(-32.72)"/><rect class="cls-2" x="35.5" y="18.23" width="5.3" height=".87" transform="translate(6.39 46.87) rotate(-67.68)"/><path class="cls-15" d="M55.75,36.59l-.08.63c-.5,3.88,1.25,8.48,4.09,8.85l1.34.17.43-3.32c.31-2.39-.73-3.51-2.62-4.75l-3.17-1.59Z"/><path class="cls-2" d="M55.75,36.59l.08-.63c.5-3.88,3.37-7.88,6.22-7.51l1.34.17-.43,3.32c-.31,2.39-1.6,3.2-3.74,3.92l-3.47.72Z"/><path class="cls-15" d="M59.67,39.07l-2.75-2.33,3.25-1.55c2.36-1.13,5.08-.77,7.08.92l2.75,2.33-3.25,1.55c-2.36,1.13-5.08.77-7.08-.92Z"/><rect class="cls-3" x="54.14" y="33.23" width=".87" height="6.4" transform="translate(11.41 85.86) rotate(-82.6)"/><path class="cls-8" d="M55.07,33.43l.38.5c2.36,3.12,7.34,4.79,10.26,2.59l1.37-1.04-2.02-2.67c-1.46-1.92-3.24-1.79-5.89-1.02l-4.1,1.64Z"/><path class="cls-2" d="M55.07,33.43l-.38-.5c-2.36-3.12-2.62-8.37.29-10.57l1.37-1.04,2.02,2.67c1.46,1.92.85,3.6-.62,5.95l-2.69,3.5Z"/><path class="cls-8" d="M60.52,31.76l-4.25.76,1.89-3.88c1.37-2.82,4.15-4.92,7.24-5.48l4.25-.76-1.89,3.88c-1.37,2.82-4.15,4.92-7.24,5.48Z"/><rect class="cls-3" x="49.79" y="33.91" width="8.15" height=".87" transform="translate(-9.81 39.47) rotate(-37.12)"/><path class="cls-2" d="M49.26,28.14l.31.55c1.94,3.4,6.38,5.86,9.21,4.25l1.33-.76-1.66-2.91c-1.2-2.1-2.84-2.28-5.32-1.99l-3.87.87Z"/><path class="cls-2" d="M49.26,28.14l-.31-.55c-1.94-3.4-1.8-8.48,1.03-10.09l1.33-.76,1.66,2.91c1.2,2.1.52,3.6-.99,5.6l-2.72,2.89Z"/><path class="cls-1" d="M54.37,27.47h-3.95s2.01-3.4,2.01-3.4c1.46-2.47,4.15-4.01,7.02-4.01h3.95s-2.01,3.4-2.01,3.4c-1.46,2.47-4.15,4.01-7.02,4.01Z"/><polygon class="cls-2" points="44.73 31.05 51.46 27.38 51.03 26.62 44.73 30.22 44.73 31.05"/><path class="cls-1" d="M46.55,27.37l.53.34c3.29,2.12,8.06,2.73,9.43.59l.65-1.01-2.82-1.81c-2.03-1.3-3.41-.95-5.21.02l-2.58,1.86Z"/><path class="cls-2" d="M46.55,27.37l-.53-.34c-3.29-2.12-5.83-6.19-4.46-8.33l.65-1.01,2.82,1.81c2.03,1.3,2.28,2.7,2.15,4.75l-.62,3.12Z"/><path class="cls-2" d="M50.21,25.3l-3.09,1.19-.2-3.31c-.15-2.4,1.16-4.44,3.41-5.31l3.09-1.19.2,3.31c.15,2.4-1.16,4.44-3.41,5.31Z"/><path class="cls-13" d="M5.26,55.16l2.76-1.29c3.26-5.55,21.61-21.47,21.61-21.47l5-3.11.61-2.39-4.18,2.53,3.56-11.26-1.26-1.26-3.43,10.15L5.61,47.6s-2.25,1.74-3.9,4.13c.95.82,1.76.11,2.73,1.07.84.84.4,1.57.82,2.37Z"/><path class="cls-14" d="M3.56,55.96l1.7-.79c-.42-.8.02-1.53-.82-2.37-.96-.96-1.78-.25-2.73-1.07-1.7,2.46-2.77,5.61-.1,8.28,2.91,2.91,3.92,3.92,4.19,4.19,0,0-1.19-2.99-1.72-4.98-.53-1.99-.52-3.26-.52-3.26Z"/><polygon class="cls-2" points="39.25 24.37 36.37 26.22 35.83 28.56 41.17 24.9 39.25 24.37"/><path class="cls-9" d="M33.56,33.52l-19.76,17.66-5.78,2.7c-.06.11-.12.22-.18.32-.36.69-.65,1.36-.9,2.02.49.04.98.06,1.51.59,1,1,.16,1.84,1.17,2.85.12.12.28.25.39.32l24.88-24.88,7.66-7.69-.47-.18-7.33,5.93,1.08-4.62-1.2.74-1.07,4.22Z"/><polygon class="cls-2" points="42.59 27.43 42.58 27.42 42.58 27.44 42.59 27.43"/><path class="cls-14" d="M9.62,59.66c-1-1-.16-1.85-1.17-2.85-.53-.53-1.02-.55-1.51-.59-1.65,4.37-1.14,7.98-1.14,7.98l4.21-4.21c-.12-.07-.27-.21-.39-.32Z"/><polygon class="cls-2" points="37.56 21.12 36.74 20.95 35.24 26.91 36.37 26.22 37.56 21.12"/><path class="cls-13" d="M8.02,53.87l-2.76,1.29c.08.16.18.31.35.48.47.47.91.53,1.34.57.25-.66.55-1.34.9-2.02.05-.1.11-.21.18-.32Z"/><polygon class="cls-2" points="35.83 28.56 36.37 26.22 35.24 26.91 34.63 29.3 35.83 28.56"/><path class="cls-14" d="M6.95,56.22c-.43-.04-.87-.1-1.34-.57-.16-.16-.27-.32-.35-.48l-1.7.79s0,1.27.52,3.26c.53,1.99,1.72,4.98,1.72,4.98,0,0-.51-3.61,1.14-7.98Z"/><path class="cls-3" d="M22.4,64.39l20.53-24.32,10.15-3.43-1.26-1.26-11.26,3.56,2.53-4.18-2.39.61-3.11,5s-15.92,18.34-21.47,21.61l-1.06,2.28c.46.04.92.08,1.43.58,1,1,.16,1.84,1.17,2.85.27.27.53.4.78.48,2.3-1.64,3.96-3.78,3.96-3.78Z"/><polygon class="cls-2" points="45.8 29.35 47.88 26.11 47.14 25.64 45.16 28.72 41.44 34.17 43.78 33.63 45.8 29.35"/><path class="cls-6" d="M16.49,64.84c-.5-.5-.96-.54-1.43-.58l-1.02,2.19s-1.27,0-3.26-.52c-1.99-.53-4.98-1.72-4.98-1.72l4.19,4.19c2.73,2.73,5.96,1.55,8.44-.22-.25-.08-.51-.21-.78-.48-1-1-.16-1.85-1.17-2.85Z"/><path class="cls-6" d="M13.3,63.22c-.45-.81.02-1.55-.83-2.4-.85-.85-1.62-.43-2.43-.87l-4.24,4.24s3.36.48,7.5-.97Z"/><polygon class="cls-2" points="42.57 27.41 42.56 27.42 42.58 27.42 42.57 27.41"/><polygon class="cls-2" points="42.58 27.44 42.58 27.42 42.56 27.42 34.89 35.11 42.58 27.44"/><path class="cls-2" d="M13.3,63.22c.08.15.18.3.33.45.5.5.96.54,1.42.58l1.06-2.28c-.11.06-.22.12-.32.18-.86.44-1.69.79-2.5,1.07Z"/><path class="cls-4" d="M58.53,34.9c-.5-1.23-1.12-1.94-1.89-2.38,1.73.05,3.27-.82,4.19-2.44l1.57-2.76-3.06-.86c-1.79-.5-3.5-.04-4.7,1.21.24-.85.18-1.79-.33-3.02l-1.27-3.1-1.04.42c-2.2.9-2.33,5.65-.84,9.27l.07.18-2.57,1.06-4.9,1.14-2.33.54-4.62,1.08,5.93-7.33-.18-.47-7.69,7.66-24.85,24.85c.81.43,1.58.02,2.43.87.85.85.39,1.59.83,2.4.81-.28,1.65-.63,2.5-1.07.1-.05.21-.11.32-.18l2.7-5.78,17.66-19.76,4.22-1.07,2.39-.61,5.08-1.28,3.41-1.24.07.18c1.49,3.62,4.91,6.9,7.11,6l1.03-.42-1.27-3.1ZM53.04,30.2l-.37.64-.46.19.83-.83ZM53,31.66l.71.2h-1.18s.46-.2.46-.2Z"/><path class="cls-6" d="M14.04,66.44l1.02-2.19c-.46-.04-.92-.08-1.42-.58-.15-.15-.25-.3-.33-.45-4.14,1.45-7.5.97-7.5.97,0,0,2.99,1.19,4.98,1.72,1.99.53,3.26.52,3.26.52Z"/><path class="cls-2" d="M54.05,13.08c-2.94.93-5.35,3.34-6.28,6.28l-1.28,4.04,11.6-11.6-4.04,1.28Z"/><path class="cls-7" d="M56.82,15.85l1.28-4.04-11.6,11.6,4.04-1.28c2.94-.93,5.35-3.34,6.28-6.28Z"/><path class="cls-4" d="M38.16,18.58l.59.24c3.62,1.49,8.37,1.35,9.27-.85l.42-1.03-3.1-1.27c-2.23-.92-3.5-.38-5.05.79l-2.13,2.12Z"/><path class="cls-4" d="M38.16,18.58l-.58-.24c-3.62-1.49-6.9-4.92-6-7.11l.42-1.04,3.1,1.27c2.23.92,2.76,2.19,3.04,4.11l.03,3Z"/><path class="cls-4" d="M41.29,16.11l-2.76,1.57-.86-3.06c-.62-2.22.24-4.32,2.24-5.46l2.76-1.57.86,3.06c.62,2.22-.24,4.32-2.24,5.46Z"/><path class="cls-4" d="M30.14,28.19s-.34.34-.93.92c-.6.57-1.44,1.42-2.5,2.38-1.05.96-2.26,2.11-3.59,3.29-1.33,1.19-2.76,2.43-4.2,3.68-1.45,1.23-2.9,2.46-4.28,3.59-1.37,1.14-2.69,2.15-3.8,3.05-1.11.89-2.08,1.59-2.73,2.1-.67.49-1.05.78-1.05.78,0,0,.34-.34.93-.92.61-.57,1.44-1.42,2.5-2.38,1.05-.96,2.26-2.11,3.59-3.29,1.33-1.19,2.76-2.43,4.2-3.68,1.45-1.23,2.9-2.46,4.28-3.59,1.37-1.13,2.69-2.15,3.8-3.05,1.11-.89,2.08-1.59,2.73-2.1.67-.49,1.05-.78,1.05-.78Z"/><path class="cls-4" d="M30.24,30.18s-.32.33-.87.9c-.57.56-1.35,1.38-2.34,2.32-.99.94-2.12,2.05-3.37,3.21-1.24,1.16-2.59,2.37-3.94,3.58-1.36,1.2-2.72,2.4-4.02,3.49-1.29,1.11-2.54,2.1-3.58,2.97-1.05.87-1.96,1.55-2.58,2.05-.63.48-1,.75-1,.75,0,0,.32-.33.87-.9.57-.56,1.35-1.38,2.34-2.32.99-.94,2.12-2.05,3.37-3.2,1.24-1.16,2.6-2.37,3.94-3.58,1.36-1.2,2.73-2.4,4.03-3.49,1.29-1.11,2.53-2.1,3.58-2.97,1.05-.87,1.96-1.55,2.58-2.05.63-.48,1-.76,1-.76Z"/><path class="cls-4" d="M33.43,34.63s-.31.33-.85.9c-.56.56-1.32,1.38-2.29,2.31-.97.93-2.08,2.05-3.31,3.2-1.22,1.16-2.55,2.37-3.88,3.58-1.34,1.19-2.68,2.39-3.96,3.49-1.27,1.1-2.49,2.09-3.52,2.96-1.03.87-1.93,1.55-2.54,2.04-.62.48-.98.75-.98.75,0,0,.31-.33.85-.9.56-.56,1.32-1.38,2.29-2.31.97-.93,2.08-2.05,3.31-3.2,1.22-1.16,2.55-2.36,3.88-3.57,1.34-1.19,2.68-2.39,3.96-3.49,1.27-1.1,2.49-2.09,3.52-2.96,1.03-.87,1.93-1.55,2.54-2.04.62-.48.98-.75.98-.75Z"/><path class="cls-4" d="M33.74,35.36s-.3.34-.83.92c-.54.57-1.29,1.42-2.24,2.38-.95.96-2.03,2.11-3.23,3.29-1.19,1.19-2.49,2.44-3.79,3.69-1.31,1.23-2.62,2.47-3.87,3.6-1.24,1.14-2.44,2.16-3.45,3.06-1.01.9-1.89,1.6-2.49,2.11-.61.5-.96.78-.96.78,0,0,.3-.34.83-.92.54-.57,1.29-1.42,2.24-2.38.95-.96,2.03-2.11,3.23-3.29,1.19-1.19,2.49-2.44,3.79-3.68,1.31-1.23,2.62-2.47,3.88-3.6,1.24-1.14,2.44-2.16,3.45-3.06,1.01-.9,1.89-1.6,2.49-2.11.61-.5.96-.78.96-.78Z"/><path class="cls-10" d="M35.1,36.72s-.27.36-.75.98c-.5.61-1.17,1.51-2.04,2.54-.87,1.03-1.86,2.25-2.96,3.52-1.09,1.28-2.29,2.62-3.49,3.96-1.21,1.33-2.42,2.66-3.57,3.88-1.15,1.23-2.26,2.34-3.2,3.31-.93.97-1.76,1.74-2.32,2.29-.57.54-.9.85-.9.85,0,0,.27-.36.75-.98.5-.61,1.17-1.51,2.04-2.54.87-1.03,1.86-2.25,2.96-3.52,1.09-1.28,2.29-2.62,3.49-3.96,1.21-1.33,2.42-2.66,3.58-3.88,1.15-1.23,2.26-2.34,3.2-3.31.94-.97,1.76-1.74,2.31-2.29.57-.54.9-.85.9-.85Z"/><path class="cls-10" d="M34.37,36.41s-.28.35-.78.96c-.51.6-1.22,1.48-2.11,2.49-.9,1.01-1.92,2.21-3.06,3.45-1.13,1.25-2.37,2.56-3.6,3.87-1.25,1.3-2.49,2.6-3.68,3.79-1.18,1.2-2.33,2.29-3.29,3.23-.96.95-1.81,1.69-2.38,2.24-.59.53-.92.83-.92.83,0,0,.28-.35.78-.96.51-.6,1.22-1.48,2.11-2.49.9-1.01,1.92-2.21,3.06-3.45,1.13-1.25,2.37-2.56,3.6-3.87,1.25-1.3,2.49-2.6,3.68-3.79,1.19-1.2,2.33-2.29,3.29-3.23.96-.95,1.81-1.7,2.38-2.24.59-.53.92-.83.92-.83Z"/><path class="cls-4" d="M41.28,40.03s-.27.38-.74,1.04c-.49.65-1.16,1.59-2.01,2.69-.86,1.09-1.83,2.38-2.92,3.73-1.08,1.36-2.26,2.78-3.44,4.2-1.2,1.41-2.39,2.82-3.53,4.13-1.14,1.31-2.24,2.5-3.17,3.53-.92,1.04-1.74,1.86-2.29,2.45-.57.58-.89.91-.89.91,0,0,.27-.38.74-1.04.49-.65,1.16-1.6,2.01-2.69.86-1.09,1.83-2.39,2.92-3.73,1.08-1.36,2.26-2.78,3.44-4.2,1.2-1.41,2.39-2.82,3.54-4.13,1.14-1.31,2.24-2.5,3.17-3.53.92-1.03,1.74-1.86,2.29-2.45.57-.58.89-.91.89-.91Z"/><path class="cls-4" d="M39.85,39.78s-.27.36-.75.99c-.49.61-1.16,1.52-2.02,2.55-.86,1.03-1.84,2.26-2.93,3.54-1.08,1.29-2.27,2.63-3.45,3.98-1.2,1.33-2.39,2.67-3.54,3.9-1.14,1.24-2.24,2.35-3.17,3.33-.93.98-1.74,1.75-2.29,2.31-.57.54-.89.86-.89.86,0,0,.27-.36.75-.99.49-.61,1.16-1.52,2.02-2.55.86-1.03,1.84-2.26,2.93-3.54,1.08-1.29,2.27-2.63,3.45-3.98,1.2-1.33,2.39-2.67,3.54-3.9,1.14-1.24,2.24-2.35,3.17-3.33.93-.98,1.74-1.75,2.29-2.31.57-.55.89-.86.89-.86Z"/></g></svg>