<?xml version="1.0" encoding="UTF-8"?><svg id="Calque_2" xmlns="http://www.w3.org/2000/svg" viewBox="0 0 73.27 65.63"><defs><style>.cls-1{fill:#ffd983;}.cls-1,.cls-2,.cls-3,.cls-4,.cls-5,.cls-6,.cls-7,.cls-8{stroke-width:0px;}.cls-2{fill:#9aad54;}.cls-3{fill:#9db539;}.cls-4{fill:#f99608;}.cls-5{fill:#ff9e1f;}.cls-6{fill:#f97600;}.cls-7{fill:#fd8002;}.cls-8{fill:#81962c;}.cls-9{opacity:.7;}</style></defs><g id="_ÎÓÈ_1"><path class="cls-7" d="M36.57,15.9s-16.15-5.36-23.61,0C5.51,21.25-1.48,29.17.27,41.63c1.75,12.46,9.2,23.41,18.05,23.88,8.85.47,15.81-.58,18.25-.82,2.45-.23,0,0,0,0V15.9Z"/><path class="cls-4" d="M19.63,15.9s-6.3,2.56-8.41,8.15c-2.1,5.59-4.2,13.63.7,23.99,4.9,10.36,7.42,16.3,13.73,16.19,6.3-.12,10.92.38,10.92.38V15.9s-10.64-4.64-16.94,0Z"/><path class="cls-6" d="M36.57,15.9s16.28-5.36,23.73,0c7.45,5.36,14.44,13.28,12.69,25.74-1.75,12.46-9.2,23.41-18.05,23.88s-15.93-.58-18.38-.82c-2.45-.23,0,0,0,0V15.9Z"/><path class="cls-7" d="M53.6,15.9s6.3,2.56,8.41,8.15c2.1,5.59,4.2,13.63-.7,23.99-4.9,10.36-7.42,16.3-13.73,16.19-6.3-.12-11.01.38-11.01.38V15.9s10.73-4.64,17.03,0Z"/><path class="cls-2" d="M39.28,2.78l-.11.03-.93-2.81s-1.28.51-4.19,3.76c-2.4,2.68-4.43,12.47-4.43,12.47,0,0,1.99,1.73,5.33,2.25.55-3.17,1.76-9.87,2.7-12.54.45-1.28,1.05-2.34,1.62-3.17Z"/><path class="cls-8" d="M45.7,3.76l-3.14.11-.03-.13c-.96,1.45-2.15,3.99-2.5,7.99-.2,2.28-.34,4.86-.42,6.56,2.55-.67,3.53-2.12,3.53-2.12,0,0-.82-5.19-.35-8.54.47-3.35,2.91-3.88,2.91-3.88Z"/><path class="cls-3" d="M42.52,3.74l-.43-1.74-2.8.77c-.58.83-1.17,1.89-1.62,3.17-.94,2.67-2.15,9.37-2.7,12.54.62.1,1.29.16,2,.15,1.03,0,1.9-.14,2.64-.34.08-1.7.22-4.28.42-6.56.35-4.01,1.53-6.54,2.5-7.99Z"/><path class="cls-5" d="M36.57,14.83s-4.86-.84-7.3.99c-2.45,1.83-6.52,8.7-5.71,17.32.82,8.62,4.46,28.47,8.04,29.93,3.57,1.46,4.97,1.54,4.97,1.54V14.83Z"/><path class="cls-4" d="M36.57,14.83s4.86-.84,7.3.99c2.45,1.83,6.52,8.7,5.71,17.32-.81,8.62-4.46,28.47-8.04,29.93-3.57,1.46-4.97,1.54-4.97,1.54V14.83Z"/><g class="cls-9"><path class="cls-1" d="M18.59,23.51c-1.19,3.02.6,6.83-3.81,6.83-4.16,0-2.58-3.84-1.39-6.86,1.19-3.02,5.61-6.2,7.56-5.43,1.96.77-1.18,2.44-2.37,5.46Z"/></g></g></svg>