<?xml version="1.0" encoding="UTF-8"?>
<svg id="Calque_1" data-name="Calque 1" xmlns="http://www.w3.org/2000/svg" xmlns:xlink="http://www.w3.org/1999/xlink" version="1.1" viewBox="0 0 603 261.1">
  <defs>
    <style>
      .cls-1 {
        fill: #ff3a1a;
      }

      .cls-1, .cls-2, .cls-3, .cls-4, .cls-5, .cls-6, .cls-7 {
        stroke-width: 0px;
      }

      .cls-2 {
        fill: #f8784b;
      }

      .cls-3 {
        fill: #fbf4e4;
      }

      .cls-8 {
        filter: url(#drop-shadow-2);
      }

      .cls-9 {
        filter: url(#drop-shadow-1);
      }

      .cls-4 {
        fill: #ff521d;
      }

      .cls-5 {
        fill: #74733d;
      }

      .cls-6 {
        fill: #7e9b46;
      }

      .cls-7 {
        fill: #a5c45b;
      }
    </style>
    <filter id="drop-shadow-1" filterUnits="userSpaceOnUse">
      <feOffset dx="7" dy="7"/>
      <feGaussianBlur result="blur" stdDeviation="5"/>
      <feFlood flood-color="#000" flood-opacity=".2"/>
      <feComposite in2="blur" operator="in"/>
      <feComposite in="SourceGraphic"/>
    </filter>
    <filter id="drop-shadow-2" filterUnits="userSpaceOnUse">
      <feOffset dx="7" dy="7"/>
      <feGaussianBlur result="blur-2" stdDeviation="5"/>
      <feFlood flood-color="#000" flood-opacity=".2"/>
      <feComposite in2="blur-2" operator="in"/>
      <feComposite in="SourceGraphic"/>
    </filter>
  </defs>
  <g id="_ÎÓÈ_1" data-name=" ÎÓÈ 1" class="cls-9">
    <path class="cls-6" d="M134.9,32.1V2.5l-5.5,2.3v50.1l9.8,1.9s-4.2-6.7-4.3-24.7h0Z"/>
    <path class="cls-7" d="M126.5,6s-3.4,12.5-2,24.6c1.4,12.1-4.9,22.4-4.9,22.4l9.8,1.9V4.8l-2.9,1.2s0,0,0,0Z"/>
    <path class="cls-6" d="M129.4,51.2l-24.4-5.7c-10.1-2.4-19.3-8-26-16l-.2-.2c-4.8-5.8-10.9-10.4-17.8-13.3l-1.5-.7s11.5,6.2,16.7,18,10.7,27,37.4,27.4c26.7.4,15.7-9.4,15.7-9.4h0Z"/>
    <path class="cls-6" d="M129.4,61.8s-11.6-1.3-22.4-15.9c-10.8-14.6-11.3-28.1-11.3-28.1l3.8,6.3c5.5,9,12.9,16.6,21.5,22.6,4.4,3.1,8.5,7.9,8.5,15h0Z"/>
    <path class="cls-5" d="M131.7,51.2l24.4-5.7c10.1-2.4,19.3-8,25.9-16l.2-.2c4.8-5.8,10.9-10.4,17.8-13.3l1.5-.7s-11.5,6.2-16.7,18-10.7,27-37.4,27.4c-26.7.4-15.7-9.4-15.7-9.4h0Z"/>
    <path class="cls-5" d="M131.7,61.8s11.6-1.3,22.4-15.9c10.9-14.6,11.3-28.1,11.3-28.1l-3.8,6.3c-5.5,9-12.9,16.6-21.5,22.6-4.4,3.1-8.5,7.9-8.5,15h0Z"/>
    <path class="cls-4" d="M129.4,261.1h-21.8C48.2,261.1,0,208.9,0,144.5v-2.1C0,93.3,37.2,47.6,82.2,53.5c12.1,1.6,47.2,4.2,47.2,4.2v203.4h0Z"/>
    <path class="cls-1" d="M129.4,261.1h21.8c59.4,0,107.6-52.2,107.6-116.5v-2.1c0-49.2-37.2-94.9-82.2-89-12.1,1.6-47.2,4.2-47.2,4.2v203.4h0Z"/>
    <path class="cls-2" d="M64.7,67.8s-21.4,3.5-30.7,26c-13.5,33,2.6,61.9,20.4,59.9,17.7-2,28.5-56.4,28.7-67.3.3-21.7-18.4-18.7-18.4-18.7h0s0,0,0,0Z"/>
  </g>
  <g class="cls-8">
    <g>
      <path class="cls-3" d="M297.2,144.3h-22.7l13.9-82.4c.7-5.3,2.3-10,4.7-14.2,2.4-4.2,5.7-7.4,9.8-9.8,4.1-2.3,9-3.4,14.6-3.3,1.8,0,3.5.2,5.2.6,1.7.3,3.3.7,5,1.1l-1.9,17.4c-.8-.2-1.5-.4-2.2-.6-.7-.2-1.5-.2-2.3-.2-1.8,0-3.4.4-4.8,1.2-1.4.8-2.5,1.9-3.4,3.3-.9,1.4-1.5,2.9-1.8,4.6l-14.2,82.3ZM321.7,68.2l-3,16.5h-42.4l2.8-16.5h42.7Z"/>
      <path class="cls-3" d="M347.8,145.7c-5,0-9.3-1-13.1-2.7-3.8-1.7-6.9-4.1-9.3-7.2-2.4-3.1-4.1-6.7-5.1-10.8-1-4.1-1.3-8.6-.8-13.4l1.1-8.3c.7-5.2,1.8-10,3.5-14.4,1.7-4.5,4-8.4,6.9-11.8,2.9-3.4,6.4-6,10.6-7.8,4.2-1.9,9.1-2.7,14.8-2.5,5.1.1,9.3,1.2,12.7,3.2,3.4,2,6,4.7,7.8,8.1,1.9,3.4,3.1,7.2,3.6,11.4.6,4.2.6,8.6,0,13.2l-1.6,11h-51.5l2.6-14.8h28.8c0,0,.5-2.7.5-2.7.2-1.7.4-3.4.5-5,0-1.7-.2-3.1-1-4.2-.7-1.1-2.2-1.8-4.3-2-2.6,0-4.6.4-6.1,1.6-1.4,1.2-2.5,2.7-3.1,4.6-.7,1.9-1.2,3.9-1.4,6.1-.3,2.2-.5,4.2-.7,6.2l-1.1,8.4c-.2,1.9-.3,3.7-.4,5.5,0,1.8.2,3.5.7,5,.5,1.5,1.3,2.7,2.5,3.7s3,1.4,5.4,1.5c2.9,0,5.7-.4,8.2-1.4,2.6-1.1,4.9-2.6,7-4.7l8.3,14.6c-1.9,2.5-4.4,4.5-7.3,5.9-2.9,1.4-6,2.5-9.3,3.1-3.3.6-6.4.9-9.4.9Z"/>
      <path class="cls-3" d="M415.1,88.2l-9.7,56.1h-22.6l13.2-76.2h20.9l-1.8,20.1ZM435.6,67.7l-3.2,22c-1.1-.2-2.3-.4-3.4-.5-1.1-.1-2.3-.2-3.4-.3-2.3,0-4.3.3-6,1.1-1.7.8-3.1,1.9-4.2,3.3-1.1,1.4-2,3.1-2.7,4.9-.7,1.8-1.2,3.8-1.5,5.9l-3.4-2.8c.4-3,1-6.4,1.7-10.3.8-3.9,1.9-7.8,3.4-11.6,1.5-3.8,3.6-6.9,6.2-9.3,2.6-2.4,5.9-3.6,10-3.6,1.1,0,2.2.2,3.2.4,1,.2,2.1.5,3.2.7Z"/>
      <path class="cls-3" d="M463.9,85.6l-10.3,58.8h-22.5l13.2-76.2h20.9l-1.4,17.4ZM458.3,103.7l-4.4.2c.3-4,1-8.2,2-12.6,1.1-4.4,2.6-8.5,4.7-12.3,2.1-3.8,4.8-6.9,8.3-9.2,3.4-2.3,7.6-3.4,12.6-3.2,3.6,0,6.4,1,8.5,2.7,2.1,1.7,3.7,3.9,4.6,6.6,1,2.7,1.6,5.5,1.8,8.6s.1,6.1-.2,8.9l-8.4,50.8h-22.6l7.9-47.9c.1-1.4.3-2.9.6-4.7.3-1.8.2-3.4-.3-4.7-.4-1.4-1.7-2.1-3.8-2.1-2.2-.1-4,.5-5.3,1.8-1.3,1.4-2.4,3.1-3.2,5.1-.8,2.1-1.4,4.2-1.8,6.3-.4,2.1-.7,4-.9,5.5ZM492.1,103.6h-5.4c.3-3.9,1-8.1,2-12.5,1-4.4,2.5-8.4,4.5-12.2,2-3.8,4.7-6.8,8.1-9,3.4-2.3,7.6-3.4,12.6-3.3,4,.1,7.2,1.2,9.5,3,2.3,1.9,3.9,4.3,4.9,7.2s1.5,6.1,1.7,9.5c.2,3.4,0,6.7-.2,9.9l-8,47.9h-22.5l7.9-48c.1-1.3.3-2.9.6-4.6.2-1.8.1-3.4-.3-4.7-.4-1.4-1.7-2.1-3.8-2.1-2.3,0-4.2.6-5.6,1.9-1.4,1.3-2.5,2.9-3.2,4.9-.8,2-1.3,4.1-1.7,6.2-.3,2.2-.7,4.1-1,5.7Z"/>
      <path class="cls-3" d="M566.8,145.7c-5,0-9.3-1-13.1-2.7-3.8-1.7-6.9-4.1-9.3-7.2-2.4-3.1-4.1-6.7-5.1-10.8-1-4.1-1.3-8.6-.8-13.4l1.1-8.3c.7-5.2,1.8-10,3.5-14.4,1.7-4.5,4-8.4,6.9-11.8,2.9-3.4,6.4-6,10.6-7.8,4.2-1.9,9.1-2.7,14.8-2.5,5.1.1,9.3,1.2,12.7,3.2,3.4,2,6,4.7,7.8,8.1,1.9,3.4,3.1,7.2,3.6,11.4.6,4.2.6,8.6,0,13.2l-1.6,11h-51.5l2.6-14.8h28.8c0,0,.5-2.7.5-2.7.2-1.7.4-3.4.5-5,0-1.7-.2-3.1-1-4.2-.7-1.1-2.2-1.8-4.3-2-2.6,0-4.6.4-6.1,1.6-1.4,1.2-2.5,2.7-3.1,4.6-.7,1.9-1.2,3.9-1.4,6.1-.3,2.2-.5,4.2-.7,6.2l-1.1,8.4c-.2,1.9-.3,3.7-.4,5.5,0,1.8.2,3.5.7,5,.5,1.5,1.3,2.7,2.5,3.7s3,1.4,5.4,1.5c2.9,0,5.7-.4,8.2-1.4,2.6-1.1,4.9-2.6,7-4.7l8.3,14.6c-1.9,2.5-4.4,4.5-7.3,5.9-2.9,1.4-6,2.5-9.3,3.1-3.3.6-6.4.9-9.4.9Z"/>
    </g>
    <g>
      <path class="cls-3" d="M372.9,225.7l-6,34.4h-13.1l7.7-44.5h12.2l-.8,10.2ZM369.6,236.3h-2.6c.2-2.2.6-4.7,1.2-7.2s1.5-5,2.8-7.2c1.2-2.2,2.8-4,4.8-5.4,2-1.4,4.5-2,7.4-1.9,2.1,0,3.7.6,5,1.6,1.2,1,2.1,2.3,2.7,3.8.6,1.6.9,3.2,1,5s0,3.5-.1,5.2l-4.9,29.7h-13.2l4.6-28c0-.8.2-1.7.3-2.8.2-1,0-2-.2-2.8-.3-.8-1-1.2-2.2-1.2-1.3,0-2.3.3-3.1,1.1-.8.8-1.4,1.8-1.9,3-.5,1.2-.8,2.4-1.1,3.7-.2,1.2-.4,2.3-.5,3.2ZM389.4,236.2h-3.2c.2-2.3.6-4.7,1.2-7.3s1.5-4.9,2.7-7.1c1.2-2.2,2.7-4,4.7-5.3s4.4-2,7.4-1.9c2.4,0,4.2.7,5.6,1.8,1.3,1.1,2.3,2.5,2.9,4.2s.9,3.6,1,5.6c0,2,0,3.9-.1,5.8l-4.7,28h-13.2l4.6-28.1c0-.8.2-1.7.3-2.7.1-1,0-2-.2-2.8-.3-.8-1-1.2-2.2-1.2-1.4,0-2.5.4-3.3,1.1-.8.8-1.4,1.7-1.9,2.9-.5,1.2-.8,2.4-1,3.6-.2,1.3-.4,2.4-.6,3.3Z"/>
      <path class="cls-3" d="M438.2,232.8l-1.2,7.4h-2.8c-1,0-1.9.2-2.6.6-.7.4-1.4,1-1.8,1.6-.5.7-.9,1.4-1.1,2.3-.3.9-.5,1.7-.6,2.7-.1.6-.2,1.2-.2,1.7,0,.6,0,1,.3,1.4s.7.6,1.5.6,1.6-.2,2.3-.6c.7-.4,1.3-.9,1.7-1.5.5-.6.8-1.3.9-2.1l.8,5.6c-.5,1-1,2.1-1.6,3-.5,1-1.1,1.9-1.8,2.7-.7.8-1.5,1.4-2.4,1.9-.9.5-2.1.7-3.6.7-2.4,0-4.5-.6-6.3-1.8-1.7-1.2-3-2.7-3.9-4.7s-1.3-4.1-1.2-6.5c0-2.7.7-5,1.8-7s2.6-3.5,4.5-4.7c1.9-1.2,3.9-2.1,6.2-2.7s4.7-.9,7.1-.9h4ZM434,248.8l3.1-19.8c0-.7.1-1.4.2-2.1,0-.7,0-1.3-.2-1.8s-.9-.7-1.9-.7c-1,0-1.6.2-2,.7-.4.5-.6,1.1-.7,1.8,0,.7-.2,1.5-.3,2.2h-13.2c.1-2.3.7-4.4,1.7-6.2,1-1.8,2.3-3.4,4-4.6,1.6-1.2,3.5-2.2,5.6-2.8,2.1-.6,4.2-.9,6.5-.9,2.9,0,5.5.6,7.7,1.8,2.2,1.2,3.8,2.8,4.9,5,1.1,2.2,1.5,4.8,1.2,7.8l-3.1,19.5c-.2,1.7-.4,3.4-.5,5.2,0,1.8,0,3.5.5,5.2v.8s-12.8,0-12.8,0c-.6-1.8-.9-3.6-.8-5.6,0-1.9.2-3.8.4-5.7Z"/>
      <path class="cls-3" d="M473.5,215.5l-7.7,44.5h-13.2l7.7-44.5h13.2ZM461.7,204.2c0-2.1.7-3.7,2.1-5,1.4-1.3,3.1-1.9,5.1-2,1.9,0,3.6.6,5,1.8s2.1,2.8,2.1,4.8-.7,3.7-2.1,5c-1.4,1.3-3.1,1.9-5.1,2-1.9,0-3.6-.6-5-1.8-1.4-1.2-2.1-2.8-2.1-4.8Z"/>
      <path class="cls-3" d="M494,247.6c.2-.8-.1-1.5-.8-2.1-.7-.6-1.5-1.1-2.4-1.6-.9-.5-1.6-.9-2.1-1.3-1.5-.7-2.8-1.5-4.1-2.4-1.3-.9-2.4-1.8-3.4-2.9-1-1.1-1.8-2.3-2.3-3.7s-.8-3-.7-4.8c0-2.2.6-4.3,1.6-6,1-1.8,2.2-3.2,3.8-4.4,1.6-1.2,3.3-2.1,5.3-2.8,2-.6,4-.9,6.2-.8,2.9,0,5.5.6,7.8,1.7,2.3,1.1,4.1,2.7,5.4,4.8s2,4.6,2,7.6h-13.1c0-.8,0-1.6,0-2.3s-.2-1.4-.5-1.9c-.4-.5-1.1-.7-2.1-.7-.7,0-1.4.2-1.9.6-.5.4-1,.9-1.3,1.5s-.6,1.3-.7,1.9c-.1.6-.1,1.1,0,1.6.2.5.4.9.8,1.3.3.4.7.8,1.2,1.1.5.3.9.6,1.4.8,2.2.9,4.3,2,6.3,3.1,2,1.2,3.6,2.6,4.8,4.4,1.2,1.8,1.8,4.1,1.7,6.9-.1,2.3-.7,4.4-1.7,6.1-1.1,1.7-2.4,3.2-4.2,4.3-1.7,1.1-3.6,2-5.7,2.5-2.1.6-4.1.8-6.3.8-2.9,0-5.5-.7-7.7-1.9-2.3-1.2-4.1-2.9-5.4-5.1-1.3-2.2-2-4.8-2.1-7.7h12.2c0,1.1,0,2,.2,2.8.1.8.5,1.5,1,2,.5.5,1.4.7,2.6.7.8,0,1.6-.2,2.1-.5.6-.3,1-.8,1.4-1.4.4-.6.6-1.3.8-2.1Z"/>
      <path class="cls-3" d="M512.7,239.9l.5-4.1c.4-2.9,1.1-5.6,2.1-8.1,1-2.6,2.4-4.8,4.1-6.8s3.8-3.5,6.2-4.6c2.4-1.1,5.2-1.6,8.4-1.5,3,0,5.5.7,7.6,1.9s3.7,2.7,4.9,4.7,2,4.2,2.4,6.7c.4,2.5.5,5.1.3,7.8l-.5,4.2c-.4,2.8-1,5.5-2.1,8.1-1,2.6-2.4,4.8-4.1,6.8-1.7,2-3.8,3.5-6.2,4.6-2.4,1.1-5.2,1.6-8.3,1.5-3,0-5.5-.7-7.6-1.9-2-1.2-3.7-2.8-4.9-4.7-1.2-2-2-4.2-2.5-6.7-.4-2.5-.5-5.1-.2-7.8ZM526.5,235.7l-.5,4.2c0,.8-.1,1.7-.3,2.8-.2,1.1-.2,2.3-.2,3.4,0,1.1.3,2.1.8,2.9.5.8,1.4,1.2,2.6,1.3,1.5.1,2.6-.2,3.4-.8.8-.7,1.4-1.5,1.9-2.6.4-1.1.7-2.2.9-3.5.2-1.2.3-2.4.4-3.5l.5-4.2c0-.7.1-1.7.3-2.8.2-1.1.2-2.2.2-3.4,0-1.1-.3-2.1-.8-2.9-.5-.8-1.4-1.2-2.7-1.3-1.3,0-2.4.3-3.2.9-.8.7-1.4,1.6-1.9,2.7-.4,1.1-.8,2.3-.9,3.5-.2,1.2-.3,2.3-.5,3.3Z"/>
      <path class="cls-3" d="M569.6,225.7l-6,34.3h-13.2l7.7-44.5h12.3l-.9,10.2ZM566.4,236.4h-2.3c.2-2.2.5-4.7,1.1-7.3s1.5-5,2.6-7.2c1.2-2.2,2.8-4,4.7-5.4,2-1.4,4.4-2,7.3-2,2.3.1,4.2.7,5.5,1.8,1.4,1.1,2.3,2.5,2.9,4.3.6,1.7.9,3.6,1,5.6s0,3.9-.1,5.7l-4.7,28h-13.3l4.7-28.2c0-.9.1-1.9.1-2.9,0-1-.2-1.9-.6-2.6-.4-.7-1.2-1.1-2.5-1.1-1.4,0-2.5.3-3.3,1.1-.8.8-1.4,1.7-1.9,2.9-.4,1.2-.7,2.4-.9,3.7-.2,1.3-.3,2.4-.5,3.4Z"/>
    </g>
    <g>
      <path class="cls-3" d="M392.8,28.2v-2.5c0-2.2.2-4.1.6-5.7.4-1.6,1-2.9,1.7-3.9.7-1,1.6-1.7,2.7-2.2s2.2-.7,3.6-.7,2.4.2,3.4.7,1.8,1.1,2.5,2c.7.9,1.2,1.9,1.7,3.1.4,1.2.7,2.6.9,4.1v7.9c-.2,1.4-.4,2.7-.9,3.8-.4,1.2-1,2.2-1.7,3-.7.8-1.5,1.5-2.5,2-1,.5-2.1.7-3.4.7s-2.5-.3-3.5-.8c-1.1-.5-2-1.3-2.7-2.3-.7-1-1.3-2.3-1.7-3.9-.4-1.6-.6-3.4-.6-5.5ZM395.5,25.7v2.5c0,1.7.1,3.1.4,4.4s.6,2.2,1.2,3.1c.5.8,1.2,1.4,2,1.8.8.4,1.7.6,2.8.6s2.5-.3,3.5-.9c.9-.6,1.7-1.3,2.2-2.3.6-.9,1-2,1.2-3.1v-9c-.1-.8-.4-1.6-.7-2.4-.3-.8-.7-1.5-1.3-2.2-.5-.7-1.2-1.2-2-1.6-.8-.4-1.8-.6-2.9-.6s-2.1.2-2.9.6c-.8.4-1.5,1-2,1.8-.5.8-.9,1.8-1.2,3.1-.3,1.2-.4,2.7-.4,4.4ZM408.1,35V2.8h2.7v37.3h-2.5l-.2-5.1Z"/>
      <path class="cls-3" d="M426.7,40.6c-1.5,0-2.8-.2-4-.7-1.2-.5-2.3-1.2-3.2-2.2-.9-1-1.6-2.2-2.1-3.7s-.7-3.3-.7-5.3v-3c0-2.2.3-4.1.8-5.6s1.2-2.8,2.1-3.8,1.9-1.7,3-2.2c1.1-.5,2.3-.7,3.6-.7s2.7.2,3.8.7c1.1.5,2,1.2,2.8,2.1.7,1,1.3,2.2,1.7,3.6.4,1.5.6,3.2.6,5.1v2.3h-16.7v-2.6h14v-.7c0-1.7-.3-3.2-.7-4.4-.4-1.2-1.1-2.1-2-2.8-.9-.6-2-1-3.4-1s-1.9.2-2.7.5c-.8.4-1.6.9-2.2,1.7-.6.8-1.1,1.8-1.4,3-.3,1.2-.5,2.8-.5,4.5v3c0,1.6.2,3,.5,4.2.3,1.2.8,2.1,1.5,2.9s1.4,1.4,2.3,1.7c.9.4,1.9.6,3,.6s2.5-.2,3.6-.7c1-.5,1.9-1.2,2.7-2.1l1.4,1.8c-.5.6-1.1,1.2-1.8,1.8-.7.5-1.6,1-2.6,1.3-1,.3-2.2.5-3.5.5Z"/>
      <path class="cls-3" d="M455,2.8v37.3h-2.7V2.8h2.7Z"/>
      <path class="cls-3" d="M476.5,24.7v2.3s-4.6,0-4.6,0c-1.2,0-2.3.1-3.3.4-1,.3-1.8.7-2.4,1.2-.6.5-1.1,1.1-1.4,1.8-.3.7-.5,1.5-.5,2.5s.2,2.1.6,2.8c.4.7.9,1.3,1.7,1.6.7.3,1.6.5,2.6.5s2.5-.3,3.5-.8c1-.5,1.8-1.2,2.5-2.1.6-.9,1.1-1.8,1.3-2.8l.7,1.7c-.2.7-.5,1.5-.9,2.3-.4.8-1,1.5-1.7,2.2-.7.7-1.5,1.2-2.5,1.6-1,.4-2,.6-3.2.6s-2.7-.3-3.8-.8c-1.1-.6-1.9-1.4-2.5-2.5-.6-1.1-.9-2.5-.9-4.1s.2-2.3.6-3.4,1-1.9,1.9-2.7c.8-.8,1.9-1.3,3.1-1.8s2.7-.6,4.4-.6h5ZM476,35.4v-14.3c0-1.2-.2-2.2-.6-3-.4-.8-1-1.3-1.8-1.7-.8-.4-1.8-.5-3-.5s-2.1.2-3,.7c-.9.4-1.5,1.1-2,1.8-.5.8-.7,1.7-.7,2.7h-2.7c0-1,.2-2,.6-2.9.4-.9,1-1.7,1.7-2.5.8-.7,1.7-1.3,2.7-1.7,1-.4,2.2-.6,3.5-.6s3,.3,4.2.8c1.2.5,2.2,1.3,2.9,2.5.7,1.2,1,2.7,1,4.6v13.4c0,.9,0,1.9.2,2.8.1,1,.3,1.8.5,2.4v.3h-2.8c-.2-.6-.3-1.3-.4-2.2,0-.9-.1-1.7-.1-2.5Z"/>
    </g>
    <g>
      <path class="cls-3" d="M407.4,181.8l-.4,2.3h-4.4c-1,0-1.9,0-2.9.3-1,.2-1.8.6-2.6,1.1-.8.5-1.5,1.1-2,1.9-.5.8-.8,1.7-1,2.8,0,.9,0,1.8.2,2.5.2.7.6,1.3,1.2,1.7.6.4,1.4.6,2.4.6,1.2,0,2.4-.2,3.4-.7,1-.5,1.9-1.2,2.7-2.1.8-.9,1.4-1.9,1.8-3l.5,1.7c-.3.9-.8,1.8-1.4,2.6s-1.3,1.5-2,2.2c-.8.6-1.6,1.1-2.6,1.4-.9.3-1.9.5-2.9.5-1.5,0-2.6-.3-3.6-1-.9-.6-1.6-1.5-2-2.6-.4-1.1-.6-2.3-.5-3.7,0-1.5.5-2.7,1.1-3.8s1.5-2,2.5-2.7c1-.7,2.2-1.2,3.4-1.6,1.3-.4,2.6-.5,3.9-.5h5.1ZM404.9,192.5l2.3-14.4c0-1.1,0-2-.3-2.7-.3-.8-.7-1.4-1.4-1.8s-1.6-.6-2.7-.7c-1.1,0-2,.2-2.9.6-.9.4-1.6,1.1-2.2,1.8s-1,1.7-1.2,2.8h-2.7c.2-1.2.5-2.2,1.1-3.2.5-1,1.2-1.8,2.1-2.5.8-.7,1.8-1.2,2.8-1.6,1-.4,2.2-.5,3.3-.5,1.6,0,2.9.4,4,1,1.1.7,1.8,1.6,2.3,2.7.5,1.2.6,2.5.5,4.1l-2.2,13.4c-.1.9-.2,1.8-.2,2.6s0,1.7,0,2.6v.3h-2.7c0-.8-.1-1.6,0-2.4,0-.8.1-1.6.2-2.4ZM403.1,159.9l3.5,6.8h-2.4l-4.3-6.8h3.3Z"/>
      <path class="cls-3" d="M434.4,159.8l-6.5,37.3h-2.6l6.5-37.3h2.6Z"/>
      <path class="cls-3" d="M451.5,181.8l-.4,2.3h-4.4c-1,0-1.9,0-2.9.3-1,.2-1.8.6-2.6,1.1-.8.5-1.5,1.1-2,1.9-.5.8-.8,1.7-1,2.8,0,.9,0,1.8.2,2.5.2.7.6,1.3,1.2,1.7.6.4,1.4.6,2.4.6,1.2,0,2.4-.2,3.4-.7,1-.5,1.9-1.2,2.7-2.1.8-.9,1.4-1.9,1.8-3l.5,1.7c-.3.9-.8,1.8-1.4,2.6s-1.3,1.5-2,2.2c-.8.6-1.6,1.1-2.6,1.4-.9.3-1.9.5-2.9.5-1.5,0-2.6-.3-3.6-1-.9-.6-1.6-1.5-2-2.6-.4-1.1-.6-2.3-.5-3.7,0-1.5.5-2.7,1.1-3.8s1.5-2,2.5-2.7c1-.7,2.2-1.2,3.4-1.6,1.3-.4,2.6-.5,3.9-.5h5.1ZM449,192.5l2.3-14.4c0-1.1,0-2-.3-2.7-.3-.8-.7-1.4-1.4-1.8s-1.6-.6-2.7-.7c-1.1,0-2,.2-2.9.6-.9.4-1.6,1.1-2.2,1.8s-1,1.7-1.2,2.8h-2.7c.2-1.2.5-2.2,1.1-3.2.5-1,1.2-1.8,2.1-2.5.8-.7,1.8-1.2,2.8-1.6,1-.4,2.2-.5,3.3-.5,1.6,0,2.9.4,4,1,1.1.7,1.8,1.6,2.3,2.7.5,1.2.6,2.5.5,4.1l-2.2,13.4c-.1.9-.2,1.8-.2,2.6s0,1.7,0,2.6v.3h-2.7c0-.8-.1-1.6,0-2.4,0-.8.1-1.6.2-2.4Z"/>
    </g>
  </g>
</svg>