<?xml version="1.0" encoding="UTF-8"?><svg id="Calque_2" xmlns="http://www.w3.org/2000/svg" viewBox="0 0 70 70"><defs><style>.cls-1{fill:#ffde17;}.cls-1,.cls-2,.cls-3,.cls-4,.cls-5,.cls-6{stroke-width:0px;}.cls-2{fill:#88c836;}.cls-7{opacity:.53;}.cls-3{fill:#a7ce33;}.cls-4{fill:#ffb600;}.cls-5{fill:#ffe35a;}.cls-6{fill:#fff;}</style></defs><g id="_ÎÓÈ_1"><path class="cls-2" d="M21.25,39.7c1.98-3.09,3.3-5.18,3.3-5.18,0,0,21.96-22.05,21.86-34.52,0,0-9.12,12.41-19.35,25.12l-4.64,11.73s-.43,1.09-1.16,2.84Z"/><path class="cls-2" d="M44.88,42.94c12.71-10.24,25.12-19.35,25.12-19.35-12.48-.1-34.52,21.86-34.52,21.86,0,0-2.09,1.31-5.18,3.3,1.75-.73,2.84-1.16,2.84-1.16l11.73-4.64Z"/><path class="cls-4" d="M4.87,65.46c2.13,2.13,4.77,3.36,7.43,2.65,2.66-.71,10.41-6.52,12.32-8.4,10.74-10.53,32.49-33.62,34.48-37.34,1.99-3.72,4.79-9.25,1.45-12.59-3.34-3.34-8.86-.55-12.59,1.45-3.72,2-26.81,23.75-37.34,34.48-1.88,1.91-7.69,9.66-8.4,12.32-.71,2.66.52,5.3,2.65,7.43Z"/><path class="cls-1" d="M11.06,56.54c.45-.48.46-1.28.02-1.77l-1.03-1.21c-.41-.51-1.09-.52-1.51,0l-1.09,1.35c-.41.51-.41,1.36,0,1.87.41.51,2,1.5,2.44,1.02l1.16-1.25Z"/><path class="cls-5" d="M8.04,56.3c-.19-.24-.19-.7,0-.94l1.09-1.35c.05-.06.11-.1.16-.1.06,0,.11.04.15.07l1.07,1.26c.19.21.19.58,0,.78l-1.05,1.13c-.31-.06-1.01-.44-1.37-.8,0,0-.04-.04-.06-.06Z"/><path class="cls-1" d="M15.93,51.43c.52-.52.8-.8.8-.8.46-.47.48-1.24.04-1.73l-1.2-1.36c-.43-.5-1.15-.53-1.62-.06,0,0-.41.41-.98.99l-.26.26c-.4.44-.39,1.22.03,1.72l1.17,1.35c.44.49,1.17.5,1.63.03,0,0,.1-.1.4-.4Z"/><path class="cls-5" d="M13.3,49.96c-.18-.23-.18-.59-.04-.73l1.22-1.23c.09-.09.19-.11.25-.11s.16.02.24.11l1.24,1.4c.18.2.17.53,0,.71l-1.2,1.21c-.09.1-.19.12-.26.12-.07,0-.17-.02-.26-.11l-1.17-1.36Z"/><path class="cls-1" d="M13.87,53.56c.45-.48.47-1.27.03-1.76l-1.17-1.35c-.42-.51-1.11-.52-1.55-.03l-1.1,1.28c-.43.5-.44,1.33-.02,1.85l1.03,1.21c.44.49,1.16.5,1.61.03l1.17-1.23Z"/><path class="cls-5" d="M10.63,53.07c-.17-.22-.17-.65.02-.88l1.1-1.28c.05-.06.12-.1.19-.1.08,0,.14.04.18.09l1.21,1.4c.19.21.18.56,0,.75l-1.17,1.24c-.09.1-.19.12-.25.12-.06,0-.16-.02-.25-.11l-1.04-1.22Z"/><path class="cls-1" d="M7.45,56.77c-.41-.51-1.06-.5-1.46.02l-1.06,1.46c-.38.54-.39,1.35-.02,1.81.36.45,1.79,1.26,2.23.77l1.14-1.28c.44-.49-.42-2.27-.83-2.79Z"/><path class="cls-5" d="M5.49,59.59c-.14-.18-.15-.62.05-.92l1.05-1.45c.05-.06.1-.09.13-.09.04,0,.09.04.11.06.35.44.83,1.55.82,1.93l-.99,1.11c-.27-.03-.86-.33-1.15-.61l-.03-.03Z"/><path class="cls-1" d="M10.34,59.98q-.44-.44-.44-.44c-.45-.48-1.18-.48-1.62.01l-1.14,1.28c-.44.49-.47,1.24-.07,1.67l.38.38.38.38c.42.39,1.17.36,1.67-.07l1.28-1.14c.49-.44.49-1.17.01-1.62,0,0,0,0-.44-.44Z"/><path class="cls-5" d="M7.59,61.97c-.1-.11-.09-.43.11-.65l1.14-1.27c.09-.1.19-.12.25-.12.07,0,.16.02.26.11,0,0,.91.91.91.91.12.12.14.22.14.28,0,.07-.02.17-.12.26l-1.27,1.14c-.21.19-.52.2-.65.09l-.75-.75Z"/><path class="cls-1" d="M31.22,36.21c.47-.46.47-1.22,0-1.68l-1.2-1.18c-.47-.46-1.24-.46-1.71,0l-1.18,1.14c-.47.46-.48,1.22-.02,1.69l1.21,1.23c.46.47,1.22.47,1.69,0l1.21-1.19Z"/><path class="cls-5" d="M27.64,35.64c-.08-.08-.13-.2-.13-.32,0-.12.05-.23.13-.31l1.18-1.14c.18-.18.49-.17.67,0l1.2,1.18c.08.08.13.19.13.31,0,.12-.05.23-.13.31l-1.21,1.19c-.17.17-.46.17-.64,0l-1.21-1.23Z"/><path class="cls-1" d="M34.13,33.34c.47-.46.47-1.22,0-1.67l-1.18-1.13c-.48-.45-1.26-.45-1.73,0l-1.18,1.14c-.47.46-.48,1.21,0,1.67l1.2,1.18c.47.46,1.23.46,1.7,0l1.21-1.19Z"/><path class="cls-5" d="M30.54,32.81c-.08-.08-.12-.19-.12-.3,0-.11.05-.22.13-.3l1.18-1.14c.19-.18.51-.18.7,0l1.18,1.13c.08.08.13.19.13.3,0,.11-.05.22-.13.3l-1.21,1.19c-.18.17-.48.17-.65,0l-1.2-1.19Z"/><path class="cls-1" d="M19.62,47.74c.47-.46.48-1.24.03-1.72l-1.22-1.34c-.44-.49-1.17-.52-1.64-.05l-1.16,1.16c-.46.46-.5,1.26-.07,1.76l1.2,1.36c.44.49,1.19.5,1.65.04l1.2-1.2Z"/><path class="cls-5" d="M16.12,47.05c-.17-.2-.15-.54.04-.74l1.16-1.16c.15-.15.38-.15.53,0l1.24,1.37c.18.2.18.51,0,.69l-1.2,1.2c-.1.1-.21.12-.28.12-.1,0-.2-.04-.28-.12l-1.21-1.37Z"/><path class="cls-1" d="M28.32,39.09c.47-.46.47-1.22,0-1.69l-1.21-1.23c-.46-.47-1.22-.48-1.7-.02l-1.17,1.14c-.47.46-.49,1.23-.03,1.7l1.22,1.27c.46.47,1.22.48,1.68.02l1.21-1.2Z"/><path class="cls-5" d="M24.75,38.48c-.17-.18-.16-.48.02-.65l1.17-1.14c.17-.17.47-.17.64,0l1.22,1.23c.17.17.17.47,0,.64l-1.21,1.2c-.17.17-.45.17-.62,0l-1.22-1.27Z"/><path class="cls-1" d="M22.51,44.85c.47-.46.48-1.23.02-1.71l-1.22-1.31c-.44-.49-1.19-.5-1.66-.04l-1.17,1.15c-.47.46-.49,1.25-.06,1.74l1.22,1.34c.45.48,1.2.5,1.66.03l1.2-1.2Z"/><path class="cls-5" d="M18.98,44.18c-.17-.19-.15-.52.03-.71l1.16-1.15c.16-.16.41-.16.57,0l1.24,1.33c.18.19.17.49,0,.67l-1.2,1.2c-.16.16-.42.16-.58,0l-1.22-1.34Z"/><path class="cls-1" d="M47.27,25.73c-.46.47-.47,1.25-.03,1.74l.96,1.07c.43.5,1.15.51,1.6.03l1.14-1.22c.45-.48.47-1.29.04-1.79l-.89-1.01c-.44-.49-1.18-.5-1.64-.03l-1.19,1.22Z"/><path class="cls-5" d="M47.8,26.97c-.18-.2-.18-.53,0-.72l1.19-1.22c.1-.1.2-.12.27-.12.1,0,.19.04.27.11l.9,1.02c.17.2.16.59-.03.79l-1.14,1.22c-.07.07-.15.11-.24.11-.08,0-.16-.03-.23-.1l-.99-1.1Z"/><path class="cls-1" d="M9.49,63.19c-.49.43-.52,1.12-.06,1.53.46.41,2.1,1.05,2.64.67l1.46-1.06c.52-.4.54-1.05.02-1.46-.51-.41-2.3-1.27-2.78-.83l-1.28,1.14Z"/><path class="cls-5" d="M9.92,64.14s-.07-.09-.06-.15c0-.08.05-.17.13-.24l1.21-1.08c.38,0,1.49.47,1.9.79,0,0,.02.02.03.03.04.04.07.08.07.12,0,.03-.03.08-.1.14l-1.4,1.02c-.34.07-1.45-.33-1.75-.6h-.01Z"/><path class="cls-1" d="M32.92,40.31c-.46.47-.46,1.23,0,1.69l1.23,1.21c.47.46,1.23.45,1.69-.02l1.14-1.18c.46-.47.45-1.24,0-1.71l-1.18-1.2c-.46-.47-1.22-.47-1.68,0l-1.19,1.21Z"/><path class="cls-5" d="M33.45,41.47c-.17-.17-.18-.46,0-.63l1.19-1.21c.08-.08.19-.13.31-.13.12,0,.23.05.31.13l1.18,1.2c.18.18.18.49,0,.67l-1.14,1.18c-.08.08-.19.13-.31.13-.12,0-.23-.04-.32-.13l-1.23-1.21h0Z"/><path class="cls-1" d="M12.54,60.42c-.48.45-.47,1.17.02,1.6,0,0,.49.43,1,.84.51.41,1.35.4,1.87,0l1.35-1.09c.51-.42.5-1.1,0-1.51l-1.21-1.03c-.49-.44-1.29-.42-1.77.03l-1.25,1.16Z"/><path class="cls-5" d="M13.03,61.45c-.09-.09-.1-.18-.1-.24,0-.09.04-.17.12-.24l1.25-1.16c.2-.19.56-.19.77-.01l1.22,1.04s.02.02.04.03c.06.06.09.11.09.16,0,.05-.04.11-.11.17l-1.35,1.09c-.24.19-.7.19-.94,0-.49-.39-.96-.81-.97-.82l-.02-.02Z"/><path class="cls-1" d="M41.54,31.58c-.46.47-.47,1.24-.01,1.72l1.08,1.15c.44.48,1.18.49,1.63.01l1.14-1.2c.45-.48.47-1.27.03-1.76l-1.02-1.12c-.45-.48-1.2-.49-1.66-.02l-1.19,1.21Z"/><path class="cls-5" d="M42.07,32.78c-.18-.19-.18-.5,0-.69l1.19-1.21c.08-.08.18-.12.28-.12.11,0,.21.04.28.12l1.03,1.12c.17.2.17.55-.02.75l-1.14,1.2c-.09.1-.2.12-.27.12-.1,0-.19-.04-.27-.11l-1.1-1.17Z"/><path class="cls-1" d="M30.04,43.21c-.46.47-.46,1.22.02,1.68l1.27,1.22c.48.45,1.24.44,1.7-.03l1.14-1.17c.46-.47.45-1.23-.02-1.7l-1.23-1.21c-.47-.46-1.23-.46-1.69,0l-1.19,1.21Z"/><path class="cls-5" d="M30.57,44.35c-.17-.17-.17-.45,0-.62l1.19-1.2c.18-.18.46-.18.64,0l1.23,1.21c.18.18.18.47,0,.64l-1.14,1.17c-.17.18-.48.18-.66.01l-1.27-1.21h0Z"/><path class="cls-1" d="M38.67,34.49c-.46.47-.46,1.24,0,1.71l1.13,1.18c.45.48,1.2.48,1.65,0l1.14-1.19c.45-.47.46-1.26.02-1.75l-1.08-1.15c-.45-.48-1.2-.48-1.66-.01l-1.19,1.21Z"/><path class="cls-5" d="M39.2,35.68c-.18-.18-.18-.49,0-.67l1.19-1.21c.08-.08.18-.12.29-.12.11,0,.21.04.29.12l1.09,1.16c.17.19.17.53-.01.72l-1.14,1.19c-.08.08-.18.12-.28.13-.11,0-.21-.04-.28-.12l-1.14-1.19Z"/><path class="cls-1" d="M35.8,37.4c-.46.47-.46,1.23,0,1.7l1.18,1.2c.46.47,1.21.47,1.67,0l1.14-1.18c.46-.47.46-1.25,0-1.73l-1.13-1.18c-.46-.47-1.21-.47-1.67,0l-1.19,1.21Z"/><path class="cls-5" d="M36.33,38.58c-.18-.18-.18-.48,0-.65l1.19-1.21c.08-.08.19-.13.3-.13.11,0,.22.04.3.12l1.14,1.18c.17.18.17.51,0,.7l-1.14,1.18c-.08.08-.18.13-.3.13-.11,0-.22-.04-.3-.12l-1.19-1.2Z"/><path class="cls-1" d="M18.89,54.4c-.3.3-.4.4-.4.4-.47.46-.46,1.19.03,1.63l1.35,1.17c.51.42,1.29.43,1.72.03l.26-.26c.58-.57.99-.98.99-.98.47-.46.44-1.19-.06-1.62l-1.36-1.2c-.49-.44-1.26-.43-1.73.04,0,0-.28.28-.8.8Z"/><path class="cls-5" d="M19,55.85c-.09-.09-.11-.19-.11-.26s.02-.17.12-.26c0,0,1.21-1.21,1.21-1.21.18-.18.51-.19.7-.02,0,0,1.37,1.22,1.38,1.22.12.12.14.21.14.27s-.02.16-.11.25l-1.25,1.24c-.13.12-.49.12-.73-.08l-1.34-1.15h0Z"/><path class="cls-1" d="M15.53,57.62c-.48.45-.47,1.18.03,1.61l1.21,1.03c.51.41,1.34.4,1.85-.03l1.28-1.1c.49-.43.48-1.13-.03-1.55l-1.35-1.17c-.49-.44-1.28-.43-1.76.03l-1.23,1.17Z"/><path class="cls-5" d="M16.03,58.66c-.09-.09-.11-.18-.11-.25,0-.06.02-.16.12-.25l1.24-1.17c.2-.19.54-.19.75-.01,0,0,1.37,1.19,1.38,1.19.09.09.11.15.11.21,0,.07-.04.14-.11.2l-1.28,1.1c-.22.19-.66.2-.89,0l-1.2-1.01h0Z"/><path class="cls-1" d="M21.38,51.91c-.47.46-.45,1.21.04,1.65l1.36,1.2c.5.43,1.29.39,1.76-.07l1.16-1.16c.46-.47.44-1.2-.05-1.64l-1.34-1.21c-.48-.45-1.26-.43-1.72.03l-1.2,1.2Z"/><path class="cls-5" d="M21.91,52.99c-.16-.16-.16-.4,0-.56l1.2-1.2c.18-.18.5-.19.69-.01,0,0,1.34,1.22,1.35,1.22.18.18.18.41.02.56l-1.16,1.16c-.19.19-.54.21-.75.03l-1.35-1.19h0Z"/><path class="cls-1" d="M24.27,49.01c-.46.47-.45,1.21.03,1.66l1.34,1.21c.49.44,1.28.41,1.74-.06l1.15-1.17c.46-.47.44-1.21-.04-1.66l-1.31-1.22c-.48-.45-1.25-.44-1.71.02l-1.2,1.2Z"/><path class="cls-5" d="M24.8,50.12c-.16-.16-.16-.42,0-.58l1.2-1.2c.18-.18.48-.18.67,0l1.31,1.23c.18.18.18.43.02.59l-1.15,1.16c-.18.19-.52.2-.72.02l-1.33-1.21h0Z"/><path class="cls-1" d="M27.16,46.11c-.46.47-.45,1.22.02,1.67l1.31,1.22c.49.44,1.26.42,1.72-.05l1.15-1.17c.46-.47.45-1.23-.03-1.68l-1.27-1.22c-.47-.46-1.24-.45-1.7.02l-1.2,1.2Z"/><path class="cls-5" d="M27.69,47.24c-.16-.16-.16-.43,0-.6l1.2-1.2c.18-.18.48-.18.65,0l1.27,1.22c.18.18.18.45.01.62l-1.15,1.17c-.18.18-.49.19-.69.02l-1.3-1.21h0Z"/><path class="cls-1" d="M25.41,41.97c.47-.46.47-1.23.02-1.7l-1.22-1.27c-.45-.48-1.21-.49-1.68-.03l-1.17,1.15c-.47.46-.49,1.24-.05,1.72l1.22,1.31c.45.48,1.21.49,1.67.02l1.2-1.2Z"/><path class="cls-5" d="M21.86,41.33c-.17-.19-.16-.5.02-.68l1.17-1.15c.17-.16.44-.16.6,0l1.23,1.28c.18.18.17.48,0,.66l-1.2,1.2c-.17.16-.43.16-.6,0l-1.22-1.31Z"/><path class="cls-1" d="M32.92,36.21c-.47-.46-1.23-.47-1.7,0l-1.21,1.19c-.47.46-.47,1.22,0,1.69,0,0,.11.11.61.61.5.5.61.61.61.61.47.46,1.23.46,1.69,0l1.19-1.21c.46-.47.46-1.23,0-1.7,0,0-.1-.1-.59-.6-.49-.49-.6-.59-.6-.59Z"/><path class="cls-5" d="M30.54,38.57c-.09-.08-.13-.2-.13-.32,0-.12.05-.23.13-.32l1.21-1.19c.18-.17.47-.17.65,0l1.19,1.19c.17.17.17.47,0,.65l-1.19,1.21c-.08.08-.2.13-.32.13-.12,0-.23-.04-.32-.13l-.61-.61-.61-.61Z"/><path class="cls-1" d="M41.67,27.59c-.47-.46-1.24-.45-1.71,0l-1.21,1.19c-.47.46-.47,1.21,0,1.67,0,0,.08.08.56.56s.56.56.56.56c.46.47,1.21.47,1.67,0l1.19-1.21c.46-.47.46-1.24,0-1.71,0,0-.06-.06-.53-.53-.47-.47-.53-.53-.53-.53Z"/><path class="cls-5" d="M39.27,29.92c-.08-.08-.13-.19-.13-.31,0-.11.05-.22.13-.3l1.21-1.19c.18-.18.49-.18.67,0l1.05,1.05c.18.18.17.49,0,.67l-1.19,1.21c-.08.08-.19.13-.3.13-.11,0-.22-.04-.3-.13l-1.13-1.13Z"/><path class="cls-1" d="M30.01,39.09c-.46-.47-1.23-.47-1.69,0l-1.21,1.2c-.47.46-.47,1.23,0,1.69,0,0,.12.12.62.62.5.5.62.62.62.62.47.46,1.23.46,1.69,0l1.19-1.21c.46-.47.46-1.23,0-1.69,0,0-.11-.11-.61-.61-.5-.5-.61-.61-.61-.61Z"/><path class="cls-5" d="M27.63,41.45c-.17-.18-.17-.47,0-.64l1.2-1.19c.17-.17.47-.17.64,0l1.22,1.22c.17.17.17.47,0,.64l-1.19,1.2c-.17.17-.47.18-.64,0l-.62-.62-.62-.62Z"/><path class="cls-1" d="M35.83,33.33c-.47-.46-1.24-.46-1.7,0l-1.21,1.19c-.47.46-.47,1.22,0,1.69,0,0,.1.1.6.59.49.49.59.6.59.6.46.47,1.22.46,1.69,0l1.19-1.21c.46-.47.46-1.23,0-1.7,0,0-.09-.09-.58-.58-.49-.49-.58-.58-.58-.58Z"/><path class="cls-5" d="M33.45,35.68c-.09-.09-.13-.2-.13-.31,0-.12.05-.23.13-.31l1.21-1.19c.18-.17.48-.17.66,0l1.15,1.15c.17.18.17.48,0,.65l-1.19,1.21c-.08.08-.19.13-.31.13-.12,0-.23-.04-.31-.13l-1.19-1.19Z"/><path class="cls-1" d="M38.75,30.46c-.47-.46-1.24-.46-1.71,0l-1.21,1.19c-.47.46-.47,1.22,0,1.68,0,0,.09.09.58.58.49.49.58.58.58.58.46.47,1.22.47,1.68,0l1.19-1.21c.46-.47.46-1.24,0-1.71,0,0-.08-.08-.56-.56s-.56-.56-.56-.56Z"/><path class="cls-5" d="M36.36,32.8c-.09-.09-.13-.19-.13-.31,0-.12.05-.22.13-.31l1.21-1.19c.18-.18.48-.18.66,0,0,0,1.09,1.09,1.1,1.1.18.18.18.48,0,.66l-1.19,1.21c-.08.08-.19.13-.31.13-.12,0-.23-.04-.31-.13l-1.17-1.16Z"/><path class="cls-1" d="M27.1,41.98c-.46-.47-1.22-.47-1.69,0l-1.2,1.2c-.47.46-.47,1.23-.01,1.7,0,0,.12.13.63.63.51.51.63.63.63.63.47.46,1.24.45,1.7-.01l1.2-1.2c.46-.47.46-1.23,0-1.69,0,0-.12-.12-.62-.62-.5-.5-.62-.62-.62-.62Z"/><path class="cls-5" d="M24.73,44.34c-.18-.18-.17-.48,0-.65l1.2-1.2c.17-.17.46-.17.63,0,0,0,1.26,1.26,1.26,1.26.17.17.18.46,0,.63l-1.2,1.2c-.17.17-.47.18-.65,0,0,0-.14-.13-.63-.62-.49-.49-.62-.62-.62-.62Z"/><path class="cls-1" d="M24.2,44.86c-.46-.47-1.22-.48-1.68-.01l-1.2,1.2c-.47.46-.47,1.23-.02,1.7,0,0,.13.13.63.64.51.51.64.64.64.64.47.46,1.24.45,1.71-.02l1.2-1.2c.46-.47.46-1.22-.01-1.68,0,0-.13-.12-.63-.63-.51-.5-.63-.63-.63-.63Z"/><path class="cls-5" d="M21.83,47.24c-.17-.18-.17-.48,0-.66l1.2-1.2c.17-.17.45-.17.62,0,0,0,.13.13.64.64.51.51.64.64.64.64.17.17.17.45,0,.62l-1.2,1.2c-.18.18-.48.18-.66,0,0,0-.14-.13-.63-.63s-.62-.63-.63-.63Z"/><path class="cls-1" d="M12.7,56.54c-.45-.48-1.19-.48-1.64,0l-1.16,1.25c-.45.48-.44,1.27,0,1.75t.44.44c.44.44.44.44.44.44.48.45,1.27.45,1.75,0l1.25-1.16c.48-.45.48-1.19,0-1.64,0,0-.07-.07-.55-.54-.48-.47-.54-.55-.54-.55Z"/><path class="cls-5" d="M10.43,59.01c-.17-.18-.17-.52.02-.72l1.16-1.25c.09-.1.2-.12.27-.12.1,0,.19.04.27.11.01.01.08.09.57.58.49.49.56.56.56.56,0,0,0,0,0,0,.09.08.13.18.12.28,0,.07-.02.17-.12.27l-1.25,1.16c-.19.18-.53.18-.73,0l-.87-.87Z"/><path class="cls-1" d="M15.52,53.56c-.45-.48-1.19-.48-1.65,0l-1.17,1.23c-.45.48-.45,1.26,0,1.74,0,0,.07.07.54.55.48.48.55.54.55.54.48.45,1.26.45,1.74,0l1.23-1.17c.48-.45.47-1.2,0-1.65,0,0-.12-.12-.62-.62-.5-.5-.62-.62-.62-.62Z"/><path class="cls-5" d="M13.24,56.02c-.18-.19-.18-.52,0-.71l1.17-1.23c.07-.08.17-.12.28-.12.1,0,.2.04.28.12,0,.01.13.13.64.65s.64.63.64.63h0c.09.09.13.19.13.29s-.05.2-.12.28l-1.23,1.17c-.19.18-.53.18-.72,0,0,0-.1-.1-.53-.53-.43-.43-.52-.52-.53-.53Z"/><path class="cls-1" d="M21.29,47.75c-.46-.47-1.21-.48-1.68-.01l-1.2,1.2c-.46.46-.47,1.23-.02,1.71,0,0,.13.13.64.64.51.51.64.64.64.64.48.46,1.25.45,1.71-.02l1.2-1.2c.46-.47.46-1.22-.02-1.68,0,0-.13-.13-.64-.64-.51-.51-.63-.64-.63-.64Z"/><path class="cls-5" d="M19.56,50.76c-.49-.49-.62-.62-.63-.63-.17-.18-.17-.49,0-.67l1.2-1.2c.17-.17.44-.17.61,0,0,0,.14.14.65.65.51.51.65.64.65.64.17.17.17.45,0,.62l-1.2,1.2c-.18.18-.49.18-.67,0,0,0-.14-.14-.63-.62Z"/><path class="cls-1" d="M18.4,50.65c-.45-.48-1.21-.48-1.67-.02,0,0-.28.28-.8.8-.3.3-.4.4-.4.4-.46.47-.46,1.25,0,1.73,0,0,.12.12.62.62.5.5.62.62.62.62.48.45,1.26.45,1.73,0,0,0,.1-.1.4-.4.52-.52.8-.8.8-.8.47-.47.46-1.22-.02-1.67,0,0-.13-.13-.64-.64-.51-.51-.64-.64-.64-.64Z"/><path class="cls-5" d="M16.66,53.66c-.47-.47-.6-.6-.6-.61-.18-.18-.17-.51,0-.7l1.19-1.2c.08-.08.19-.12.3-.12.11,0,.22.04.3.12,0,0,.14.15.66.66.52.52.65.65.65.65h0c.09.09.13.2.13.31,0,.11-.04.22-.12.3,0,0-1.19,1.19-1.2,1.19-.18.18-.51.18-.7,0,0,0-.14-.13-.61-.6Z"/><path class="cls-1" d="M39.96,27.59c.47-.46.46-1.21-.02-1.66l-1.12-1.02c-.49-.44-1.28-.42-1.76.03l-1.2,1.14c-.48.45-.47,1.19.02,1.63l1.15,1.08c.48.45,1.25.45,1.72-.01l1.21-1.19Z"/><path class="cls-5" d="M36.37,27.15c-.07-.07-.11-.17-.11-.27,0-.07.02-.17.12-.27l1.2-1.14c.2-.19.55-.19.75-.01l1.11,1.02c.08.08.12.18.12.29,0,.11-.04.21-.12.29l-1.21,1.19c-.18.18-.5.18-.68,0l-1.18-1.1Z"/><path class="cls-1" d="M45.8,21.87c.47-.46.46-1.2-.03-1.64l-1.01-.89c-.5-.42-1.31-.4-1.79.04l-1.22,1.14c-.48.45-.47,1.17.03,1.6l1.07.96c.48.45,1.27.43,1.74-.03l1.22-1.19Z"/><path class="cls-5" d="M42.25,21.53c-.07-.07-.1-.15-.1-.23,0-.08.04-.17.11-.24l1.22-1.14c.2-.19.59-.2.8-.02l1,.88c.08.08.12.18.12.27,0,.07-.02.17-.12.27l-1.22,1.19c-.19.18-.52.19-.71.01l-1.11-1Z"/><path class="cls-1" d="M48.74,19.01c.47-.46.46-1.19-.03-1.63,0,0-.46-.41-.95-.82-.49-.41-1.3-.38-1.79.06l-1.24,1.13c-.48.44-.47,1.16.03,1.58l1.01.89c.49.44,1.27.43,1.74-.03l1.22-1.18Z"/><path class="cls-5" d="M45.22,18.75c-.06-.06-.1-.14-.09-.21,0-.08.04-.16.11-.22l1.24-1.13c.21-.19.6-.21.81-.04.48.4.92.8.92.8,0,0,0,0,0,0,.11.11.13.21.13.28,0,.07-.02.17-.12.26l-1.22,1.18c-.19.18-.53.19-.72.01l-1.06-.93Z"/><path class="cls-1" d="M51.77,16.12c.44-.41.41-1.1-.08-1.53-.48-.43-2.12-1.1-2.6-.7s-2.49,1.46-1.34,2.68c2,2.11,3.57-.04,4.01-.45Z"/><path class="cls-5" d="M48.3,16.05c-.07-.08-.16-.19-.15-.27.03-.34.76-.85,1.07-1.07.11-.08.21-.15.29-.21.34-.04,1.36.34,1.69.64,0,0,0,0,0,0,.09.09.14.18.13.27,0,.06-.02.11-.07.16-.06.05-.12.12-.21.21-.31.33-.89.94-1.52.95-.36,0-.76-.2-1.16-.61l-.07-.08Z"/><path class="cls-1" d="M44.6,24.72c-.48-.46-1.25-.45-1.72,0l-1.21,1.19c-.47.46-.47,1.21,0,1.67,0,0,.06.06.53.53.47.47.53.53.53.53.46.47,1.21.48,1.67,0l1.19-1.21c.46-.47.46-1.24,0-1.72,0,0-.04-.04-.5-.5-.46-.46-.5-.5-.5-.5Z"/><path class="cls-5" d="M42.19,27.05c-.09-.09-.13-.19-.13-.3,0-.11.05-.22.13-.3l1.21-1.19c.18-.18.49-.18.68,0l.99.99c.17.18.17.49,0,.67l-1.19,1.21c-.08.08-.19.13-.3.13-.11,0-.22-.04-.3-.12l-1.09-1.09Z"/><path class="cls-1" d="M37.04,30.46c.47-.46.46-1.21-.01-1.67l-1.15-1.08c-.48-.44-1.27-.44-1.75.02l-1.19,1.14c-.47.46-.47,1.2,0,1.65l1.18,1.13c.47.46,1.24.45,1.71,0l1.21-1.19Z"/><path class="cls-5" d="M33.45,29.98c-.08-.08-.12-.18-.12-.28,0-.11.05-.21.13-.28l1.19-1.14c.19-.18.53-.19.72,0l1.15,1.08c.08.08.13.19.13.3,0,.11-.04.21-.13.29l-1.21,1.19c-.18.18-.49.18-.67,0l-1.19-1.15Z"/><path class="cls-1" d="M42.88,24.73c.47-.46.46-1.2-.03-1.65l-1.07-.96c-.5-.43-1.3-.41-1.78.04l-1.21,1.14c-.48.45-.47,1.18.02,1.62l1.12,1.02c.48.45,1.26.44,1.73-.02l1.21-1.19Z"/><path class="cls-5" d="M39.3,24.34c-.09-.09-.11-.18-.11-.25,0-.06.02-.16.12-.25l1.21-1.14c.2-.19.57-.19.78-.02l1.06.95c.08.08.12.18.12.28,0,.07-.02.18-.12.28l-1.21,1.19c-.18.18-.51.18-.7,0l-1.15-1.05Z"/><path class="cls-1" d="M50.46,19c-.47-.45-1.25-.44-1.72.02l-1.22,1.18c-.47.46-.47,1.2,0,1.66,0,0,.02.02.47.47.45.45.47.47.47.47.45.48,1.2.48,1.66,0l1.18-1.22c.46-.47.47-1.25.02-1.72l-.43-.43-.43-.43Z"/><path class="cls-5" d="M48.04,21.32c-.09-.09-.13-.19-.13-.3,0-.11.04-.21.12-.29l1.22-1.18c.18-.18.51-.18.69-.01l.85.85c.16.17.15.49-.03.67l-1.18,1.22c-.08.08-.18.12-.29.12-.11,0-.21-.04-.29-.12l-.97-.97Z"/><path class="cls-1" d="M47.53,21.86c-.48-.45-1.25-.45-1.72.01l-1.22,1.19c-.47.46-.47,1.21,0,1.67,0,0,.04.04.5.5.46.46.5.5.5.5.46.47,1.2.48,1.66,0l1.19-1.22c.46-.47.46-1.25.01-1.72,0,0-.02-.02-.47-.47-.45-.45-.47-.47-.47-.47Z"/><path class="cls-5" d="M45.12,24.18c-.09-.09-.13-.19-.13-.3,0-.11.05-.21.13-.29l1.22-1.19c.18-.18.5-.18.69,0l.92.92c.17.18.17.5,0,.68l-1.19,1.22c-.08.08-.18.12-.29.13-.11,0-.21-.04-.29-.12l-1.03-1.03Z"/><path class="cls-1" d="M52.78,15.19c.89-.79,2-1.74,2-1.74.5-.43.58-1.07.18-1.43-.4-.36-1.89-.92-2.44-.57,0,0-1.15.73-2.09,1.38l-.12.08c-.18.13.06.56.54.94.47.38,1.81,1.46,1.89,1.38l.06-.05Z"/><path class="cls-5" d="M51.21,13.19c.84-.56,1.7-1.11,1.7-1.11.25-.08,1.29.26,1.54.49.01.03,0,.17-.17.31,0,0-.84.73-1.65,1.43-.29-.21-.74-.56-1.33-1.04-.03-.03-.06-.05-.09-.08Z"/><path class="cls-1" d="M52.72,15.24c-.08.07.22.47.66.89l.41.41.41.41c.42.45.82.74.89.66l.05-.06c.79-.89,1.74-2,1.74-2,.43-.5.5-1.21.15-1.58l-.34-.34-.33-.33c-.37-.35-1.08-.28-1.58.15,0,0-1.11.95-2,1.74l-.06.05Z"/><path class="cls-5" d="M53.91,15.6s-.2-.19-.22-.22c.8-.7,1.57-1.36,1.57-1.36.24-.21.52-.21.58-.17l.65.65s.02.32-.19.56c0,0-.68.79-1.36,1.57-.03-.02-.05-.05-.08-.08l-.95-.95Z"/><path class="cls-1" d="M53.39,16.13c-.44-.42-1.17-.42-1.61,0-.44.41-1.78,2.43-1.31,2.88l.43.43.43.43c.45.47,1.18.47,1.64,0,0,0,.83-.87,1.24-1.31.41-.44.41-1.17,0-1.61l-.41-.41-.41-.41Z"/><path class="cls-5" d="M51.12,18.6c.11-.48.84-1.64,1.16-1.94.16-.15.43-.14.59,0l.79.79c.13.14.14.42,0,.58-.41.44-1.23,1.3-1.23,1.3-.08.08-.18.13-.28.13-.07,0-.17-.02-.27-.11l-.76-.76Z"/><path class="cls-1" d="M44.41,28.66c-.46.47-.47,1.25-.02,1.73l1.02,1.12c.44.49,1.16.5,1.62.02l1.14-1.21c.45-.48.47-1.28.04-1.78l-.96-1.07c-.45-.48-1.19-.5-1.65-.03l-1.19,1.21Z"/><path class="cls-5" d="M44.94,29.88c-.18-.19-.18-.52,0-.7l1.19-1.21c.1-.1.2-.12.28-.12.1,0,.2.04.28.12l.97,1.08c.17.2.16.57-.03.77l-1.14,1.21c-.09.1-.19.12-.25.12-.06,0-.16-.02-.25-.11l-1.05-1.14Z"/><path class="cls-1" d="M15.42,62.86c-.52.41-.49,1.05.05,1.42l1.32.83c.58.32,1.49.26,2.03-.11l1.51-1.08c.53-.39.49-.96-.1-1.26l-1.55-.97c-.54-.37-1.4-.34-1.91.08l-1.35,1.09Z"/><path class="cls-5" d="M15.84,63.63s-.04-.06-.04-.06c0-.01.02-.06.09-.11l1.36-1.09c.26-.21.75-.23,1.02-.05l1.58.99s.04.02.05.03l-1.5,1.07c-.3.21-.91.25-1.24.06l-1.28-.81-.03-.03Z"/><path class="cls-1" d="M10.07,66.66c-2.33,1.09-4.28.59-5.64-.77,2.26,2.26,5.02,3.58,7.77,2.9.48-.12.79-.27.79-.27.59-.29.64-.78.12-1.09-.53-.31-2.36-1.16-2.77-.91l-.27.13Z"/><path class="cls-5" d="M8.75,67.88c.54-.11,1.08-.29,1.63-.54l.22-.1c.33.03,1.24.39,1.86.7-.11.04-.26.09-.44.14-1.16.29-2.27.16-3.27-.19Z"/><path class="cls-1" d="M12.07,65.39c-.54.38-.54.99,0,1.37,0,0,.52.37,1.04.68.53.31,1.42.29,1.99-.04l1.73-1.06c.55-.36.53-.91-.05-1.22l-1.32-.83c-.54-.37-1.41-.35-1.94.04l-1.46,1.06Z"/><path class="cls-5" d="M12.42,66.07s.03-.03.08-.07l1.47-1.07c.28-.21.8-.22,1.08-.03l1.34.84-1.67,1.02c-.32.18-.93.2-1.23.03-.49-.29-.98-.64-.98-.64l-.06-.05s-.02-.03-.03-.03Z"/><path class="cls-1" d="M18.61,60.24c-.5.42-.47,1.08.07,1.45l1.55.97c.58.3,1.49.22,2-.18l1.32-1.06c.5-.42.44-1.02-.15-1.32l-1.64-1.06c-.54-.38-1.38-.34-1.88.1l-1.28,1.1Z"/><path class="cls-5" d="M19.05,61.03s-.05-.05-.05-.09c0-.03.03-.08.09-.13l1.29-1.11c.24-.21.7-.24.96-.05l1.67,1.08c.07.04.11.06.13.08-.01,0-.03.03-.06.05l-1.31,1.05c-.28.22-.87.27-1.19.1l-1.5-.94-.03-.03Z"/><path class="cls-1" d="M24.54,54.69c-.47.46-.42,1.17.11,1.56,0,0,.99.75,1.55,1.08.57.33,1.41.22,1.88-.25l1.02-1.03c.46-.47.4-1.14-.14-1.5-.54-.36-2.8-1.49-3.26-1.03l-1.16,1.16Z"/><path class="cls-5" d="M25.05,55.62c-.12-.12-.11-.27.01-.4l1.05-1.05c.49.03,1.87.65,2.43,1.01,0,0,0,0,.01.01.15.15.08.26,0,.34l-1.02,1.03c-.22.22-.7.29-.97.13-.43-.25-1.21-.83-1.47-1.03l-.05-.04Z"/><path class="cls-1" d="M21.85,57.36l-.26.26c-.44.4-.36,1.04.18,1.42l1.64,1.06c.58.3,1.17.45,1.31.33l.1-.1c.75-.74,1.57-1.55,1.57-1.55.47-.46.38-1.11-.18-1.44-.57-.33-2.89-1.42-3.36-.96,0,0-.41.41-.99.98Z"/><path class="cls-5" d="M22.14,58.38c-.06-.06-.08-.11-.08-.14,0-.02.01-.04.04-.07l1.17-1.16c.49,0,1.89.58,2.56.97.03.02.06.04.08.06.03.03.04.05.04.07,0,.03-.02.08-.08.14,0,0-.74.74-1.46,1.44-.15-.04-.38-.12-.65-.26,0,0-1.58-1.02-1.58-1.02,0,0-.02-.02-.04-.04Z"/><path class="cls-1" d="M5.8,62.39l.14-.18c.23-.27.08-.87-.33-1.33-.41-.46-1.56-1.32-1.82-.9l-.13.27c-1.09,2.33-.59,4.28.77,5.64-.45-.45-.14-1.58,1.37-3.5Z"/><path class="cls-5" d="M3.97,63.78c-.28-.91-.19-1.93.29-3.03.21.13.49.33.71.55l.07.08c.16.18.23.36.24.45l-.08.1c-.29.37-.84,1.07-1.24,1.85Z"/><path class="cls-1" d="M5.99,56.79c.4-.52.42-1.4.04-1.94l-.83-1.32c-.31-.58-.87-.6-1.22-.05l-1.06,1.73c-.33.57-.35,1.47-.04,1.99.31.53,1.68,1.58,2.05,1.04l1.06-1.46Z"/><path class="cls-5" d="M3.71,57.05c-.13-.13-.18-.21-.18-.22-.17-.29-.15-.91.04-1.24l1.01-1.65.83,1.31c.21.3.2.82,0,1.09l-.92,1.27c-.19-.09-.5-.29-.77-.56h0Z"/><path class="cls-1" d="M3.66,60.26l.13-.27c.25-.41.15-1.19-.23-1.73,0,0-.37-.52-.68-1.04-.31-.53-.8-.47-1.09.12,0,0-.15.31-.27.79-.68,2.75.64,5.51,2.9,7.77-1.36-1.36-1.86-3.3-.77-5.64Z"/><path class="cls-5" d="M2.44,61.57c-.35-1-.48-2.11-.19-3.27.05-.19.1-.34.14-.46.29.46.55.83.57.85.24.34.26.8.2.9l-.04.07-.13.27c-.26.55-.44,1.09-.54,1.63Z"/><path class="cls-1" d="M10.07,66.66l.27-.13c.41-.25.38-.76-.07-1.12-.45-.36-1.89-1.25-2.16-1.03l-.18.14c-1.92,1.51-3.05,1.82-3.5,1.37,1.36,1.36,3.3,1.86,5.64.77Z"/><path class="cls-5" d="M6.55,66.35c.75-.39,1.44-.92,1.81-1.21.35.14,1.04.54,1.42.83h-.02c-1.16.55-2.24.68-3.2.38Z"/><path class="cls-1" d="M7.93,64.53l.18-.14c.27-.23.14-.73-.28-1.13l-.38-.38-.38-.38c-.39-.42-.9-.55-1.13-.28l-.14.18c-1.51,1.92-1.82,3.05-1.37,3.5.45.45,1.58.14,3.5-1.37Z"/><path class="cls-5" d="M4.99,65.34c.02-.22.17-.92,1.38-2.46.04.02.08.06.13.11,0,0,.81.81.81.81.07.07.11.12.14.17-1.54,1.2-2.24,1.36-2.46,1.38Z"/><path class="cls-1" d="M27.38,51.83c-.46.47-.42,1.19.09,1.6,0,0,.95.77,1.49,1.12.54.36,1.36.26,1.82-.21l1.02-1.04c.46-.47.41-1.17-.1-1.56-.51-.38-2.7-1.56-3.16-1.09l-1.15,1.17Z"/><path class="cls-5" d="M27.9,52.82c-.14-.13-.13-.32,0-.46l1.04-1.05c.49.04,1.83.69,2.3,1.05,0,0,0,0,0,0,.14.14.13.3,0,.43l-1.01,1.04c-.21.21-.63.26-.88.11-.5-.33-1.42-1.08-1.43-1.08l-.04-.03Z"/><path class="cls-1" d="M38.65,40.29c-.46.47-.46,1.25,0,1.72,0,0,.76.78,1.2,1.24.44.46,1.17.45,1.62-.03l1.03-1.09c.45-.48.48-1.27.06-1.75-.42-.48-2.31-1.75-2.76-1.27l-1.14,1.18Z"/><path class="cls-5" d="M40.39,42.74c-.44-.46-1.2-1.25-1.2-1.25-.18-.18-.18-.5,0-.68l1.01-1.05c.41.1,1.35.66,1.76,1.07.2.23.18.59,0,.79l-1.03,1.09c-.08.08-.18.13-.29.13-.06,0-.16-.01-.24-.1h0Z"/><path class="cls-1" d="M47.03,31.53c-.45.48-.48,1.28-.06,1.79,0,0,.61.73.99,1.25.38.52,1.05.54,1.49.06l1.05-1.16c.44-.49.51-1.32.15-1.85-.36-.53-2.03-1.78-2.48-1.3l-1.14,1.21Z"/><path class="cls-5" d="M48.56,34.13c-.39-.53-.99-1.26-1.02-1.29-.18-.21-.16-.6.03-.8l1-1.06c.29.1.9.47,1.33.9.06.06.11.11.14.16.17.25.12.7-.09.93l-1.05,1.16c-.06.07-.13.1-.18.1-.02,0-.06,0-.12-.06-.01-.01-.02-.03-.04-.04Z"/><path class="cls-1" d="M49.8,28.57c-.45.48-.48,1.3-.08,1.81,0,0,.56.71.92,1.23.36.53,1.01.56,1.45.07l1.06-1.19c.44-.49.51-1.33.17-1.87-.34-.53-1.94-1.76-2.39-1.28l-1.14,1.22Z"/><path class="cls-5" d="M51.27,31.2c-.37-.54-.93-1.25-.96-1.28-.18-.22-.16-.63.04-.84l.99-1.07c.27.09.79.42,1.19.82.12.12.16.19.17.19.16.25.12.73-.1.97l-1.06,1.19c-.06.07-.12.1-.16.1,0,0-.04,0-.08-.04,0,0-.03-.03-.04-.05Z"/><path class="cls-1" d="M52.56,25.59c-.44.49-.48,1.31-.09,1.84,0,0,.51.67.86,1.2.34.54.98.57,1.41.07l1.07-1.24c.43-.5.51-1.35.18-1.88-.33-.54-1.85-1.72-2.3-1.23l-1.13,1.24Z"/><path class="cls-5" d="M54,28.28s-.03-.03-.04-.05c-.36-.56-.87-1.22-.89-1.25-.18-.23-.16-.66.04-.88l.99-1.09c.24.09.69.37,1.07.75.14.14.18.21.19.21.16.26.11.75-.11,1.01l-1.06,1.23c-.06.07-.12.09-.14.09l-.04-.03Z"/><path class="cls-1" d="M57.87,21.32c-.38-.53-1.03-.58-1.43-.09-.4.48-1.62,2.67-1.24,3.2,0,0,.46.62.79,1.15.33.53.94.56,1.36.05l1.08-1.34c.4-.52.47-1.38.15-1.9-.32-.52-.71-1.06-.71-1.06Z"/><path class="cls-5" d="M56.67,25.24s-.02-.02-.04-.05c-.27-.43-.61-.91-.75-1.11.03-.49.77-1.93,1.14-2.38.04-.05.07-.07.09-.07.02,0,.06.01.11.06.02.02.03.04.05.06,0,0,.38.52.68,1.01.14.23.13.76-.11,1.06l-1.07,1.33c-.05.06-.1.09-.11.09h.01Z"/><path class="cls-1" d="M33.03,46.08c-.46.47-.44,1.22.05,1.66,0,0,.85.78,1.34,1.2.49.41,1.26.36,1.72-.11l1.02-1.06c.45-.48.45-1.22-.01-1.66-.46-.44-2.5-1.67-2.96-1.2l-1.14,1.17Z"/><path class="cls-5" d="M33.57,47.18c-.16-.16-.16-.41,0-.58l1.02-1.05c.48.08,1.69.77,2.04,1.09h0c.16.16.15.43-.01.6l-1.02,1.06c-.18.19-.51.22-.7.06-.48-.41-1.32-1.17-1.32-1.18l-.02-.02Z"/><path class="cls-1" d="M35.84,43.19c-.46.47-.45,1.23.02,1.69,0,0,.81.78,1.27,1.22.46.44,1.21.41,1.67-.07l1.02-1.07c.45-.48.46-1.25.03-1.71-.44-.46-2.41-1.71-2.86-1.24l-1.14,1.18Z"/><path class="cls-5" d="M36.38,44.34c-.17-.17-.17-.46,0-.63l1.02-1.05c.45.09,1.54.73,1.91,1.09.17.18.16.5-.02.69l-1.02,1.07c-.17.18-.45.2-.61.04-.46-.44-1.26-1.21-1.26-1.21h0Z"/><path class="cls-1" d="M44.24,34.46c-.45.48-.47,1.27-.04,1.77,0,0,.66.75,1.06,1.26.4.5,1.09.52,1.53.03l1.04-1.13c.44-.49.5-1.3.12-1.82-.38-.52-2.12-1.78-2.57-1.3l-1.14,1.2Z"/><path class="cls-5" d="M45.84,37.02c-.41-.51-1.08-1.29-1.08-1.29-.18-.21-.17-.56.02-.76l1-1.05c.33.1,1.04.54,1.47.96.04.04.08.08.1.12.17.23.13.66-.07.88l-1.04,1.13c-.07.07-.14.11-.21.11-.06,0-.11-.02-.16-.07l-.03-.03Z"/><path class="cls-1" d="M30.21,48.96c-.46.47-.43,1.2.07,1.63,0,0,.9.78,1.42,1.16.51.39,1.31.31,1.77-.16l1.01-1.05c.46-.47.43-1.2-.06-1.61-.49-.41-2.6-1.62-3.06-1.15l-1.15,1.17Z"/><path class="cls-5" d="M30.74,50c-.15-.15-.15-.37,0-.52l1.03-1.05c.49.06,1.76.73,2.16,1.07,0,0,0,0,0,0,.16.16.15.37,0,.52l-1.01,1.05c-.2.2-.57.24-.78.08-.49-.36-1.37-1.12-1.38-1.13l-.03-.03Z"/><path class="cls-1" d="M41.45,37.38c-.46.47-.46,1.26-.02,1.75,0,0,.71.77,1.13,1.25.42.48,1.12.49,1.57,0l1.04-1.11c.45-.48.49-1.29.09-1.79-.4-.5-2.21-1.77-2.67-1.29l-1.14,1.19Z"/><path class="cls-5" d="M43.12,39.89c-.42-.49-1.14-1.27-1.14-1.27-.18-.19-.17-.53,0-.72l1-1.05c.36.1,1.18.59,1.61,1.02.03.03.05.05.07.07.17.22.15.61-.05.82l-1.03,1.11c-.07.08-.16.12-.25.12-.07,0-.14-.03-.2-.08l-.02-.02Z"/><path class="cls-1" d="M8.55,53.55c.42-.51.45-1.37.08-1.91l-.97-1.55c-.3-.58-.87-.63-1.26-.1l-1.08,1.51c-.38.54-.43,1.45-.11,2.03l.83,1.32c.37.54,1.01.56,1.42.05l1.09-1.35Z"/><path class="cls-5" d="M6.65,54.43l-.82-1.29c-.16-.29-.12-.9.09-1.21l1.07-1.5,1,1.6c.2.3.18.79-.02,1.04l-1.09,1.36c-.06.08-.11.09-.12.09,0,0-.03,0-.06-.04,0,0-.03-.04-.05-.06Z"/><path class="cls-1" d="M50.42,12.83c.94-.64,2.09-1.38,2.09-1.38.55-.35.62-.93.14-1.29-.48-.36-2.15-.9-2.74-.62,0,0-.96.46-1.86.92l-.26.14c-.44.31-.38.82.15,1.14.52.32,2.18,1.3,2.35,1.17l.12-.08Z"/><path class="cls-5" d="M48.41,11.13c.88-.46,1.83-.91,1.83-.91.32-.1,1.6.27,1.96.53-.02.02-.05.04-.09.07,0,0-1.05.67-1.97,1.29-.31-.14-.91-.46-1.76-.97h.02Z"/><path class="cls-1" d="M54.58,10.26c-.58.3-.74.82-.35,1.14.39.33,1.86.93,2.38.52,0,0,3.98-3.2,4.48-2.7-1.54-1.54-6.52,1.03-6.52,1.03Z"/><path class="cls-5" d="M54.93,10.92c.99-.51,2.35-1.05,3.51-1.3-.62.42-1.38.99-2.29,1.72-.17.04-.87-.19-1.26-.4.01,0,.02-.01.04-.02Z"/><path class="cls-1" d="M56.61,11.92c-.51.41-.63,1.03-.26,1.38l.33.33.34.34c.35.37.97.25,1.38-.26,0,0,3.2-3.98,2.69-4.48-.5-.5-4.48,2.7-4.48,2.7Z"/><path class="cls-5" d="M56.88,12.77s.03-.13.2-.27c.89-.71,1.93-1.47,2.72-1.98-.51.8-1.27,1.83-1.98,2.72-.12.15-.23.19-.28.2l-.66-.66Z"/><path class="cls-1" d="M61.1,9.22c-2.71-2.71-8.97-.58-8.97-.58-.62.21-.76.63-.31.92.45.3,2.18.99,2.76.68,0,0,4.97-2.58,6.52-1.03Z"/><path class="cls-5" d="M52.79,9.22c.9-.26,2.31-.57,3.73-.61-1.06.37-1.94.81-2.28.99-.22.05-.91-.15-1.45-.37Z"/><path class="cls-1" d="M50.12,22.8c-.46.47-.47,1.26-.03,1.74l.89,1.01c.42.5,1.13.52,1.58.03l1.13-1.24c.44-.49.47-1.29.06-1.79-.41-.49-1.99-1.45-2.45-.98l-1.18,1.22Z"/><path class="cls-5" d="M50.66,24.05c-.19-.2-.18-.54,0-.73l1.08-1.12c.31.05,1.04.43,1.4.79.21.25.19.64,0,.86l-1.13,1.24c-.06.07-.14.11-.22.11-.08,0-.15-.03-.21-.09l-.92-1.05Z"/><path class="cls-1" d="M49.1,13.88c.48-.4.44-1.04-.09-1.43,0,0-.54-.39-1.06-.71-.52-.32-1.38-.25-1.9.15l-1.34,1.08c-.51.42-.44.96.05,1.36,2.15,1.76,3.87-.05,4.35-.45Z"/><path class="cls-5" d="M45.17,13.71s-.06-.08-.07-.09c0,0,.03-.03.08-.06l1.34-1.07c.29-.22.81-.24,1.05-.09.49.3,1,.67,1.01.68.03.02.04.04.06.05.05.05.06.09.06.11,0,.02-.02.05-.07.09l-.15.13c-.91.8-1.94,1.4-3.25.32l-.05-.05Z"/><path class="cls-1" d="M58.87,17.81c.35-.55.38-1.33.05-1.73-.33-.39-1.62-1.04-2.05-.54,0,0-.95,1.11-1.74,2l-.05.06c-.07.08.22.54.65,1.03.43.48,1.54,1.58,1.67,1.4l.08-.12c.64-.94,1.38-2.09,1.38-2.09Z"/><path class="cls-5" d="M56.72,18.58c-.17-.17-.32-.33-.42-.45-.14-.16-.25-.29-.33-.4.59-.68,1.21-1.39,1.41-1.62.23,0,.77.25.97.44.08.1.12.51-.1.86,0,0-.51.8-1.05,1.62-.13-.12-.29-.26-.47-.45Z"/><path class="cls-1" d="M52.97,19.86c-.45.47-.47,1.26-.03,1.75,0,0,.41.46.82.95.41.49,1.1.5,1.53,0,0,0,.75-.85,1.15-1.34.4-.48.41-1.26.03-1.74-.38-.47-1.85-1.38-2.27-.94-.41.44-1.24,1.31-1.24,1.31Z"/><path class="cls-5" d="M54.33,22.09c-.42-.51-.84-.98-.84-.98-.18-.2-.17-.54.01-.74,0,0,.69-.72,1.12-1.18.29.07.91.41,1.22.72.2.24.19.63.01.84-.4.48-1.14,1.32-1.14,1.32-.06.07-.14.12-.21.12-.06,0-.11-.02-.16-.07l-.02-.03Z"/><path class="cls-1" d="M45.98,16.63c.49-.44.45-1.12-.08-1.51,0,0-.62-.46-1.15-.79-.53-.33-1.38-.25-1.88.18l-1.24,1.07c-.5.43-.46,1.07.07,1.41.53.34,2.55,1.21,3.03.77l1.24-1.13Z"/><path class="cls-5" d="M42.05,16.32s-.03-.03-.03-.04c0-.02.02-.07.1-.14l1.23-1.07c.25-.22.74-.27,1.01-.11.5.31,1.09.75,1.1.75.02.01.03.03.04.04.06.06.08.1.08.15,0,.05-.04.12-.1.17l-1.17,1.07c-.41.02-1.69-.44-2.2-.78l-.05-.04Z"/><path class="cls-1" d="M58.4,13.71c-.41.51-.46,1.26-.1,1.66s1.46.96,1.76.37c0,0,2.58-4.97,1.03-6.52.5.5-2.69,4.48-2.69,4.48Z"/><path class="cls-5" d="M58.86,14.87c-.08-.09-.09-.43.12-.69.74-.92,1.3-1.67,1.72-2.29-.24,1.1-.73,2.37-1.22,3.35-.18-.05-.46-.2-.61-.35h-.01Z"/><path class="cls-1" d="M57.49,19.9l-.08.12c-.13.18.07.76.45,1.29,0,0,.39.54.71,1.06.32.52.83.59,1.14.15l.14-.26c.47-.89.92-1.86.92-1.86.28-.59.27-1.45-.03-1.9-.3-.45-1.52-1.25-1.88-.69,0,0-.73,1.15-1.38,2.09Z"/><path class="cls-5" d="M59.18,21.94c-.32-.53-.7-1.04-.71-1.06-.18-.25-.28-.47-.33-.6.48-.71,1.01-1.52,1.24-1.88.18.07.47.23.67.44.05.05.07.08.07.08.12.19.17.77-.02,1.17,0,0-.45.95-.91,1.83v.02Z"/><path class="cls-1" d="M60.07,15.74c-.3.58-.26,1.45.1,1.93.35.48,1.3,1.15,1.51.53,0,0,2.13-6.26-.58-8.97,1.54,1.54-1.03,6.52-1.03,6.52Z"/><path class="cls-5" d="M60.88,17.36s-.09-.09-.12-.14c-.17-.22-.22-.78-.03-1.14.18-.35.62-1.23.99-2.29-.05,1.43-.35,2.85-.62,3.75-.07-.05-.14-.11-.22-.19Z"/><path class="cls-1" d="M28.31,33.34c.47-.46.47-1.21,0-1.67,0,0-.78-.76-1.24-1.2-.46-.44-1.23-.43-1.71.03l-1.07,1.02c-.48.45-.51,1.2-.07,1.67.44.46,2.44,1.75,2.91,1.29l1.18-1.14Z"/><path class="cls-5" d="M24.76,32.67c-.15-.16-.13-.44.04-.61l1.07-1.02c.19-.18.51-.19.68-.03.46.44,1.24,1.19,1.24,1.19h0c.09.08.13.19.13.3,0,.11-.05.21-.13.29l-1.05,1.02c-.46-.09-1.59-.76-1.97-1.14h0Z"/><path class="cls-1" d="M22.53,38.97c.47-.46.49-1.23.05-1.72,0,0-.78-.85-1.19-1.34-.41-.49-1.14-.51-1.61-.06l-1.05,1.01c-.47.46-.54,1.25-.16,1.77.39.51,2.33,1.95,2.8,1.49l1.17-1.15Z"/><path class="cls-5" d="M19.26,38.28s-.07-.07-.1-.1c-.16-.21-.12-.59.08-.78l1.05-1.01c.15-.15.37-.16.5-.02.44.52,1.24,1.39,1.24,1.39.17.19.16.5-.02.68l-1.02,1c-.38-.12-1.24-.66-1.73-1.15h0Z"/><path class="cls-1" d="M25.42,36.15c.47-.46.48-1.22.02-1.69,0,0-.78-.81-1.22-1.27-.44-.46-1.19-.47-1.66-.01l-1.06,1.02c-.47.46-.52,1.23-.11,1.72.41.49,2.39,1.85,2.86,1.39l1.17-1.14Z"/><path class="cls-5" d="M21.95,35.42c-.16-.19-.13-.51.06-.7l1.06-1.01c.17-.17.44-.17.6-.02.45.47,1.24,1.28,1.24,1.28.17.18.17.47,0,.64l-1.04,1.01c-.42-.11-1.43-.72-1.87-1.16l-.04-.04Z"/><path class="cls-1" d="M19.66,41.79c.47-.46.5-1.25.07-1.75,0,0-.78-.9-1.16-1.42-.38-.51-1.09-.56-1.56-.1l-1.04,1.01c-.47.46-.56,1.28-.21,1.82.36.54,2.26,2.04,2.72,1.58l1.17-1.15Z"/><path class="cls-5" d="M16.57,41.15c-.13-.13-.18-.2-.18-.2-.16-.24-.11-.67.11-.88l1.04-1.01c.13-.13.29-.14.4-.03.43.57,1.2,1.46,1.23,1.5.17.2.16.54-.03.73l-1.01.99c-.35-.13-1.07-.61-1.56-1.1h0Z"/><path class="cls-1" d="M16.79,44.63c.47-.46.51-1.26.1-1.78,0,0-.77-.95-1.13-1.49-.36-.54-1.03-.6-1.5-.14l-1.03,1.02c-.47.46-.58,1.31-.25,1.88.33.57,2.18,2.13,2.65,1.66l1.16-1.16Z"/><path class="cls-5" d="M13.92,44.08c-.18-.18-.27-.3-.29-.33-.16-.28-.1-.75.13-.97l1.03-1.02c.08-.08.19-.15.31-.03.42.62,1.18,1.56,1.21,1.6.17.21.15.58-.05.78l-.99.99c-.29-.12-.85-.5-1.36-1h0Z"/><path class="cls-1" d="M12.96,48.47c.57-.58.98-.99.98-.99.46-.47.52-1.28.12-1.8,0,0-.75-.99-1.08-1.55-.33-.57-.98-.65-1.44-.18,0,0-.81.81-1.55,1.57l-.1.1c-.12.14.02.73.32,1.31l1.06,1.64c.38.54,1.02.62,1.42.18l.26-.26Z"/><path class="cls-5" d="M11.95,48.19s-.04-.04-.06-.07l-1.04-1.61c-.12-.23-.19-.44-.22-.58.71-.72,1.44-1.46,1.44-1.46.06-.06.11-.08.14-.08.02,0,.05.01.07.04.02.02.04.04.06.08.35.6,1.1,1.59,1.13,1.63.17.23.14.62-.06.83l-1.24,1.25s-.07.06-.09.06c-.03,0-.08-.02-.14-.08h0Z"/><path class="cls-1" d="M40.01,22.16c.48-.45.45-1.15-.07-1.56,0,0-.71-.56-1.23-.92-.53-.36-1.36-.29-1.85.15l-1.16,1.05c-.49.44-.46,1.11.06,1.49.52.38,2.56,1.38,3.04.93l1.21-1.14Z"/><path class="cls-5" d="M36.15,21.73c-.06-.06-.06-.1-.06-.12,0-.06.04-.12.11-.18l1.16-1.05c.23-.21.68-.25.93-.09.5.34,1.18.88,1.19.89,0,0,.01.01.02.02.09.08.11.15.11.21,0,.07-.04.14-.11.21l-1.12,1.05c-.43-.01-1.7-.55-2.18-.9l-.04-.04Z"/><path class="cls-1" d="M37.06,24.94c.48-.45.45-1.17-.05-1.59,0,0-.73-.61-1.25-.99-.52-.38-1.34-.32-1.82.12l-1.13,1.04c-.48.45-.47,1.14.03,1.53.5.4,2.55,1.47,3.02,1.02l1.2-1.14Z"/><path class="cls-5" d="M33.27,24.45s-.07-.1-.07-.16c0-.07.04-.15.11-.21l1.13-1.04c.22-.2.65-.24.88-.07.49.36,1.21.95,1.21.96,0,0,0,0,.01.01.09.09.12.16.12.24,0,.08-.04.16-.11.23l-1.1,1.05c-.46-.03-1.73-.64-2.15-.97l-.03-.03Z"/><path class="cls-1" d="M42.97,19.38c.48-.45.45-1.14-.08-1.54,0,0-.67-.51-1.2-.85-.54-.34-1.38-.27-1.87.17l-1.19,1.06c-.49.44-.46,1.09.07,1.45.53.36,2.57,1.3,3.05.85l1.22-1.14Z"/><path class="cls-5" d="M39.07,19.02s-.04-.07-.04-.08c0-.03.03-.09.1-.16l1.19-1.06c.24-.21.71-.26.97-.1.5.32,1.14.82,1.15.82.01.01.02.02.03.03.06.06.09.11.09.18s-.04.13-.1.19l-1.14,1.06c-.42,0-1.69-.49-2.2-.84l-.05-.04Z"/><path class="cls-1" d="M31.22,30.53c.47-.46.47-1.19-.02-1.64,0,0-.77-.71-1.25-1.13-.48-.42-1.27-.39-1.75.06l-1.09,1.03c-.48.45-.49,1.18-.03,1.62.46.44,2.49,1.66,2.96,1.2l1.18-1.14Z"/><path class="cls-5" d="M27.57,29.93c-.08-.08-.1-.18-.1-.24,0-.11.05-.21.13-.29l1.09-1.03c.2-.19.56-.21.75-.04.48.41,1.24,1.11,1.24,1.11,0,0,0,0,0,0,.09.09.13.18.13.28,0,.07-.02.17-.12.27l-1.07,1.03c-.47-.07-1.7-.76-2.05-1.09h0Z"/><path class="cls-1" d="M34.13,27.73c.48-.46.46-1.18-.04-1.61,0,0-.75-.66-1.26-1.06-.5-.4-1.31-.35-1.79.09l-1.11,1.04c-.48.45-.48,1.16,0,1.57.48.42,2.52,1.56,3,1.11l1.19-1.14Z"/><path class="cls-5" d="M30.41,27.18c-.06-.06-.09-.12-.08-.2,0-.09.04-.17.12-.25l1.11-1.03c.21-.2.6-.22.82-.05.49.39,1.22,1.03,1.23,1.03,0,0,0,0,0,0,.11.11.13.2.13.26,0,.06-.02.16-.12.25l-1.08,1.04c-.47-.04-1.71-.69-2.1-1.03l-.02-.02Z"/><path class="cls-1" d="M11.18,50.43c.43-.49.48-1.34.1-1.87l-1.06-1.64c-.3-.58-.9-.65-1.32-.15l-1.06,1.32c-.4.52-.49,1.42-.18,2l.97,1.55c.37.54,1.03.57,1.45.07l1.1-1.28Z"/><path class="cls-5" d="M9.24,51.21l-.95-1.52c-.14-.28-.09-.86.14-1.15l1.05-1.32s.04-.04.06-.05c-.01.01,0,.04.02.07l1.09,1.7c.2.28.17.74-.03.98l-1.11,1.29c-.06.07-.11.1-.14.1-.03,0-.07-.03-.09-.05-.02-.02-.03-.04-.05-.06Z"/><path class="cls-2" d="M4.82,49.72c-7.73,6.31-4.4,15.06-2.06,15.49.39-3.37,12.27-20.66,16.64-30.8-5.51,6.49-10.78,12.21-14.58,15.31Z"/><path class="cls-3" d="M3.58,64.95s-.03.03-.05.04c-.23.2-.49.26-.77.21-.03.22,0,.39.08.48.26.3.54.52.83.65-.2-.43-.22-.9-.09-1.39Z"/><path class="cls-3" d="M36.75.63s-16.87,21.06-15.79,27.69c.21,1.3-.42,3.45-1.55,6.08,2.54-2.99,5.13-6.14,7.66-9.28L36.75.63Z"/><path class="cls-3" d="M12.96,57.04c3.42-6.01,6.64-13.38,8.3-17.34-3.84,5.98-10.19,15.71-14.39,21.33,1.64-1.3,3.77-2.66,6.1-3.98Z"/><path class="cls-3" d="M3.53,64.99s.03-.03.05-.04c.32-1.19,1.52-2.52,3.28-3.92,4.2-5.61,10.55-15.35,14.39-21.33.73-1.75,1.16-2.84,1.16-2.84l4.64-11.73c-2.52,3.13-5.12,6.29-7.66,9.28-4.37,10.14-16.26,27.43-16.64,30.8.28.05.54,0,.77-.21Z"/><path class="cls-2" d="M20.28,65.18c3.1-3.8,8.83-9.07,15.31-14.58-10.14,4.37-27.43,16.26-30.8,16.64.42,2.34,9.18,5.66,15.49-2.06Z"/><path class="cls-3" d="M30.3,48.75c-3.96,1.66-11.33,4.88-17.34,8.3-1.32,2.33-2.68,4.45-3.98,6.1,5.61-4.2,15.35-10.55,21.33-14.39Z"/><path class="cls-3" d="M5.01,66.47s.03-.03.05-.05c-.49.13-.96.11-1.39-.09.13.29.35.57.65.83.09.08.26.1.48.08-.05-.28,0-.54.21-.77Z"/><path class="cls-3" d="M44.88,42.94c-3.13,2.52-6.29,5.12-9.28,7.66,2.63-1.13,4.78-1.77,6.08-1.55,6.63,1.08,27.69-15.79,27.69-15.79l-24.49,9.69Z"/><path class="cls-3" d="M5.05,66.42c.68-.75,2.07-1.9,3.92-3.28,1.31-1.64,2.66-3.77,3.98-6.1-2.33,1.32-4.45,2.68-6.1,3.98-1.38,1.85-2.53,3.25-3.28,3.92-.13.49-.11.96.09,1.39.43.2.9.22,1.39.09Z"/><path class="cls-3" d="M3.58,64.95c.75-.68,1.9-2.08,3.28-3.92-1.76,1.4-2.97,2.74-3.28,3.92Z"/><path class="cls-3" d="M33.14,47.59s-1.09.43-2.84,1.16c-5.98,3.84-15.71,10.19-21.33,14.39-1.4,1.76-2.73,2.97-3.92,3.28-.01.02-.03.03-.05.05-.2.23-.26.49-.21.77,3.37-.39,20.66-12.27,30.8-16.64,2.99-2.54,6.14-5.13,9.28-7.66l-11.73,4.64Z"/><path class="cls-3" d="M5.05,66.42c1.19-.32,2.52-1.52,3.92-3.28-1.85,1.38-3.25,2.53-3.92,3.28Z"/><g class="cls-7"><path class="cls-6" d="M50.45,15.8c-.36.36-.93.36-1.29,0-.36-.36-.36-.93,0-1.29.36-.36.93-.36,1.29,0,.36.36.36.93,0,1.29Z"/></g><g class="cls-7"><path class="cls-6" d="M47.45,13.36c-.25.25-.65.25-.9,0-.25-.25-.25-.65,0-.9.25-.25.65-.25.9,0,.25.25.25.65,0,.9Z"/></g><g class="cls-7"><path class="cls-6" d="M47.24,18.01c-.23.23-.61.23-.85,0-.23-.23-.23-.61,0-.85.23-.23.61-.23.85,0,.23.23.23.61,0,.85Z"/></g><g class="cls-7"><path class="cls-6" d="M44.47,15.9c-.23.23-.61.23-.85,0-.23-.23-.23-.61,0-.85.23-.23.61-.23.85,0s.23.61,0,.85Z"/></g><g class="cls-7"><path class="cls-6" d="M44.29,20.64c-.23.23-.61.23-.85,0s-.23-.61,0-.85c.23-.23.61-.23.85,0,.23.23.23.61,0,.85Z"/></g><g class="cls-7"><path class="cls-6" d="M41.52,18.54c-.23.23-.61.23-.85,0-.23-.23-.23-.61,0-.85.23-.23.61-.23.85,0,.23.23.23.61,0,.85Z"/></g><g class="cls-7"><path class="cls-6" d="M41.34,23.28c-.23.23-.61.23-.85,0-.23-.23-.23-.61,0-.85.23-.23.61-.23.85,0,.23.23.23.61,0,.85Z"/></g><g class="cls-7"><path class="cls-6" d="M38.57,21.17c-.23.23-.61.23-.85,0-.23-.23-.23-.61,0-.85.23-.23.61-.23.85,0,.23.23.23.61,0,.85Z"/></g><g class="cls-7"><path class="cls-6" d="M38.39,25.91c-.23.23-.61.23-.85,0-.23-.23-.23-.61,0-.85.23-.23.61-.23.85,0,.23.23.23.61,0,.85Z"/></g><g class="cls-7"><path class="cls-6" d="M35.62,23.81c-.23.23-.61.23-.85,0-.23-.23-.23-.61,0-.85.23-.23.61-.23.85,0,.23.23.23.61,0,.85Z"/></g><g class="cls-7"><path class="cls-6" d="M51.2,11.25c-.26.26-.68.26-.94,0-.26-.26-.26-.68,0-.94.26-.26.68-.26.94,0,.26.26.26.68,0,.94Z"/></g><g class="cls-7"><path class="cls-6" d="M57.14,10.75c-.26.26-.68.26-.94,0-.26-.26-.26-.68,0-.94s.68-.26.94,0,.26.68,0,.94Z"/></g><g class="cls-7"><path class="cls-6" d="M55.12,9.38c-.26.26-.68.26-.94,0s-.26-.68,0-.94.68-.26.94,0c.26.26.26.68,0,.94Z"/></g><g class="cls-7"><path class="cls-6" d="M53.58,13.08c-.26.26-.68.26-.94,0-.26-.26-.26-.68,0-.94s.68-.26.94,0c.26.26.26.68,0,.94Z"/></g></g></svg>