<?xml version="1.0" encoding="UTF-8"?><svg id="Calque_2" xmlns="http://www.w3.org/2000/svg" viewBox="0 0 207.16 188.65"><defs><style>.cls-1{fill:#7f8f39;}.cls-1,.cls-2,.cls-3,.cls-4,.cls-5,.cls-6,.cls-7,.cls-8{stroke-width:0px;}.cls-2{fill:#fbf4e4;}.cls-3{fill:#e5cea7;}.cls-4{fill:#fbe0ae;}.cls-5{fill:#4f7302;}.cls-6{fill:#8aa256;}.cls-7{fill:#596032;}.cls-8{fill:#fff;}</style></defs><g id="OBJECTS"><path class="cls-4" d="M107.46,46.8c-.31-3.69-.76-7.65-3.45-10.43-2.69-2.79-8.49-3.32-10.48-.09-1.79,2.9.49,6.55-.19,9.82-1.67,8.09-15.47,7.08-22.07,7.24-10.57.25-20.61,1.97-30.47,5.61-17.22,6.35-32.82,19.37-38.68,35.89-6.96,19.62,4.31,38.27,17.75,53.05,9.1,10.01,14.76,18.99,13.57,40.77,7.83-8.03,20.81-10.18,32.65-9.61,11.84.56,23.52,3.32,35.37,3.05,13.68-.31,26.96-4.68,38.77-10.91,13.48-7.11,24.44-16.75,29.43-30.33,8.49-23.11.54-47.86-18.15-64.95-6.61-6.05-15.71-9.39-21.81-15.97-5.51-5.95-7.12-16.15-.18-20.71,2.95-1.94,7.61-3.62,6.85-6.84-.72-3.02-5.5-3.14-8.73-2.1-8.78,2.83-16.22,8.91-20.19,16.51Z"/><path class="cls-3" d="M82.57,16.64c21.98-5.3,37.4,21.76,25.98,39.42-.97,1.39-3.12.16-2.4-1.38,3.42-7.15,1.73-15.96-2.88-22.05-4.18-5.72-11.21-8.71-17.72-5.92-2.7,1.09-5.78-.22-6.86-2.92-1.26-3.03.68-6.56,3.89-7.15h0Z"/><path class="cls-3" d="M96.05.3c9.2,2.89,16.1,10.51,19.31,19.37.91,2.63,1.21,5.42,1.43,8.18.19,3.75-.11,7.59-1.2,11.19-.66,2.13-1.42,4.03-2.73,5.92-.36.51-1.07.63-1.58.28-.46-.32-.6-.91-.38-1.4,2.88-6.65,1.69-15.31-1.44-21.69-3.02-5.53-9.54-10.91-15.63-11.57-2.91-.25-5.07-2.81-4.82-5.73.25-3.41,3.83-5.69,7.03-4.55h0Z"/><path class="cls-1" d="M173.03,48.88c-9.99-4.59-21.46-8.31-32.44-5.97-9.01,1.93-15.83,7.49-21.25,13.76-1.03,2.3-1.93,4.65-2.7,7.02.75-.1,1.51-.19,2.28-.26l.35.5c-1.17,2.79.32,5.86,2.16,8.37,5.56,7.6,15.38,14.15,25.89,15.26,6.67.7,13.47-.73,19.56-3.19,6.9-2.78,12.88-6.82,18.88-10.82,3.31-2.21,6.61-4.45,9.86-6.73,1.21-.85,7.09-6.1,8.21-5.92-11.11-1.84-20.8-7.45-30.79-12.03Z"/><path class="cls-1" d="M153.23,44.59c-3.64-.31-7.32.04-10.93.56-14.13,2.05-28.22,10.85-26.44,24.77.76,5.92,4.76,11.4,10.36,14.88,5.6,3.48,12.67,5.01,19.56,4.65,6.67-.35,13.06-2.37,19.16-4.73,2.55-.99,5.07-2.04,7.43-3.33,10.07-5.53,16.56-15.16,26.99-20.17-16.68-1.79-29.38-15.2-46.11-16.63Z"/><path class="cls-5" d="M183.6,60.94c-7.49-6.15-16.43-11.89-26.32-12.35-8.12-.38-15.17,2.84-21.2,6.97-1.4,1.73-2.69,3.53-3.88,5.38.66.08,1.33.18,2,.29l.18.51c-1.62,2.11-1.04,5.07-.04,7.62,3.03,7.72,9.94,15.51,18.66,18.81,5.53,2.09,11.64,2.39,17.39,1.66,6.51-.83,12.51-2.92,18.52-4.99,3.32-1.14,6.63-2.31,9.91-3.53,1.22-.45,7.41-3.61,8.32-3.2-9.06-4.06-16.06-11.01-23.55-17.16Z"/><path class="cls-5" d="M167.69,52.85c-3.04-1.08-6.25-1.61-9.44-1.97-12.5-1.42-26.49,2.92-28.09,15.2-.68,5.22,1.5,10.78,5.5,15,3.99,4.22,9.68,7.11,15.63,8.35,5.76,1.2,11.67.91,17.39.26,2.39-.27,4.78-.6,7.08-1.18,9.82-2.46,17.51-9.21,27.53-11.15-13.82-5.26-21.64-19.54-35.59-24.5Z"/><path class="cls-6" d="M173.03,48.88c-9.99-4.59-21.46-8.31-32.44-5.97-9.01,1.93-15.83,7.49-21.25,13.76-1.03,2.3-1.93,4.65-2.7,7.02.75-.1,1.51-.19,2.28-.26l.35.5c-1.17,2.79.32,5.86,2.16,8.37,5.56,7.6,15.38,14.15,25.89,15.26,6.67.7,13.47-.73,19.56-3.19,6.9-2.78,12.88-6.82,18.88-10.82,3.31-2.21,6.61-4.45,9.86-6.73,1.21-.85,7.09-6.1,8.21-5.92-11.11-1.84-20.8-7.45-30.79-12.03Z"/><path class="cls-6" d="M153.23,44.59c-3.64-.31-7.32.04-10.93.56-14.13,2.05-28.22,10.85-26.44,24.77.76,5.92,4.76,11.4,10.36,14.88,5.6,3.48,12.67,5.01,19.56,4.65,6.67-.35,13.06-2.37,19.16-4.73,2.55-.99,5.07-2.04,7.43-3.33,10.07-5.53,16.56-15.16,26.99-20.17-16.68-1.79-29.38-15.2-46.11-16.63Z"/><polygon class="cls-8" points="57.5 76.61 59.57 80.4 63.35 82.46 59.57 84.53 57.5 88.31 55.43 84.53 51.65 82.46 55.43 80.4 57.5 76.61"/><polygon class="cls-8" points="90.32 152.82 93.46 158.55 99.18 161.68 93.46 164.81 90.32 170.54 87.19 164.81 81.46 161.68 87.19 158.55 90.32 152.82"/><polygon class="cls-8" points="72.59 67 73.44 68.55 74.99 69.4 73.44 70.25 72.59 71.8 71.74 70.25 70.19 69.4 71.74 68.55 72.59 67"/><polygon class="cls-8" points="36.92 82.61 38.14 84.84 40.37 86.06 38.14 87.28 36.92 89.5 35.7 87.28 33.48 86.06 35.7 84.84 36.92 82.61"/><polygon class="cls-8" points="97.08 82.61 98.3 84.84 100.53 86.06 98.3 87.28 97.08 89.5 95.87 87.28 93.64 86.06 95.87 84.84 97.08 82.61"/><polygon class="cls-8" points="100.53 57.95 102.59 61.72 106.36 63.78 102.59 65.84 100.53 69.6 98.47 65.84 94.71 63.78 98.47 61.72 100.53 57.95"/><polygon class="cls-8" points="56.02 152.14 57.05 154.02 58.94 155.05 57.05 156.08 56.02 157.97 54.99 156.08 53.11 155.05 54.99 154.02 56.02 152.14"/><polygon class="cls-8" points="117.64 150.25 118.33 151.51 119.59 152.2 118.33 152.89 117.64 154.15 116.95 152.89 115.69 152.2 116.95 151.51 117.64 150.25"/><polygon class="cls-8" points="128.75 154.86 129.85 156.87 131.86 157.97 129.85 159.07 128.75 161.08 127.65 159.07 125.64 157.97 127.65 156.87 128.75 154.86"/><path class="cls-8" d="M47.41,68.26c0,.74-.6,1.35-1.35,1.35s-1.35-.6-1.35-1.35.6-1.35,1.35-1.35,1.35.6,1.35,1.35Z"/><circle class="cls-8" cx="32.43" cy="95.15" r="1.05"/><path class="cls-8" d="M70.55,164.94c0,.63-.51,1.14-1.14,1.14s-1.14-.51-1.14-1.14.51-1.14,1.14-1.14,1.14.51,1.14,1.14Z"/><path class="cls-8" d="M149.12,148.4c0,1.02-.83,1.85-1.85,1.85s-1.85-.83-1.85-1.85.83-1.85,1.85-1.85,1.85.83,1.85,1.85Z"/><path class="cls-8" d="M159.76,100.93c0,.98-.8,1.78-1.78,1.78s-1.78-.8-1.78-1.78.8-1.78,1.78-1.78,1.78.8,1.78,1.78Z"/><path class="cls-8" d="M41.42,148.92c0,.29-.24.53-.53.53s-.53-.24-.53-.53.24-.53.53-.53.53.24.53.53Z"/></g><g id="TEXTS"><path class="cls-7" d="M68.54,103.85c.04-.29-.04-.54-.23-.74s-.42-.37-.69-.51-.51-.26-.72-.37c-.39-.19-.76-.4-1.11-.63-.35-.22-.66-.48-.93-.76s-.47-.61-.61-.98-.2-.8-.17-1.28c.03-.59.17-1.12.42-1.58.25-.47.58-.86,1-1.19s.88-.57,1.39-.74c.52-.17,1.06-.25,1.62-.24.77.01,1.44.17,2.03.48.58.31,1.04.74,1.36,1.31.32.57.48,1.24.48,2.01h-3.05c0-.24,0-.47-.04-.7s-.13-.42-.27-.56-.37-.22-.67-.2c-.24,0-.45.06-.64.17-.19.11-.35.26-.48.45-.13.19-.21.4-.26.62-.04.22,0,.4.1.57.1.16.25.3.42.42.18.12.37.23.57.32.2.09.37.17.51.23.57.26,1.08.55,1.53.87s.81.71,1.07,1.17c.26.46.36,1.03.31,1.72-.02.62-.17,1.16-.45,1.63-.28.47-.63.85-1.07,1.16-.44.31-.93.54-1.47.69-.54.15-1.1.22-1.67.21-.78-.02-1.46-.2-2.06-.54-.6-.33-1.07-.8-1.4-1.38-.34-.59-.5-1.27-.49-2.05h2.91c0,.31.02.58.08.84s.18.45.38.59c.19.14.46.21.81.21.25,0,.49-.04.71-.13.22-.1.39-.23.54-.41.14-.18.23-.4.28-.67Z"/><path class="cls-7" d="M79.66,99.78l-.31,1.88h-1c-.29,0-.56.05-.8.15-.24.1-.46.24-.65.42-.19.18-.34.39-.46.63-.12.24-.19.5-.22.79-.03.2-.03.4,0,.59.03.19.1.36.21.49.12.13.29.21.53.21.26,0,.52-.05.77-.16.25-.11.47-.26.64-.46.17-.2.28-.44.31-.72l.55,1.25c-.13.34-.29.67-.48.98-.19.31-.42.58-.68.82-.26.24-.55.43-.87.57-.32.14-.69.2-1.1.2-.65,0-1.21-.18-1.67-.51s-.82-.76-1.05-1.3c-.24-.53-.34-1.11-.31-1.74.04-.72.2-1.34.5-1.86.29-.51.68-.94,1.16-1.27.48-.33,1.02-.58,1.63-.74.61-.16,1.24-.24,1.91-.24h1.39ZM78.48,104.38l.89-5.6c.02-.22.03-.45.02-.68-.01-.23-.07-.42-.18-.58-.11-.16-.31-.24-.58-.25-.3,0-.54.06-.72.19-.18.13-.32.31-.41.52-.1.21-.17.44-.21.69l-3.05.02c.04-.62.19-1.17.46-1.64s.62-.88,1.05-1.22c.43-.34.92-.59,1.46-.76.54-.17,1.1-.25,1.68-.25.81.01,1.49.19,2.05.53.56.34.97.8,1.23,1.39.26.59.35,1.29.27,2.09l-.86,5.4c-.07.44-.12.9-.17,1.37s0,.93.16,1.36l-.02.2h-2.99c-.13-.44-.18-.91-.17-1.38.01-.47.05-.94.11-1.4Z"/><path class="cls-7" d="M87.43,95.07l.41,9.84-.31,2.26h-1.89l-1.34-12.1h3.13ZM87.08,104.62l3.36-9.55h3.27l-5.12,12.1h-1.96l.46-2.55Z"/><path class="cls-7" d="M97.84,107.39c-.81-.01-1.5-.17-2.07-.47s-1.03-.71-1.38-1.22c-.34-.52-.58-1.11-.7-1.77-.12-.66-.15-1.37-.08-2.11l.11-1c.1-.78.29-1.53.55-2.25.26-.72.61-1.37,1.06-1.94s.99-1.02,1.64-1.34c.65-.32,1.41-.47,2.29-.46.83.02,1.5.21,2.02.55s.91.8,1.17,1.37.43,1.2.49,1.88.05,1.38-.04,2.09l-.21,1.43h-7.89l.39-2.2h4.78s.06-.3.06-.3c.05-.31.07-.64.06-.97s-.1-.62-.27-.86-.45-.37-.85-.39c-.44-.02-.8.08-1.07.3-.27.22-.48.51-.63.87-.15.36-.26.74-.32,1.13-.06.4-.11.76-.15,1.1l-.12,1.01c-.04.33-.05.67-.05,1.01,0,.34.05.65.14.95s.25.53.48.71.55.28.98.29c.52.01,1-.08,1.45-.29.44-.21.86-.47,1.25-.8l1.04,1.91c-.31.42-.68.76-1.14,1.03s-.94.46-1.45.59-1.03.18-1.53.17Z"/><path class="cls-7" d="M110.44,101.72l.75-.03c-.06.61-.17,1.25-.33,1.92-.16.67-.4,1.3-.7,1.88-.31.58-.72,1.05-1.23,1.41-.51.36-1.15.53-1.91.5-.63-.02-1.13-.16-1.52-.43-.38-.27-.67-.63-.87-1.07-.19-.44-.31-.92-.36-1.45-.04-.53-.04-1.05.01-1.56l1.31-7.83h3.05l-1.3,7.86c-.01.17-.03.36-.03.57,0,.21.01.41.06.6.04.19.12.35.24.48.12.13.3.19.54.2.56.03,1-.12,1.31-.44s.54-.73.68-1.22.24-.95.29-1.39ZM109.76,104.09l1.57-9.03h3.09l-2.1,12.1h-2.88l.32-3.08Z"/><path class="cls-7" d="M119.17,97.93l-1.61,9.24h-3.05l2.1-12.1h2.89l-.32,2.86ZM122.37,94.97l-.41,3.12c-.16-.03-.33-.06-.5-.08s-.33-.03-.5-.03c-.38,0-.71.06-.99.19-.28.13-.51.32-.71.56s-.35.51-.47.82-.22.63-.29.96l-.53-.22c.05-.47.14-1.02.27-1.64s.32-1.23.57-1.81c.25-.58.58-1.07,1-1.45.42-.38.95-.57,1.59-.57.16,0,.32.03.48.06.15.03.31.06.48.1Z"/><path class="cls-2" d="M134.1,58.4l-2.99,17.79h-3.92l2.27-13.05-3.34,1.17.56-3.28,7-2.61h.43Z"/><path class="cls-2" d="M147.79,65.67l-.49,3.23c-.11.85-.32,1.71-.6,2.61-.29.89-.68,1.71-1.17,2.47s-1.09,1.35-1.82,1.81c-.72.45-1.6.67-2.64.64-.78-.02-1.44-.19-1.96-.51s-.96-.75-1.28-1.28c-.33-.53-.57-1.12-.73-1.77-.16-.65-.25-1.32-.26-2-.02-.68.01-1.33.08-1.95l.49-3.25c.13-.85.34-1.72.62-2.61.28-.89.67-1.72,1.16-2.47.49-.76,1.1-1.36,1.83-1.8s1.61-.65,2.64-.63c.77.02,1.43.19,1.96.52.53.33.96.76,1.28,1.28.32.52.56,1.11.71,1.76.16.65.24,1.31.26,2s-.01,1.33-.08,1.95ZM143.34,69.43l.62-4.3c.02-.14.05-.35.1-.63.05-.29.09-.61.12-.96.03-.36.03-.7,0-1.03-.02-.33-.1-.61-.23-.83-.13-.22-.33-.34-.6-.36-.42-.03-.75.1-1,.38s-.44.65-.57,1.09-.22.88-.27,1.32c-.05.44-.1.78-.13,1.03l-.63,4.3c0,.14-.04.35-.09.64s-.09.61-.12.97c-.03.36-.04.7-.01,1.03.03.33.1.61.23.83.13.22.33.35.6.37.42.03.75-.1,1-.39s.44-.66.57-1.1c.13-.44.22-.88.28-1.32s.1-.79.13-1.04Z"/><path class="cls-2" d="M160.19,65.67l-.49,3.23c-.11.85-.32,1.71-.6,2.61-.29.89-.68,1.71-1.17,2.47s-1.09,1.35-1.82,1.81c-.72.45-1.6.67-2.64.64-.78-.02-1.44-.19-1.96-.51s-.96-.75-1.28-1.28c-.33-.53-.57-1.12-.73-1.77-.16-.65-.25-1.32-.26-2-.02-.68.01-1.33.08-1.95l.49-3.25c.13-.85.34-1.72.62-2.61.28-.89.67-1.72,1.16-2.47.49-.76,1.1-1.36,1.83-1.8s1.61-.65,2.64-.63c.77.02,1.43.19,1.96.52.53.33.96.76,1.28,1.28.32.52.56,1.11.71,1.76.16.65.24,1.31.26,2s-.01,1.33-.08,1.95ZM155.75,69.43l.62-4.3c.02-.14.05-.35.1-.63.05-.29.09-.61.12-.96.03-.36.03-.7,0-1.03-.02-.33-.1-.61-.23-.83-.13-.22-.33-.34-.6-.36-.42-.03-.75.1-1,.38s-.44.65-.57,1.09-.22.88-.27,1.32c-.05.44-.1.78-.13,1.03l-.63,4.3c0,.14-.04.35-.09.64s-.09.61-.12.97c-.03.36-.04.7-.01,1.03.03.33.1.61.23.83.13.22.33.35.6.37.42.03.75-.1,1-.39s.44-.66.57-1.1c.13-.44.22-.88.28-1.32s.1-.79.13-1.04Z"/><path class="cls-2" d="M163.96,64.39l.07-.79c.06-.51.2-1.01.43-1.5.23-.49.54-.9.94-1.21.4-.32.88-.47,1.46-.45.55.02.98.2,1.3.53.32.33.53.73.66,1.21.12.48.17.95.14,1.42l-.08.8c-.05.49-.19.97-.41,1.46-.23.49-.54.89-.93,1.21-.39.32-.88.47-1.45.45-.55-.02-.98-.19-1.3-.52-.32-.33-.54-.73-.67-1.2-.13-.47-.17-.94-.14-1.41ZM173.07,62.74l-8.03,11.83-.67-.57,8.05-11.78.65.53ZM164.97,63.59l-.07.83c-.02.29,0,.6.05.93.05.34.17.62.35.87.18.24.46.37.84.38.4,0,.72-.11.97-.34.25-.24.44-.53.58-.87.13-.34.22-.67.27-.98l.07-.83c.02-.28,0-.6-.04-.94-.05-.34-.17-.64-.35-.89-.18-.25-.46-.38-.84-.39-.39,0-.71.11-.96.34-.25.24-.45.53-.59.88-.14.35-.23.68-.27,1.01ZM168.66,72.93l.08-.8c.05-.49.19-.99.41-1.47.23-.49.54-.9.94-1.22.4-.32.88-.48,1.45-.46.55.02.98.19,1.3.52.32.33.54.73.67,1.2.12.48.17.95.14,1.42l-.07.81c-.05.49-.19.98-.41,1.47s-.54.9-.93,1.21c-.39.32-.87.47-1.44.45-.56-.02-.99-.19-1.31-.52-.32-.32-.54-.72-.67-1.2s-.18-.95-.16-1.42ZM169.68,72.12l-.07.84c-.02.29,0,.6.05.94.05.34.17.63.35.88.18.25.46.37.84.38.39,0,.71-.11.96-.35.25-.24.45-.53.59-.88.14-.34.22-.68.25-1l.08-.84c.02-.29,0-.61-.04-.95-.05-.34-.17-.63-.35-.88-.18-.24-.47-.37-.85-.38-.4-.01-.72.1-.97.33-.25.23-.45.52-.58.87-.13.35-.22.69-.25,1.02Z"/><path class="cls-7" d="M29.75,120.31l-2.98,17.57h-6.59l3.86-22.83h6.14l-.43,5.25ZM28.14,125.78l-1.17.06c.08-1.2.27-2.46.55-3.79.29-1.33.72-2.56,1.31-3.7.59-1.14,1.37-2.06,2.35-2.75s2.2-1.03,3.66-1c1.16.06,2.08.37,2.76.94.68.57,1.16,1.3,1.46,2.18.29.89.46,1.84.49,2.86.03,1.02,0,2-.07,2.94l-2.34,14.37h-6.61l2.34-14.43c.04-.48.06-.98.07-1.5,0-.52-.09-.96-.3-1.33-.21-.37-.62-.55-1.25-.57-.7-.01-1.25.18-1.66.57-.41.39-.72.9-.92,1.51-.21.61-.35,1.24-.44,1.9-.09.65-.17,1.23-.24,1.74Z"/><path class="cls-7" d="M52.73,123.94l-.62,3.8-1.4-.02c-.51.01-.94.13-1.31.35-.37.22-.67.5-.91.84-.24.34-.43.74-.56,1.17-.14.44-.23.89-.29,1.37-.05.31-.09.61-.11.9-.02.29.02.53.13.72.11.19.36.29.76.29s.79-.1,1.13-.3c.34-.2.63-.45.86-.76.23-.31.38-.66.43-1.05l.39,2.87c-.26.54-.52,1.05-.78,1.56-.26.51-.55.96-.88,1.37s-.73.73-1.2.96c-.47.23-1.06.35-1.78.35-1.22,0-2.26-.3-3.13-.91-.87-.6-1.52-1.4-1.95-2.38-.43-.98-.63-2.09-.58-3.31.04-1.39.35-2.59.91-3.59.57-1,1.32-1.81,2.25-2.43.93-.62,1.96-1.08,3.1-1.37s2.32-.44,3.55-.44l1.99.02ZM50.6,132.15l1.54-10.13c.03-.37.06-.73.11-1.09.05-.36,0-.67-.12-.93-.13-.26-.44-.38-.93-.37-.48-.01-.82.1-1.02.35-.2.25-.32.56-.37.94-.05.38-.11.76-.17,1.14l-6.59.04c.05-1.21.33-2.29.83-3.23.5-.94,1.16-1.73,1.98-2.36s1.75-1.11,2.78-1.43,2.11-.47,3.23-.44c1.46.01,2.74.32,3.84.92s1.92,1.46,2.46,2.58c.55,1.13.75,2.46.6,4.01l-1.56,10c-.12.87-.21,1.77-.26,2.68-.05.91.04,1.8.26,2.66l-.02.4-6.38.02c-.29-.91-.43-1.86-.42-2.85,0-.98.08-1.95.22-2.91Z"/><path class="cls-7" d="M73.65,115.06l-.84,4.94h-11.43l.86-4.94h11.41ZM65.23,109.38h6.61l-3.53,21.1c-.05.37-.08.71-.08,1.04s.08.6.23.81.44.33.88.36c.23.01.47,0,.71-.02.24-.03.47-.06.69-.08l-.51,5.15c-.52.21-1.05.36-1.59.44-.54.08-1.1.13-1.67.13-1.33-.03-2.4-.35-3.22-.97-.82-.62-1.4-1.46-1.73-2.51s-.45-2.22-.34-3.5l3.57-21.94Z"/><path class="cls-7" d="M84.79,127.59l1.46-.02c-.11,1.1-.3,2.28-.57,3.54-.27,1.27-.68,2.45-1.23,3.55-.55,1.1-1.28,2-2.2,2.68-.92.68-2.07,1.01-3.45.98-1.15-.01-2.08-.28-2.79-.79-.71-.51-1.26-1.19-1.64-2.01-.38-.83-.62-1.74-.72-2.73s-.09-1.98.02-2.96l2.4-14.77h6.57l-2.44,14.85c-.03.24-.04.52-.05.85,0,.33.02.65.09.96.07.31.19.57.37.78s.45.32.8.34c.92.06,1.6-.21,2.05-.8.45-.59.77-1.3.94-2.14.18-.84.31-1.61.39-2.31ZM83.58,131.98l2.87-16.92h6.59l-3.86,22.83h-6.12l.51-5.91Z"/><path class="cls-7" d="M102.01,121.07l-2.83,16.81h-6.59l3.86-22.83h6.1l-.53,6.01ZM108,114.91l-.92,6.58c-.33-.06-.66-.11-.99-.15-.33-.04-.66-.07-1.01-.08-.67-.01-1.25.1-1.74.34-.49.24-.9.57-1.22,1-.32.43-.58.92-.78,1.47-.2.55-.35,1.14-.44,1.77l-1.01-.84c.11-.89.28-1.92.5-3.1.23-1.18.56-2.34,1-3.47.45-1.13,1.05-2.06,1.81-2.79.76-.72,1.73-1.08,2.92-1.07.33.01.64.05.94.12.3.06.61.14.92.22Z"/><path class="cls-7" d="M115.78,138.31c-1.45-.03-2.73-.3-3.83-.82-1.1-.52-2-1.24-2.71-2.16-.71-.92-1.2-2-1.49-3.23-.29-1.23-.37-2.57-.25-4.02l.31-2.49c.19-1.55.53-2.99,1.03-4.33.49-1.34,1.16-2.51,2-3.52s1.87-1.8,3.09-2.35,2.65-.8,4.31-.75c1.49.04,2.73.37,3.7.97s1.74,1.41,2.28,2.43c.54,1.01.89,2.15,1.06,3.42s.17,2.58.02,3.94l-.47,3.31h-15.02l.76-4.45,8.39.02.14-.84c.07-.51.12-1.01.14-1.51s-.06-.92-.28-1.27c-.21-.34-.63-.54-1.26-.6-.77-.03-1.35.13-1.76.47-.41.34-.72.8-.91,1.37-.2.57-.34,1.18-.42,1.84-.08.65-.15,1.27-.21,1.85l-.31,2.51c-.05.56-.09,1.11-.1,1.66-.01.54.05,1.04.2,1.5s.39.82.74,1.1c.35.27.87.43,1.57.45.85.03,1.65-.12,2.4-.43.75-.32,1.43-.78,2.03-1.4l2.42,4.37c-.56.76-1.27,1.35-2.12,1.78-.85.43-1.76.74-2.71.93s-1.86.28-2.74.26Z"/><path class="cls-7" d="M138.32,105.48l-5.46,32.4h-6.59l5.48-32.4h6.57Z"/><path class="cls-7" d="M148.97,105.48l-5.46,32.4h-6.59l5.48-32.4h6.57Z"/><path class="cls-7" d="M156.81,138.31c-1.45-.03-2.73-.3-3.83-.82-1.1-.52-2-1.24-2.71-2.16-.71-.92-1.2-2-1.49-3.23-.29-1.23-.37-2.57-.25-4.02l.31-2.49c.19-1.55.53-2.99,1.03-4.33.49-1.34,1.16-2.51,2-3.52s1.87-1.8,3.09-2.35,2.65-.8,4.31-.75c1.49.04,2.73.37,3.7.97s1.74,1.41,2.28,2.43c.54,1.01.89,2.15,1.06,3.42s.17,2.58.02,3.94l-.47,3.31h-15.02l.76-4.45,8.39.02.14-.84c.07-.51.12-1.01.14-1.51s-.06-.92-.28-1.27c-.21-.34-.63-.54-1.26-.6-.77-.03-1.35.13-1.76.47-.41.34-.72.8-.91,1.37-.2.57-.34,1.18-.42,1.84-.08.65-.15,1.27-.21,1.85l-.31,2.51c-.05.56-.09,1.11-.1,1.66-.01.54.05,1.04.2,1.5s.39.82.74,1.1c.35.27.87.43,1.57.45.85.03,1.65-.12,2.4-.43.75-.32,1.43-.78,2.03-1.4l2.42,4.37c-.56.76-1.27,1.35-2.12,1.78-.85.43-1.76.74-2.71.93s-1.86.28-2.74.26Z"/></g></svg>