<?xml version="1.0" encoding="UTF-8"?><svg xmlns="http://www.w3.org/2000/svg" viewBox="0 0 53.31 56.53"><defs><style>.cls-1{fill:#eda43b;}.cls-1,.cls-2,.cls-3,.cls-4,.cls-5{stroke-width:0px;}.cls-2{fill:#fee392;}.cls-3{fill:#f7b94c;}.cls-6{isolation:isolate;}.cls-4{fill:#c97d2f;}.cls-5{fill:#ea984e;}.cls-7{mix-blend-mode:multiply;opacity:.49;}</style></defs><g class="cls-6"><g id="Calque_2"><g id="_ÎÓÈ_1"><path class="cls-3" d="M44.19,3.32c-2.03-1.05-4.27-2.07-4.57-2.17C36.17.02,32.44-.25,28.83.22c-5.22.69-10.17,2.88-14.52,5.85-5.42,3.7-10.07,8.73-12.56,14.81-3.91,9.56-.85,17.87,4.56,25.97,0,0,41.23-41.23,41.25-41.24.27-.28-1.46-1.29-3.38-2.28Z"/><path class="cls-2" d="M20.26,21.73c-1.39,2.18-5.97.22-7.46-.8-5.21-3.55.34-8.8,1.57-9.68,2.75-1.96,6.75-5.07,10-5.97,3.06-.84,9.4-2.98,12.01-.33,5.23,5.3-6.65,1.92-16.12,16.78Z"/><path class="cls-4" d="M39.67,46.58c1.17-1.61,2.14-3.38,2.85-5.28,1.19-3.18,1.6-6.8,3.33-9.76,2.33-3.99,7.59-5.86,7.46-11.11-.02-.96-.11-1.93-.24-2.89-1.32,1.92-3.06,3.79-5.25,4.84-5.77,2.77-9.04,12.91-12.64,19.46-3.6,6.55-4.57,7.68-9.51,9.51-7.08,2.62-13.56.3-17.21-1.63.51.62,1.05,1.22,1.62,1.79,2.99,2.95,6.82,4.79,11.06,5.01,7.13.37,14.44-4.32,18.52-9.94Z"/><path class="cls-1" d="M35.18,41.84c3.6-6.55,6.87-16.69,12.64-19.46,2.19-1.05,3.93-2.92,5.25-4.84-.17-1.2-.42-2.4-.76-3.56-.92-3.17-2.49-6.11-4.74-8.37L6.33,46.85c.04.06.08.12.12.17.63.93,1.3,1.83,2.02,2.69,3.64,1.93,10.13,4.25,17.21,1.63,4.94-1.83,5.91-2.96,9.51-9.51Z"/><g class="cls-7"><path class="cls-5" d="M7.23,30.67c-.15,0-.3-.06-.42-.17-.23-.23-.23-.6,0-.83.23-.23.6-.23.83,0l-.18.18c-.13-.13-.35-.13-.48,0-.13.13-.13.35,0,.48.13.13.35.13.48,0l.18.18c-.12.11-.27.17-.42.17Z"/><path class="cls-5" d="M13.71,29.41c-.15,0-.3-.06-.42-.17-.23-.23-.23-.6,0-.83.23-.23.6-.23.83,0l-.18.18c-.13-.13-.35-.13-.48,0-.13.13-.13.35,0,.48.13.13.35.13.48,0l.18.18c-.11.11-.27.17-.42.17Z"/><path class="cls-5" d="M9.98,24.42c-.15,0-.3-.06-.42-.17-.23-.23-.23-.6,0-.83.22-.22.61-.22.83,0l-.18.18c-.13-.13-.35-.13-.48,0-.13.13-.13.35,0,.48.13.13.35.13.48,0l.18.18c-.12.11-.27.17-.42.17Z"/><path class="cls-5" d="M16.87,24.74c-.15,0-.3-.06-.42-.17-.23-.23-.23-.6,0-.83.23-.23.6-.23.83,0l-.18.18c-.13-.13-.35-.13-.48,0-.13.13-.13.35,0,.48.13.13.35.13.48,0l.18.18c-.12.11-.27.17-.42.17Z"/><path class="cls-5" d="M23.35,23.48c-.15,0-.3-.06-.42-.17-.23-.23-.23-.6,0-.83.23-.23.6-.23.83,0l-.18.18c-.13-.13-.35-.13-.48,0-.13.13-.13.35,0,.48.13.13.35.13.48,0l.18.18c-.11.11-.27.17-.42.17Z"/><path class="cls-5" d="M19.62,18.48c-.15,0-.3-.06-.42-.17-.23-.23-.23-.6,0-.83.23-.23.6-.23.83,0l-.18.18c-.13-.13-.35-.13-.48,0-.13.13-.13.35,0,.48.13.13.35.13.48,0l.18.18c-.12.11-.27.17-.42.17Z"/></g><g class="cls-7"><path class="cls-5" d="M8.47,18.83s-.05,0-.08,0c-.16-.02-.29-.1-.39-.22-.1-.12-.14-.28-.12-.43.02-.16.1-.29.22-.39.12-.1.28-.13.43-.12.16.02.29.1.39.22l-.2.15c-.12-.15-.33-.17-.47-.06-.07.06-.12.13-.13.22-.01.09.01.18.07.25.06.07.13.12.22.13.09.01.18-.01.25-.07l.15.2c-.1.08-.23.12-.36.12Z"/><path class="cls-5" d="M15.06,18.41s-.05,0-.08,0c-.16-.02-.29-.1-.39-.22-.1-.12-.14-.28-.12-.43.02-.16.1-.29.22-.39.12-.1.27-.13.43-.12.16.02.29.1.39.22l-.2.15c-.06-.07-.13-.12-.22-.13-.09-.01-.18.01-.25.07s-.12.13-.13.22c-.01.09.01.18.07.25.11.15.33.17.47.06l.15.2c-.1.08-.23.12-.36.12Z"/><path class="cls-5" d="M12,12.98s-.05,0-.08,0c-.16-.02-.29-.1-.39-.22-.1-.12-.14-.28-.12-.43.02-.16.1-.29.22-.39s.27-.13.43-.12c.16.02.29.1.39.22l-.2.15c-.12-.15-.33-.17-.47-.06-.15.11-.17.33-.06.47.06.07.13.12.22.13.09.01.18-.01.25-.07l.15.2c-.1.08-.23.12-.36.12Z"/><path class="cls-5" d="M18.79,14.18s-.05,0-.08,0c-.16-.02-.29-.1-.39-.22-.1-.12-.14-.28-.12-.43.02-.16.1-.29.22-.39s.28-.13.43-.12c.16.02.29.1.39.22l-.2.15c-.12-.15-.33-.17-.47-.06-.15.11-.17.33-.06.47.12.15.33.17.47.06l.15.2c-.1.08-.23.12-.36.12Z"/><path class="cls-5" d="M25.38,13.76s-.05,0-.08,0c-.16-.02-.29-.1-.39-.22-.1-.12-.14-.28-.12-.43.02-.16.1-.29.22-.39.12-.1.27-.13.43-.12.16.02.29.1.39.22l-.2.15c-.06-.07-.13-.12-.22-.13-.09-.01-.18.01-.25.07-.15.11-.17.33-.06.47.05.07.13.12.22.13.09,0,.18-.01.25-.07l.15.2c-.1.08-.23.12-.36.12Z"/><path class="cls-5" d="M22.32,8.32c-.18,0-.35-.08-.47-.23-.1-.12-.14-.28-.12-.43.02-.16.1-.29.22-.39.13-.1.28-.14.43-.12.16.02.29.1.39.22l-.2.15c-.06-.07-.13-.12-.22-.13-.09-.01-.18.01-.25.07-.15.11-.17.33-.06.47.11.15.33.17.47.06l.15.2c-.11.08-.23.12-.36.12Z"/></g><g class="cls-7"><path class="cls-5" d="M26.96,31.03c-.15,0-.3-.06-.42-.17-.11-.11-.17-.26-.17-.42,0-.16.06-.3.17-.42.23-.23.6-.23.83,0l-.18.18c-.13-.13-.35-.13-.48,0-.06.06-.1.15-.1.24,0,.09.04.18.1.24.13.13.35.13.48,0l.18.18c-.12.11-.27.17-.42.17Z"/><path class="cls-5" d="M33.44,29.77c-.15,0-.3-.06-.42-.17-.23-.23-.23-.6,0-.83.23-.23.6-.23.83,0l-.18.18c-.13-.13-.35-.13-.48,0-.13.13-.13.35,0,.48.13.13.35.13.48,0l.18.18c-.12.11-.27.17-.42.17Z"/><path class="cls-5" d="M29.7,24.77c-.15,0-.3-.06-.42-.17-.23-.23-.23-.6,0-.83.22-.22.61-.22.83,0l-.18.18c-.13-.13-.35-.13-.48,0-.13.13-.13.35,0,.48.13.13.35.13.48,0l.18.18c-.12.11-.27.17-.42.17Z"/><path class="cls-5" d="M36.6,25.1c-.15,0-.3-.06-.42-.17-.11-.11-.17-.26-.17-.42s.06-.31.17-.42c.23-.23.6-.23.83,0l-.18.18c-.13-.13-.35-.13-.48,0-.06.06-.1.15-.1.24s.04.17.1.24c.13.13.35.13.48,0l.18.18c-.12.11-.27.17-.42.17Z"/><path class="cls-5" d="M43.08,23.84c-.15,0-.3-.06-.42-.17-.23-.23-.23-.6,0-.83.23-.23.6-.23.83,0l-.18.18c-.13-.13-.35-.13-.48,0-.13.13-.13.35,0,.48.13.13.35.13.48,0l.18.18c-.12.11-.27.17-.42.17Z"/><path class="cls-5" d="M39.35,18.84c-.15,0-.3-.06-.42-.17-.23-.23-.23-.6,0-.83.23-.23.6-.23.83,0l-.18.18c-.13-.13-.35-.13-.48,0-.13.13-.13.35,0,.48.13.13.35.13.48,0l.18.18c-.11.11-.27.17-.42.17Z"/></g><g class="cls-7"><path class="cls-5" d="M28.75,8.33c-.15,0-.3-.06-.42-.17-.23-.23-.23-.6,0-.83.23-.23.6-.23.83,0l-.18.18c-.13-.13-.35-.13-.48,0-.13.13-.13.35,0,.48.13.13.35.13.48,0l.18.18c-.12.11-.27.17-.42.17Z"/><path class="cls-5" d="M35.23,7.07c-.16,0-.3-.06-.42-.17-.23-.23-.23-.6,0-.83.23-.23.6-.23.83,0l-.18.18c-.13-.13-.35-.13-.48,0-.13.13-.13.35,0,.48.13.13.35.13.48,0l.18.18c-.11.11-.26.17-.42.17Z"/><path class="cls-5" d="M31.49,2.07c-.15,0-.3-.06-.42-.17-.23-.23-.23-.6,0-.83.23-.23.6-.23.83,0l-.18.18c-.13-.13-.35-.13-.48,0-.13.13-.13.35,0,.48.13.13.35.13.48,0l.18.18c-.12.11-.27.17-.42.17Z"/><path class="cls-5" d="M38.39,3.71c-.15,0-.3-.06-.42-.17-.23-.23-.23-.6,0-.83.23-.23.6-.23.83,0l-.18.18c-.13-.13-.35-.13-.48,0-.13.13-.13.35,0,.48.13.13.35.13.48,0l.18.18c-.11.11-.27.17-.42.17Z"/></g><g class="cls-7"><path class="cls-5" d="M28.2,19.19s-.05,0-.08,0c-.16-.02-.29-.1-.39-.22-.1-.12-.14-.28-.12-.43.02-.16.1-.3.22-.39.12-.09.27-.13.43-.12.16.02.29.1.39.22l-.2.15c-.06-.07-.13-.12-.22-.13-.09-.01-.18.01-.25.07-.07.06-.12.13-.13.22-.01.09.01.18.07.25.06.07.13.12.22.13.09.01.18-.01.25-.07l.15.2c-.1.08-.23.12-.36.12Z"/><path class="cls-5" d="M34.78,18.76s-.05,0-.08,0c-.16-.02-.29-.1-.39-.22-.1-.12-.14-.28-.12-.43.02-.16.1-.29.22-.39.12-.1.28-.14.43-.12.16.02.29.1.39.22l-.2.15c-.06-.07-.13-.12-.22-.13-.09-.01-.18.01-.25.07-.15.11-.17.33-.06.47.06.07.13.12.22.13.09,0,.18-.01.25-.07l.15.2c-.1.08-.23.12-.36.12Z"/><path class="cls-5" d="M31.72,13.33c-.18,0-.35-.08-.47-.23-.1-.12-.14-.28-.12-.43.02-.16.1-.29.22-.39.12-.1.28-.14.43-.12.16.02.29.1.39.22l-.2.15c-.12-.15-.33-.17-.47-.06-.15.11-.17.33-.06.47.06.07.13.12.22.13.09,0,.18-.01.25-.07l.15.2c-.11.08-.23.12-.36.12Z"/><path class="cls-5" d="M38.52,14.53c-.18,0-.35-.08-.47-.23-.1-.12-.14-.28-.12-.43.02-.16.1-.29.22-.39.12-.1.28-.13.43-.12.16.02.29.1.39.22l-.2.15c-.12-.15-.33-.17-.47-.06-.15.11-.17.33-.06.47.11.15.32.18.47.06l.15.2c-.11.08-.23.12-.36.12Z"/><path class="cls-5" d="M45.1,14.11c-.18,0-.35-.08-.47-.23-.1-.12-.14-.28-.12-.43.02-.16.1-.29.22-.39.12-.1.28-.13.43-.12.16.02.29.1.39.22l-.2.15c-.06-.07-.13-.12-.22-.13-.09-.01-.18.01-.25.07-.15.11-.17.33-.06.47.06.07.13.12.22.13.09.01.18-.01.25-.07l.15.2c-.11.08-.23.12-.36.12Z"/><path class="cls-5" d="M42.04,8.68s-.05,0-.08,0c-.16-.02-.29-.1-.39-.22-.1-.12-.14-.28-.12-.43.02-.16.1-.29.22-.39.13-.1.28-.14.43-.12.16.02.29.1.39.22l-.2.15c-.06-.07-.13-.12-.22-.13-.09-.01-.18.01-.25.07-.15.11-.17.33-.06.47.12.15.33.17.47.06l.15.2c-.1.08-.23.12-.36.12Z"/></g><g class="cls-7"><path class="cls-5" d="M27.12,40.36c-.15,0-.3-.06-.42-.17-.11-.11-.17-.26-.17-.42,0-.16.06-.31.17-.42.23-.23.6-.23.83,0l-.18.18c-.13-.13-.35-.13-.48,0-.06.06-.1.15-.1.24,0,.09.04.17.1.24.13.13.35.13.48,0l.18.18c-.12.11-.27.17-.42.17Z"/></g><g class="cls-7"><path class="cls-5" d="M33.59,39.1c-.15,0-.3-.06-.42-.17-.23-.23-.23-.6,0-.83.22-.22.61-.22.83,0l-.18.18c-.13-.13-.35-.13-.48,0s-.13.35,0,.48c.13.13.35.13.48,0l.18.18c-.12.11-.27.17-.42.17Z"/></g><g class="cls-7"><path class="cls-5" d="M7.45,46.41c-.15,0-.3-.06-.42-.17-.23-.23-.23-.6,0-.83.23-.23.6-.23.83,0l-.18.18c-.13-.13-.35-.13-.48,0-.13.13-.13.35,0,.48.13.13.35.13.48,0l.18.18c-.12.11-.27.17-.42.17Z"/></g><g class="cls-7"><path class="cls-5" d="M14.34,46.73c-.15,0-.3-.06-.42-.17-.23-.23-.23-.6,0-.83.23-.23.6-.23.83,0l-.18.18c-.13-.13-.35-.13-.48,0-.13.13-.13.35,0,.48.13.13.35.13.48,0l.18.18c-.12.11-.27.17-.42.17Z"/></g><g class="cls-7"><path class="cls-5" d="M20.82,45.47c-.15,0-.3-.06-.42-.17-.23-.23-.23-.6,0-.83.23-.23.6-.23.83,0l-.18.18c-.13-.13-.35-.13-.48,0-.13.13-.13.35,0,.48.13.13.35.13.48,0l.18.18c-.12.11-.27.17-.42.17Z"/></g><g class="cls-7"><path class="cls-5" d="M19.31,40.55h0c-.16,0-.3-.06-.41-.17-.23-.23-.23-.6,0-.83.23-.23.6-.23.83,0l-.18.18c-.13-.13-.35-.13-.48,0-.13.13-.13.35,0,.48.06.06.15.1.24.1h0c.09,0,.18-.04.24-.1l.18.18c-.11.11-.26.17-.42.17Z"/></g><g class="cls-7"><path class="cls-5" d="M5.94,40.83s-.05,0-.08,0c-.16-.02-.29-.1-.39-.22-.2-.26-.15-.63.11-.82.12-.1.28-.14.43-.12.16.02.29.1.39.22l-.2.15c-.06-.07-.13-.12-.22-.13-.09-.01-.18.01-.25.07-.15.11-.17.33-.06.47.11.15.33.17.47.06l.15.2c-.1.08-.23.12-.36.12Z"/></g><g class="cls-7"><path class="cls-5" d="M12.53,40.4c-.18,0-.35-.08-.46-.23-.1-.12-.14-.28-.12-.43.02-.16.1-.29.22-.39.12-.1.27-.14.43-.12.16.02.29.1.39.22l-.2.15c-.06-.07-.13-.12-.22-.13-.09-.01-.18.01-.25.07-.07.06-.12.13-.13.22s.01.18.07.25c.11.15.33.17.47.06l.15.2c-.11.08-.23.12-.36.12Z"/></g><g class="cls-7"><path class="cls-5" d="M9.47,34.97c-.18,0-.35-.08-.47-.23-.1-.12-.14-.28-.12-.43.02-.16.1-.3.22-.39.25-.2.63-.15.82.11l-.2.15c-.11-.15-.33-.17-.47-.06-.15.11-.17.33-.06.47.06.07.13.12.22.13.09.01.18-.01.25-.07l.15.2c-.11.08-.23.12-.36.12Z"/></g><g class="cls-7"><path class="cls-5" d="M16.26,36.17c-.18,0-.35-.08-.47-.23-.1-.12-.14-.28-.12-.43.02-.16.1-.29.22-.39.25-.2.63-.15.82.11l-.2.15c-.11-.15-.33-.17-.47-.06-.15.11-.17.33-.06.47.11.15.33.17.47.06l.15.2c-.11.08-.23.12-.36.12Z"/></g><g class="cls-7"><path class="cls-5" d="M22.85,35.75s-.05,0-.08,0c-.16-.02-.29-.1-.39-.22-.2-.26-.15-.63.11-.82.25-.2.63-.15.82.11l-.2.15c-.11-.15-.33-.17-.47-.06-.15.11-.17.33-.06.47.06.07.13.12.22.13.09.01.18-.01.25-.07l.15.2c-.1.08-.23.12-.36.12Z"/></g><g class="cls-7"><path class="cls-5" d="M19.79,30.32s-.05,0-.08,0c-.16-.02-.29-.1-.39-.22-.1-.12-.14-.28-.12-.43.02-.16.1-.29.22-.39.12-.1.28-.13.43-.12.16.02.29.1.39.22l-.2.15c-.12-.15-.33-.17-.47-.06-.07.06-.12.13-.13.22-.01.09.01.18.07.25.11.15.33.17.47.06l.15.2c-.1.08-.23.12-.36.12Z"/></g><g class="cls-7"><path class="cls-5" d="M18.22,55.11c-.15,0-.3-.06-.42-.17-.23-.23-.23-.6,0-.83.23-.23.6-.23.83,0l-.18.18c-.13-.13-.35-.13-.48,0-.13.13-.13.35,0,.48.13.13.35.13.48,0l.18.18c-.11.11-.27.17-.42.17Z"/><path class="cls-5" d="M24.7,53.85c-.15,0-.3-.06-.42-.17-.23-.23-.23-.6,0-.83.23-.23.6-.23.83,0l-.18.18c-.13-.13-.35-.13-.48,0-.13.13-.13.35,0,.48.13.13.35.13.48,0l.18.18c-.12.11-.27.17-.42.17Z"/><path class="cls-5" d="M20.97,48.85c-.15,0-.3-.06-.42-.17-.23-.23-.23-.6,0-.83.23-.23.6-.23.83,0l-.18.18c-.13-.13-.35-.13-.48,0-.13.13-.13.35,0,.48.13.13.34.13.48,0l.18.18c-.12.11-.27.17-.42.17Z"/><path class="cls-5" d="M27.86,49.18c-.15,0-.3-.06-.42-.17-.23-.23-.23-.6,0-.83.23-.23.6-.23.83,0l-.18.18c-.13-.13-.35-.13-.48,0-.13.13-.13.35,0,.48.13.13.35.13.48,0l.18.18c-.11.11-.27.17-.42.17Z"/><path class="cls-5" d="M34.34,47.92c-.15,0-.3-.06-.42-.17-.23-.23-.23-.6,0-.83.23-.23.6-.23.83,0l-.18.18c-.13-.13-.35-.13-.48,0-.13.13-.13.35,0,.48.13.13.35.13.48,0l.18.18c-.12.11-.27.17-.42.17Z"/><path class="cls-5" d="M30.61,42.92c-.15,0-.3-.06-.42-.17-.23-.23-.23-.6,0-.83.23-.23.6-.23.83,0l-.18.18c-.13-.13-.35-.13-.48,0-.13.13-.13.35,0,.48.13.13.35.13.48,0l.18.18c-.12.11-.27.17-.42.17Z"/></g><g class="cls-7"><path class="cls-5" d="M15.42,50.86c-.18,0-.35-.08-.47-.23-.2-.26-.15-.63.11-.82.25-.2.63-.15.82.11l-.2.15c-.12-.15-.33-.17-.47-.06-.15.11-.17.33-.06.47.11.15.33.17.47.06l.15.2c-.11.08-.23.12-.36.12Z"/><path class="cls-5" d="M22,50.43s-.05,0-.08,0c-.16-.02-.29-.1-.39-.22-.1-.12-.14-.28-.12-.43.02-.16.1-.29.22-.39.25-.2.63-.15.82.11l-.2.15c-.12-.15-.33-.17-.47-.06-.07.06-.12.13-.13.22-.01.09.01.18.07.25.06.07.13.12.22.13.09.01.18-.01.25-.07l.15.2c-.1.08-.23.12-.36.12Z"/><path class="cls-5" d="M18.94,45s-.05,0-.08,0c-.16-.02-.29-.1-.39-.22-.1-.12-.14-.28-.12-.43.02-.16.1-.29.22-.39.12-.1.27-.13.43-.12.16.02.29.1.39.22l-.2.15c-.12-.15-.33-.17-.47-.06-.07.06-.12.13-.13.22-.01.09.01.18.07.25.06.07.13.12.22.13.09.01.18-.01.25-.07l.15.2c-.1.08-.23.12-.36.12Z"/><path class="cls-5" d="M25.74,46.2s-.05,0-.08,0c-.16-.02-.29-.1-.39-.22-.1-.12-.14-.28-.12-.43.02-.16.1-.29.22-.39.12-.1.28-.13.43-.12.16.02.29.1.39.22l-.2.15c-.12-.15-.33-.17-.47-.06-.07.06-.12.13-.13.22-.01.09.01.18.07.25.12.15.33.17.47.06l.15.2c-.1.08-.23.12-.36.12Z"/><path class="cls-5" d="M32.32,45.78s-.05,0-.08,0c-.16-.02-.3-.1-.39-.22-.2-.26-.15-.63.11-.82.12-.1.27-.14.43-.12.16.02.29.1.39.22l-.2.15c-.06-.07-.13-.12-.22-.13-.09-.01-.18.01-.25.07s-.12.13-.13.22c-.01.09.01.18.07.25.06.07.13.12.22.13.09.01.18-.01.25-.07l.15.2c-.1.08-.23.12-.36.12Z"/><path class="cls-5" d="M29.26,40.35s-.05,0-.08,0c-.16-.02-.29-.1-.39-.22-.1-.12-.14-.28-.12-.43.02-.16.1-.29.22-.39s.28-.13.43-.12c.16.02.29.1.39.22l-.2.15c-.12-.15-.33-.17-.47-.06-.15.11-.17.33-.06.47.12.15.33.17.47.06l.15.2c-.1.08-.23.12-.36.12Z"/></g><g class="cls-7"><path class="cls-5" d="M35.69,40.35c-.16,0-.3-.06-.42-.17-.23-.23-.23-.6,0-.83.23-.23.6-.23.83,0l-.18.18c-.13-.13-.35-.13-.48,0-.13.13-.13.35,0,.48.13.13.35.13.48,0l.18.18c-.11.11-.26.17-.42.17Z"/><path class="cls-5" d="M42.17,39.09c-.15,0-.3-.06-.42-.17-.11-.11-.17-.26-.17-.42,0-.16.06-.3.17-.41.23-.23.6-.23.83,0l-.18.18c-.13-.13-.35-.13-.48,0-.06.06-.1.15-.1.24,0,.09.04.18.1.24.13.13.35.13.48,0l.18.18c-.12.11-.27.17-.42.17Z"/><path class="cls-5" d="M38.44,34.1c-.15,0-.3-.06-.42-.17-.23-.23-.23-.6,0-.83.23-.23.6-.23.83,0l-.18.18c-.13-.13-.35-.13-.48,0-.13.13-.13.35,0,.48.13.13.35.13.48,0l.18.18c-.12.11-.27.17-.42.17Z"/></g></g></g></g></svg>