<?xml version="1.0" encoding="UTF-8"?><svg id="Calque_2" xmlns="http://www.w3.org/2000/svg" viewBox="0 0 68.48 70"><defs><style>.cls-1{fill:#e40309;}.cls-1,.cls-2,.cls-3,.cls-4,.cls-5,.cls-6,.cls-7,.cls-8,.cls-9{stroke-width:0px;}.cls-2{fill:#f7414e;}.cls-3{fill:#d40203;}.cls-4{fill:#f41616;}.cls-5{fill:#f88487;}.cls-6{fill:#ff1f1f;}.cls-7{fill:#498b1f;}.cls-8{fill:#6ca32e;}.cls-9{fill:#ffccd3;}</style></defs><g id="_ÎÓÈ_1"><path class="cls-4" d="M1.43,61.33c2.29.84,4.71,1.5,7.19,2.01,3.46.7,7.06.97,10.54.67,1.75-.15,3.46-.44,5.12-.88,5.19-1.39,9.51-4.77,13.45-8.34,2.82-2.55,5.56-5.36,7.64-8.69,1.6-2.56,2.93-5.31,4.08-8.12.55-1.36,1-2.72,1.46-4.1,1.23-3.75,2.59-8.02,3.42-11.85.26-1.2.32-2.76.5-3.97.31-2.08.79-4.14,1.65-5.32l.68-.54-2.56.64c-1.03,1.41-1.91,3.29-2.28,5.79-.88,5.84-2.67,11.61-4.68,17.15-2.12,5.81-4.8,11.46-8.75,16.28-3.58,4.37-8.24,7.98-13.62,9.72-7.59,2.44-16.55,1.59-24-.92-1.05-.36-1.78,1.05-.87,1.7-.65-.47.05-1.58,1.03-1.22Z"/><path class="cls-4" d="M2.04,63.23c1.82.96,3.7,1.72,5.61,2.6,2.66,1.21,5.5,2.03,8.38,2.43,1.42.2,2.86.29,4.28.29,4.44-.02,8.61-1.57,12.79-2.83,7.73-2.32,14.15-8.05,19.09-14.51,3.81-4.98,6.73-10.59,9.11-16.37,1.16-2.83,1.99-5.6,2.71-8.57.49-2,1.32-6.28,1.63-8,.04-.24-.79-2.24-.76-2.48.04-.24-.32-1.26-.59-2.13l-2.03,1.27c.09.58.15,1.12.11,1.42-.07.48-.99,9.37-1.64,11.81-.68,2.57-1.38,4.99-2.4,7.45-2.07,5.04-4.59,9.93-7.85,14.31-4.22,5.68-9.98,9.99-16.23,13.05-4.07,1.99-8.33,3.84-12.96,4.2-1.49.11-2.99.11-4.49,0-3.04-.23-6.06-.91-8.92-1.99-2.05-.78-4.06-1.52-6-2.45-.75-.36-1.39-.14-1.48-.2.34.24.96.32,1.63.68Z"/><path class="cls-5" d="M34.91,63.92c4.46-2.2,8.35-4.85,11.63-7.92-3.68,3.66-7.57,6.31-11.63,7.92ZM54.96,45.15c1.58-2.74,3.04-5.75,4.41-9.1,1-2.44,1.7-4.8,2.44-7.59.64-2.41,1.67-11.84,1.67-12,.04-.23.03-.54-.02-.95l.2-.12c.05.17,1.07,2.96-.74,10.63-.78,3.3-1.62,5.89-2.66,8.41-1.64,3.99-3.4,7.54-5.31,10.73Z"/><path class="cls-2" d="M68.43,17.67c0,.05-.01.11-.02.17,0-.06.01-.11.02-.17Z"/><path class="cls-3" d="M68.41,17.84c0-.06.01-.12.02-.17.01-.11.03-.22.04-.33l-2.45-4.76-1.72,1.09c.27.87.53,1.9.59,2.13.73,3.05-.39,8.47-.87,10.48-.72,2.97-1.54,5.74-2.71,8.57-2.38,5.79-5.3,11.39-9.11,16.37-4.94,6.46-11.37,12.19-19.09,14.51-4.18,1.26-8.36,2.81-12.79,2.83-1.43,0-2.86-.09-4.28-.29-2.89-.4-5.73-1.22-8.38-2.43-1.91-.87-3.78-1.64-5.61-2.6-.67-.35-1.29-.43-1.63-.68,2.26,1.63,4.6,2.59,6.99,3.9,2.46,1.34,5.11,2.3,7.84,2.87,5.51,1.16,11.33.8,16.7-.87,8.77-2.73,16.3-8.72,21.95-15.96,4.36-5.58,7.68-11.9,10.36-18.44,1.32-3.2,2.3-6.31,3.02-9.69.33-1.56.27-3.51.79-5,0,0,.21-.61.34-1.53Z"/><path class="cls-6" d="M1.58,61.81c2.17.86,4.46,1.56,6.79,2.15,3.26.83,6.67,1.23,10,1.11,1.66-.06,3.31-.25,4.91-.59,5-1.05,9.23-4.02,13.29-6.96,3.89-2.82,7.71-6.03,10.51-10.14,2.15-3.17,3.88-6.63,5.33-10.18.71-1.73,1.23-3.44,1.77-5.22,1.01-3.33,2.27-7.58,2.98-10.88.21-.96.04-2.63.18-3.6.25-1.66.33-3.91,1.01-4.85l.48-.51-.28-.27-1.4.35-.68.54c-.86,1.18-1.33,3.24-1.65,5.32-.18,1.21-.24,2.77-.5,3.97-.84,3.83-2.19,8.09-3.42,11.85-.46,1.39-.91,2.75-1.46,4.1-1.15,2.81-2.47,5.55-4.08,8.12-2.08,3.33-4.83,6.14-7.64,8.69-3.94,3.57-8.26,6.95-13.45,8.34-1.66.44-3.38.73-5.12.88-3.49.29-7.08.03-10.54-.67-2.48-.5-4.9-1.17-7.19-2.01-.98-.36-1.68.75-1.03,1.22-.4-.29.28-1.11,1.18-.75Z"/><path class="cls-9" d="M51.68,34.13c1.64-4.16,2.43-10.04,2.99-14.49.21-1.69.59-2.88,1.2-4.11.22-.45.9-.25.85.24-.18,1.71-2.41,13.59-3.81,17.68-6.03,17.62-13.27,21.31-13.64,21.02-.46-.36,5.09-1.78,12.42-20.35Z"/><path class="cls-1" d="M7.89,65.21c2.86,1.08,5.89,1.76,8.92,1.99,1.5.11,3.01.11,4.49,0,4.62-.36,8.89-2.21,12.96-4.2,6.25-3.06,12.01-7.38,16.23-13.05,3.26-4.38,5.78-9.27,7.85-14.31,1.01-2.46,1.71-4.89,2.4-7.45.65-2.45,1.56-11.33,1.64-11.81.04-.3-.02-.84-.11-1.42l-.34.21-1.92-1.88c-.16,1.04,0,2.7-.15,3.66-.11.73.28,2.5.13,3.23-.58,2.77-1.71,7.03-2.53,9.92-.62,2.17-1.22,4.24-2.08,6.34-1.76,4.3-3.89,8.47-6.59,12.25-3.51,4.9-8.33,8.6-13.37,11.6-4.08,2.43-8.31,4.88-13.12,5.58-1.54.22-3.12.32-4.7.3-3.19-.05-6.4-.6-9.46-1.55-2.2-.69-4.34-1.41-6.4-2.3-.82-.36-1.48.16-1.33.27.09.07.73-.15,1.48.2,1.94.93,3.95,1.67,6,2.45Z"/><path class="cls-4" d="M1.74,62.28c2.06.89,4.2,1.61,6.4,2.3,3.06.96,6.28,1.5,9.46,1.55,1.58.02,3.16-.07,4.7-.3,4.82-.7,9.04-3.15,13.12-5.58,5.04-3,9.86-6.7,13.37-11.6,2.7-3.77,4.83-7.95,6.59-12.25.86-2.1,1.47-4.17,2.08-6.34.82-2.89,1.95-7.15,2.53-9.92.15-.72-.24-2.5-.13-3.23.14-.96-.01-2.62.15-3.66l-1.16-1.14-.48.51c-.69.94-.76,3.19-1.01,4.85-.14.97.02,2.64-.18,3.6-.71,3.3-1.96,7.56-2.98,10.88-.54,1.78-1.07,3.49-1.77,5.22-1.46,3.55-3.18,7.01-5.33,10.18-2.79,4.11-6.61,7.33-10.51,10.14-4.06,2.94-8.28,5.91-13.29,6.96-1.6.33-3.25.53-4.91.59-3.34.12-6.74-.29-10-1.11-2.34-.6-4.62-1.29-6.79-2.15-.9-.36-1.58.46-1.18.75-.16-.11.5-.63,1.33-.27Z"/><path class="cls-8" d="M64.43,0c-.06.53-1,2.62-1.21,3.42-1.44,5.43-3.95,3.25-6.13,6.04-1.44,1.84-2.01,2.73-2.48,3.38l3.96-.99,3.35,3.29.14-.07,3.22-14.82-.85-.27Z"/><path class="cls-7" d="M66.51.65l-1.22-.38-3.22,14.82,3.44-1.58,2.96,3.83c.12-1.46-.69-5.09-2.46-8.62-.83-1.66-1.04-1.36-.53-4.62l1.03-3.44Z"/></g></svg>