<?xml version="1.0" encoding="UTF-8"?><svg id="Calque_2" xmlns="http://www.w3.org/2000/svg" viewBox="0 0 58.45 58.38"><defs><style>.cls-1{fill:#ff3a1a;}.cls-1,.cls-2,.cls-3,.cls-4,.cls-5,.cls-6{stroke-width:0px;}.cls-2{fill:#f8784b;}.cls-3{fill:#ff521d;}.cls-4{fill:#74733d;}.cls-5{fill:#7e9b46;}.cls-6{fill:#a5c45b;}</style></defs><g id="_ÎÓÈ_1"><path class="cls-5" d="M30.47,6.68c0-4.06,0-6.68,0-6.68l-1.24.51v11.31l2.21.43s-.96-1.51-.97-5.57Z"/><path class="cls-6" d="M28.57.79s-.77,2.83-.46,5.56c.31,2.73-1.1,5.05-1.1,5.05l2.21.43V.51l-.66.27Z"/><path class="cls-5" d="M29.23,10.99l-5.51-1.29c-2.29-.54-4.35-1.81-5.86-3.62l-.04-.05c-1.08-1.31-2.46-2.34-4.01-3.01l-.34-.15s2.59,1.41,3.77,4.06c1.18,2.65,2.41,6.1,8.44,6.18,6.03.09,3.55-2.12,3.55-2.12Z"/><path class="cls-5" d="M29.23,13.39s-2.62-.3-5.07-3.58c-2.45-3.29-2.56-6.34-2.56-6.34l.86,1.42c1.24,2.03,2.92,3.74,4.86,5.11.99.7,1.91,1.79,1.91,3.39Z"/><path class="cls-4" d="M29.73,10.99l5.51-1.29c2.29-.54,4.35-1.81,5.85-3.62l.04-.05c1.08-1.31,2.46-2.34,4.01-3.01l.34-.15s-2.59,1.41-3.77,4.06c-1.18,2.65-2.41,6.1-8.44,6.18-6.03.09-3.55-2.12-3.55-2.12Z"/><path class="cls-4" d="M29.73,13.39s2.62-.3,5.07-3.58c2.45-3.29,2.56-6.34,2.56-6.34l-.86,1.42c-1.24,2.03-2.92,3.74-4.86,5.11-.99.7-1.91,1.79-1.91,3.39Z"/><path class="cls-3" d="M29.23,58.38h-4.93C10.88,58.38,0,46.6,0,32.07v-.47C0,20.5,8.39,10.18,18.56,11.51c2.72.36,10.66.94,10.66.94v45.93Z"/><path class="cls-1" d="M29.23,58.38h4.93c13.42,0,24.3-11.78,24.3-26.31v-.47c0-11.1-8.39-21.43-18.56-20.1-2.72.36-10.66.94-10.66.94v45.93Z"/><path class="cls-2" d="M14.61,14.75s-4.83.8-6.92,5.88c-3.06,7.45.59,13.98,4.6,13.53,4-.45,6.44-12.73,6.47-15.19.07-4.89-4.15-4.21-4.15-4.21Z"/></g></svg>