<?xml version="1.0" encoding="UTF-8"?><svg id="Calque_2" xmlns="http://www.w3.org/2000/svg" viewBox="0 0 64.45 66"><defs><style>.cls-1 {
  fill: #8cbf62;
}

.cls-1, .cls-2, .cls-3, .cls-4, .cls-5, .cls-6, .cls-7, .cls-8, .cls-9, .cls-10, .cls-11, .cls-12, .cls-13, .cls-14, .cls-15 {
  stroke-width: 0;
}

.cls-2 {
  fill: #e0f9b7;
}

.cls-3 {
  fill: #deff9f;
}

.cls-4 {
  fill: #74a341;
}

.cls-5 {
  fill: #ceefa3;
}

.cls-6 {
  fill: #8ab557;
}

.cls-7 {
  fill: #bae24b;
}

.cls-8 {
  fill: #7cad4d;
}

.cls-9 {
  fill: #82bf52;
}

.cls-10 {
  fill: #8ece60;
}

.cls-11 {
  fill: #bfe593;
}

.cls-12 {
  fill: #9bc474;
}

.cls-13 {
  fill: #b0d844;
}

.cls-14 {
  fill: #add385;
}

.cls-15 {
  fill: #a2ce78;
}
</style></defs><g id="_ÎÓÈ_1"><path class="cls-10" d="M14.82,40.91L1.19,54.54c-1.71,1.71-1.56,4.62.33,6.52l1.71,1.71,16.72-16.72-5.14-5.14Z"></path><path class="cls-9" d="M19.95,46.05L3.24,62.76l1.71,1.71c1.89,1.89,4.81,2.04,6.52.33l13.63-13.63-5.14-5.14Z"></path><path class="cls-4" d="M5.23,56.61h0c-.25-.26-.27-.64-.04-.86l9.43-9.43.9.9-9.43,9.43c-.22.22-.6.2-.85-.04Z"></path><path class="cls-7" d="M58.73,5.73l-3.57,3.57s-8.4,3.48-7.83-.89c.45-3.46,3.71-5.99,8.75-6.59,1.49-.18,3.67,2.88,2.64,3.91Z"></path><path class="cls-3" d="M35.23,11.31s7.92-7.07,15.46-6.79c7.54.28,10.18-.92,10.18-.92l-19.29,19.29s-16.27-.14-6.35-11.57Z"></path><path class="cls-2" d="M36.84,4.86s4.53-2.66,10.94-2.95c1.58-.07,2.89-.15,3.97-.24,1.38-.11,1.82,1.15.88,2.09l-2.47,2.47s-15.39,20.79-14.21,13.95c1.18-6.84.89-15.31.89-15.31Z"></path><path class="cls-5" d="M38.59,25.87s-5.58-2.58-2.26-8.27c3.32-5.69,10.27-6.68,13.21-6.99,2.94-.31,3.18,1.14,3.18,1.14l-14.12,14.12Z"></path><path class="cls-11" d="M41.16,3.5c.31-1.82-1.38-3.54-3.22-3.31-3.69.48-9.32,1.92-13.44,6.21-6.64,6.92-7.46,15.21-4.38,17.67,3.08,2.46,15.73-2.6,15.73-2.6,0,0,1.79.86,3.5-8.05.84-4.36,1.42-7.67,1.8-9.91Z"></path><path class="cls-14" d="M28.47.51l-4.93,17.66-14.97,7.78s-.43-14.79,10.34-21.42C29.69-2.1,28.47.51,28.47.51Z"></path><path class="cls-14" d="M18.09,28.45s5.46-10.57,16.47-9.68c11,.9,11.35-.22,11.35-.22l-15.66,15.65s-6.79,4.16-8.56,3.04c-1.77-1.12-3.6-8.79-3.6-8.79Z"></path><path class="cls-13" d="M58.73,5.73l-3.57,3.57s-3.49,8.39.88,7.82c3.46-.45,5.99-3.71,6.59-8.75.18-1.5-2.87-3.66-3.9-2.63Z"></path><path class="cls-5" d="M53.14,29.22s7.07-7.92,6.79-15.46.93-10.17.93-10.17l-19.29,19.29s.13,16.26,11.56,6.34Z"></path><path class="cls-15" d="M59.59,27.6s2.66-4.52,2.95-10.94c.07-1.58.16-2.89.24-3.97.11-1.38-1.62-2.28-2.55-1.35l-2.47,2.47s-21.62,15.96-14.78,14.78c6.84-1.18,16.61-.99,16.61-.99Z"></path><path class="cls-12" d="M60.94,23.29c1.82-.31,3.54,1.38,3.31,3.22-.47,3.69-1.92,9.32-6.21,13.44-6.92,6.64-15.21,7.46-17.67,4.38-2.46-3.08,2.6-15.73,2.6-15.73,0,0-.86-1.79,8.05-3.5,4.36-.84,7.67-1.42,9.91-1.8Z"></path><path class="cls-14" d="M38.59,25.87s2.44,5.44,8.13,2.12c5.69-3.32,6.68-10.27,6.99-13.21.31-2.94-1-3.03-1-3.03l-14.12,14.12Z"></path><path class="cls-8" d="M63.94,35.98l-17.66,4.93-7.78,14.97s14.79.43,21.42-10.34c6.63-10.78,4.02-9.55,4.02-9.55Z"></path><path class="cls-15" d="M36,46.36s10.57-5.46,9.68-16.47c-.9-11,.23-11.34.23-11.34l-15.66,15.65s-4.16,6.79-3.04,8.56c1.12,1.77,8.79,3.6,8.79,3.6Z"></path><path class="cls-15" d="M28.45,36l1.62-18.32c.2-1.26-1.1-2.39-2.29-1.99l-18.91,6.35s-1.62,10.18,2.62,13.01c4.24,2.83,16.96.95,16.96.95Z"></path><path class="cls-12" d="M9.85,44.08c-1.65-.9-4.85-4.72-5.11-11.27-.16-4.2,1.48-11.67,3.27-16.94.39-1.14,2.13-.74,2.2.5.23,4.11.98,9.26,3.14,12.53,4.07,6.18,7.24,10.19,4.58,12.03-2.66,1.83-7.53,3.44-8.08,3.14Z"></path><path class="cls-1" d="M8.87,40.86s-.74-3.55,8.55-5.78c3.98-.96,13.14-1.19,13.14-1.19l-17.14,17.14s-5.69-6.26-4.55-10.17Z"></path><path class="cls-6" d="M28.45,36l18.32-1.62c1.26-.2,2.39,1.1,1.99,2.29l-6.35,18.91s-10.18,1.62-13.01-2.62c-2.83-4.24-.95-16.96-.95-16.96Z"></path><path class="cls-4" d="M20.37,54.6c.9,1.65,4.72,4.85,11.27,5.11,4.2.16,11.67-1.48,16.94-3.27,1.14-.39.74-2.13-.5-2.2-4.11-.23-9.26-.98-12.53-3.14-6.18-4.06-10.2-7.24-12.03-4.58s-3.44,7.53-3.14,8.08Z"></path><path class="cls-8" d="M23.59,55.58s3.55.74,5.78-8.55c.96-3.98,1.19-13.14,1.19-13.14l-17.14,17.14s6.26,5.69,10.17,4.55Z"></path></g></svg>