<?xml version="1.0" encoding="UTF-8"?><svg id="Calque_2" xmlns="http://www.w3.org/2000/svg" viewBox="0 0 176.62 210.58"><defs><style>.cls-1 {
  fill: #7f8f39;
}

.cls-1, .cls-2, .cls-3 {
  stroke-width: 0;
}

.cls-2 {
  fill: #d96b0b;
}

.cls-3 {
  fill: #fbf4e4;
}

.cls-4 {
  stroke: #7f8f39;
  stroke-width: 4.22px;
}

.cls-4, .cls-5 {
  fill: none;
  stroke-linecap: round;
  stroke-linejoin: round;
}

.cls-5 {
  stroke: #fbf4e4;
  stroke-width: 3.02px;
}
</style></defs><g id="OBJECTS"><path class="cls-2" d="M155.78,59.87c-10.11-6.1-22.63-7.34-34.27-5.31s-22.52,7.13-32.77,12.99c-2.74,1.56-5.58,3.21-8.49,4.62-20.19-9.27-45.83-11.57-63.21,2.25C2.94,85.63-2.48,105.58,1.04,123.25s14.9,33.05,28.87,44.42c4.94,4.02,10.28,7.66,14.35,12.56,3,3.61,5.22,7.78,7.58,11.84,2.49,10.54,13.92,18.51,27.65,18.51,6.52,0,12.52-1.8,17.29-4.82,2.84,1.17,5.8,2.02,8.86,2.46,11.71,1.68,24.6-3.32,30.64-13.5,7.65-12.9,5.89-28.03,14.71-40.79,7.91-11.44,18.45-21.01,22.84-34.59,6.87-21.28,1.1-47.92-18.05-59.48Z"></path><path class="cls-4" d="M58.74,41.72c13.49,10.38,22.13,26.81,23.04,43.81"></path><path class="cls-1" d="M76.63,63.62c-3.36-16.22,2.73-33.6,16.05-45.79C106,5.65,126.25-1.07,146.02.14c.75,14.22-7.98,30.53-18.66,41.66-10.69,11.13-33.86,19.26-50.72,21.82"></path><polygon class="cls-3" points="49.82 83.86 50.95 85.92 53.01 87.05 50.95 88.18 49.82 90.25 48.69 88.18 46.62 87.05 48.69 85.92 49.82 83.86"></polygon><polygon class="cls-3" points="19.75 122.42 21.28 125.22 24.09 126.76 21.28 128.29 19.75 131.1 18.22 128.29 15.41 126.76 18.22 125.22 19.75 122.42"></polygon><polygon class="cls-3" points="24.09 99.36 24.6 100.3 25.54 100.81 24.6 101.33 24.09 102.27 23.57 101.33 22.63 100.81 23.57 100.3 24.09 99.36"></polygon><polygon class="cls-3" points="70.26 176.08 72.22 179.66 75.8 181.62 72.22 183.58 70.26 187.16 68.3 183.58 64.72 181.62 68.3 179.66 70.26 176.08"></polygon><polygon class="cls-3" points="90.29 174.72 90.77 175.6 91.65 176.08 90.77 176.56 90.29 177.44 89.8 176.56 88.92 176.08 89.8 175.6 90.29 174.72"></polygon><polygon class="cls-3" points="114.82 179.43 116.32 182.17 119.05 183.66 116.32 185.16 114.82 187.89 113.32 185.16 110.59 183.66 113.32 182.17 114.82 179.43"></polygon><polygon class="cls-3" points="106.79 75.8 108.79 79.44 112.43 81.44 108.79 83.43 106.79 87.08 104.8 83.43 101.15 81.44 104.8 79.44 106.79 75.8"></polygon><path class="cls-5" d="M82.32,48.84c1.17-5.59,3.24-10.99,6.11-15.92"></path><path class="cls-5" d="M92.79,27.04c1.22-1.13,2.43-2.26,3.65-3.4"></path><polygon class="cls-3" points="129.47 72.99 130.47 74.81 132.28 75.8 130.47 76.79 129.47 78.61 128.48 76.79 126.66 75.8 128.48 74.81 129.47 72.99"></polygon><polygon class="cls-3" points="159.57 102.54 160.68 104.57 162.71 105.68 160.68 106.79 159.57 108.82 158.46 106.79 156.43 105.68 158.46 104.57 159.57 102.54"></polygon></g><g id="TEXTS"><path class="cls-3" d="M60.08,97.02l-6.75,42.69h-8.84l5.12-31.32-7.55,2.81,1.27-7.88,15.79-6.27.96-.03Z"></path><path class="cls-3" d="M90.97,114.48l-1.1,7.76c-.26,2.03-.71,4.12-1.36,6.25s-1.53,4.11-2.63,5.92c-1.1,1.81-2.47,3.25-4.11,4.34s-3.62,1.6-5.95,1.54c-1.76-.04-3.24-.45-4.44-1.23-1.19-.78-2.16-1.8-2.89-3.06s-1.28-2.68-1.64-4.25c-.36-1.57-.56-3.17-.59-4.8-.04-1.63.03-3.19.19-4.67l1.1-7.79c.29-2.03.76-4.12,1.39-6.25.63-2.14,1.51-4.12,2.62-5.93s2.49-3.26,4.13-4.32c1.64-1.06,3.63-1.57,5.97-1.51,1.75.04,3.22.45,4.42,1.25,1.2.79,2.17,1.82,2.89,3.08.72,1.26,1.26,2.67,1.61,4.22.35,1.55.54,3.15.58,4.79.04,1.64-.03,3.2-.19,4.69ZM80.94,123.5l1.4-10.31c.04-.33.11-.84.22-1.52.11-.68.2-1.45.26-2.31.06-.86.07-1.68.01-2.48s-.22-1.45-.51-1.99c-.29-.54-.74-.82-1.36-.86-.94-.08-1.69.23-2.25.92-.56.69-.99,1.57-1.28,2.62-.29,1.05-.5,2.11-.62,3.16s-.22,1.88-.29,2.46l-1.43,10.31c-.02.33-.08.85-.19,1.54-.11.69-.2,1.47-.28,2.33-.07.86-.08,1.68-.03,2.48s.22,1.46.51,1.99c.28.54.74.83,1.36.89.94.08,1.69-.23,2.25-.94s.99-1.58,1.28-2.64c.29-1.05.5-2.11.63-3.16.13-1.05.23-1.88.3-2.49Z"></path><path class="cls-3" d="M118.96,114.48l-1.1,7.76c-.26,2.03-.71,4.12-1.36,6.25s-1.53,4.11-2.63,5.92c-1.1,1.81-2.47,3.25-4.11,4.34s-3.62,1.6-5.95,1.54c-1.76-.04-3.24-.45-4.44-1.23-1.19-.78-2.16-1.8-2.89-3.06s-1.28-2.68-1.64-4.25c-.36-1.57-.56-3.17-.59-4.8-.04-1.63.03-3.19.19-4.67l1.1-7.79c.29-2.03.76-4.12,1.39-6.25.63-2.14,1.51-4.12,2.62-5.93s2.49-3.26,4.13-4.32c1.64-1.06,3.63-1.57,5.97-1.51,1.75.04,3.22.45,4.42,1.25,1.2.79,2.17,1.82,2.89,3.08.72,1.26,1.26,2.67,1.61,4.22.35,1.55.54,3.15.58,4.79.04,1.64-.03,3.2-.19,4.69ZM108.93,123.5l1.4-10.31c.04-.33.11-.84.22-1.52.11-.68.2-1.45.26-2.31.06-.86.07-1.68.01-2.48s-.22-1.45-.51-1.99c-.29-.54-.74-.82-1.36-.86-.94-.08-1.69.23-2.25.92-.56.69-.99,1.57-1.28,2.62-.29,1.05-.5,2.11-.62,3.16s-.22,1.88-.29,2.46l-1.43,10.31c-.02.33-.08.85-.19,1.54-.11.69-.2,1.47-.28,2.33-.07.86-.08,1.68-.03,2.48s.22,1.46.51,1.99c.28.54.74.83,1.36.89.94.08,1.69-.23,2.25-.94s.99-1.58,1.28-2.64c.29-1.05.5-2.11.63-3.16.13-1.05.23-1.88.3-2.49Z"></path><path class="cls-3" d="M123.71,118.24l.22-1.5c.15-.89.43-1.78.85-2.68.42-.9.98-1.66,1.66-2.28.69-.62,1.53-.93,2.52-.93s1.74.32,2.24.95c.5.63.83,1.4.99,2.31.16.91.18,1.78.05,2.62l-.26,1.5c-.14.86-.41,1.74-.82,2.64s-.95,1.66-1.62,2.28c-.67.62-1.5.93-2.49.93s-1.75-.31-2.28-.94c-.53-.62-.87-1.39-1.03-2.29-.16-.9-.18-1.77-.05-2.61ZM124.87,116.73l-.22,1.5c-.11.65-.12,1.35-.02,2.1.1.75.34,1.39.72,1.92.38.53.96.79,1.75.78.78-.01,1.44-.27,1.98-.77.54-.5.98-1.12,1.31-1.87.34-.74.57-1.46.69-2.15l.24-1.52c.11-.64.12-1.33.04-2.09-.08-.75-.31-1.4-.69-1.93-.38-.53-.96-.81-1.73-.82-.78,0-1.45.26-2,.77-.55.51-1,1.15-1.34,1.9-.34.76-.59,1.48-.74,2.17ZM139.73,114.95l-14.36,22.15-.62-.61,14.31-22.17.68.62ZM132.51,134.25l.24-1.52c.16-.86.44-1.74.85-2.64s.95-1.66,1.62-2.28c.68-.62,1.52-.93,2.51-.93.99-.01,1.75.29,2.26.92.51.62.85,1.39,1,2.3.15.91.16,1.78.03,2.62l-.2,1.52c-.16.86-.44,1.74-.84,2.65-.4.91-.94,1.67-1.62,2.29-.67.62-1.5.93-2.48.93s-1.74-.31-2.27-.94-.88-1.39-1.04-2.3c-.16-.91-.18-1.78-.05-2.62ZM133.68,132.71l-.28,1.52c-.12.65-.14,1.35-.05,2.11.09.76.34,1.4.74,1.93.4.53,1,.81,1.79.82.77-.01,1.43-.28,1.97-.8.54-.52.98-1.15,1.3-1.89s.55-1.45.69-2.13l.24-1.54c.11-.66.13-1.37.06-2.12-.07-.75-.29-1.39-.67-1.91-.38-.53-.98-.8-1.8-.81-.78,0-1.45.26-1.99.77-.54.51-.98,1.14-1.3,1.88s-.56,1.46-.71,2.17Z"></path><path class="cls-3" d="M78.95,156.09c0,4.2-3.13,7.33-6.79,7.33-1.71,0-3.11-.51-3.85-1.91l-.33,1.68h-5.02l3.46-17.32h5.28l-1.07,5.42c.84-.7,1.87-1.1,3.08-1.1,2.54,0,5.25,2.1,5.25,5.91ZM73.61,156.35c0-1.19-.7-2.01-1.89-2.01-1.38,0-2.31,1.14-2.31,2.92,0,1.19.7,2.01,1.89,2.01,1.38,0,2.31-1.14,2.31-2.92Z"></path><path class="cls-3" d="M81.84,150.42h5.25l-2.54,12.77h-5.25l2.54-12.77ZM82.05,146.89c0-1.63,1.33-2.87,3.36-2.87,1.84,0,2.99,1,2.99,2.4,0,1.75-1.33,2.96-3.36,2.96-1.84,0-2.99-1.1-2.99-2.5Z"></path><path class="cls-3" d="M87.44,157.51c0-4.2,3.32-7.33,7.96-7.33,4.23,0,6.93,2.33,6.93,5.91,0,4.2-3.31,7.33-7.96,7.33-4.23,0-6.93-2.33-6.93-5.91ZM96.99,156.35c0-1.19-.7-2.01-1.89-2.01-1.38,0-2.31,1.14-2.31,2.92,0,1.19.7,2.01,1.89,2.01,1.38,0,2.31-1.14,2.31-2.92Z"></path></g></svg>