<?xml version="1.0" encoding="UTF-8"?><svg id="Calque_2" xmlns="http://www.w3.org/2000/svg" viewBox="0 0 70 58.06"><defs><style>.cls-1 {
  fill: #9fd174;
}

.cls-1, .cls-2, .cls-3, .cls-4, .cls-5, .cls-6, .cls-7, .cls-8, .cls-9, .cls-10, .cls-11 {
  stroke-width: 0;
}

.cls-2 {
  fill: #a3d875;
}

.cls-3 {
  fill: #c5f49d;
}

.cls-4 {
  fill: #f0f0f0;
}

.cls-5 {
  fill: #abde82;
}

.cls-6 {
  fill: #9ad367;
}

.cls-7 {
  fill: #dee2d9;
}

.cls-8 {
  fill: #94c95d;
}

.cls-9 {
  fill: #f9f9f9;
}

.cls-10 {
  fill: #fff;
}

.cls-11 {
  fill: #bde897;
}
</style></defs><g id="_ÎÓÈ_1"><g id="_ÎÓÈ_2_2_"><rect class="cls-4" x="35" y="5" width="7.86" height="36.35"></rect><path class="cls-5" d="M35,58.06s4.02-6.24,5-9.29c.98-3.05.14-7.42.14-7.42l-5.14-2.94v19.64Z"></path><path class="cls-1" d="M62.86,48.77s-5.71-1.43-7.86,1.43c-2.14,2.86-12.27,3.58-12.14-.89.13-4.47-6.91-11.43-6.91-11.43l6.91-2.06s9.68,3.1,13.57,7.86c3.89,4.76,6.43,5.1,6.43,5.1Z"></path><path class="cls-2" d="M70,31.99s0,13.73-10,11.69c-10-2.04-15.92-5.74-15.92-5.74,0,0,.21-5.92.92-7.95.71-2.03,14.48.21,17.6,2,3.11,1.79,7.4,0,7.4,0Z"></path><path class="cls-8" d="M49.4,33.06s17.38-.36,18.1-7.14c.71-6.79-4.64-15.92-4.64-15.92,0,0-8.93-6.23-12.14,10.2-1.61,8.21-1.11,8.48-.14,6.56.97-1.92,2.43-6.03,2.74-6.56.61-1.07,9.33-15.36,3.72-17.68-5.61-2.32-14.18-6.61-14.18,7.68s2.14,2.14,2.14,2.14l4.4,20.71Z"></path><path class="cls-7" d="M47.14,30.02c0,4.34,3.52,7.86,7.86,7.86s7.86-3.52,7.86-7.86-3.52-7.86-7.86-7.86-7.86,3.52-7.86,7.86Z"></path><path class="cls-4" d="M37.86,22.17c0,4.34,3.52,7.86,7.86,7.86s7.86-3.52,7.86-7.86-3.52-7.86-7.86-7.86-7.86,3.52-7.86,7.86Z"></path><path class="cls-7" d="M47.14,20.2c0,4.34,3.52,7.86,7.86,7.86s7.86-3.52,7.86-7.86-3.52-7.86-7.86-7.86-7.86,3.52-7.86,7.86Z"></path><path class="cls-7" d="M37.86,10.38c0,4.34,3.52,7.86,7.86,7.86s7.86-3.52,7.86-7.86-3.52-7.86-7.86-7.86-7.86,3.52-7.86,7.86Z"></path><path class="cls-7" d="M37.86,35.82c0,4.34,3.52,7.86,7.86,7.86s7.86-3.52,7.86-7.86-3.52-7.86-7.86-7.86-7.86,3.52-7.86,7.86Z"></path><path class="cls-7" d="M35.09,39.84c-.67,3.52,2.36,6.55,5.89,5.89,1.97-.37,3.56-1.96,3.93-3.93.67-3.52-2.36-6.55-5.89-5.89-1.97.37-3.56,1.96-3.93,3.93Z"></path><path class="cls-7" d="M35.09,4.02c-.67,3.52,2.36,6.55,5.89,5.89,1.97-.37,3.56-1.96,3.93-3.93.67-3.52-2.36-6.55-5.89-5.89-1.97.37-3.56,1.96-3.93,3.93Z"></path><path class="cls-7" d="M48.66,11.37c-.67,3.52,2.36,6.55,5.89,5.89,1.97-.37,3.56-1.96,3.93-3.93.67-3.52-2.36-6.55-5.89-5.89-1.97.37-3.56,1.96-3.93,3.93Z"></path><path class="cls-4" d="M36.07,27.96c0,4.34,3.52,7.86,7.86,7.86s7.86-3.52,7.86-7.86-3.52-7.86-7.86-7.86-7.86,3.52-7.86,7.86Z"></path><circle class="cls-4" cx="50.5" cy="20.2" r="5"></circle><path class="cls-4" d="M36.02,16.56c0,3.05,2.47,5.52,5.52,5.52s5.52-2.47,5.52-5.52-2.47-5.52-5.52-5.52-5.52,2.47-5.52,5.52Z"></path><rect class="cls-4" x="27.14" y="5" width="7.86" height="36.35"></rect><path class="cls-3" d="M35,58.06s-4.02-6.24-5-9.29c-.98-3.05-.14-7.42-.14-7.42l5.14-2.94v19.64Z"></path><path class="cls-11" d="M7.14,48.77s5.71-1.43,7.86,1.43c2.14,2.86,12.27,3.58,12.14-.89-.13-4.47,6.91-11.43,6.91-11.43l-6.91-2.06s-9.68,3.1-13.57,7.86c-3.89,4.76-6.43,5.1-6.43,5.1Z"></path><path class="cls-5" d="M0,31.99s0,13.73,10,11.69c10-2.04,15.92-5.74,15.92-5.74,0,0-.21-5.92-.92-7.95-.71-2.03-14.49.21-17.6,2-3.11,1.79-7.4,0-7.4,0Z"></path><path class="cls-6" d="M20.6,33.06s-17.38-.36-18.1-7.14c-.71-6.79,4.64-15.92,4.64-15.92,0,0,8.93-6.23,12.14,10.2,1.61,8.21,1.11,8.48.14,6.56-.97-1.92-2.43-6.03-2.74-6.56-.61-1.07-9.33-15.36-3.72-17.68,5.61-2.32,14.18-6.61,14.18,7.68s-2.14,2.14-2.14,2.14l-4.4,20.71Z"></path><path class="cls-4" d="M22.86,30.02c0,4.34-3.52,7.86-7.86,7.86s-7.86-3.52-7.86-7.86,3.52-7.86,7.86-7.86,7.86,3.52,7.86,7.86Z"></path><path class="cls-4" d="M32.14,22.17c0,4.34-3.52,7.86-7.86,7.86s-7.86-3.52-7.86-7.86,3.52-7.86,7.86-7.86,7.86,3.52,7.86,7.86Z"></path><path class="cls-4" d="M22.86,20.2c0,4.34-3.52,7.86-7.86,7.86s-7.86-3.52-7.86-7.86,3.52-7.86,7.86-7.86,7.86,3.52,7.86,7.86Z"></path><path class="cls-4" d="M32.14,10.38c0,4.34-3.52,7.86-7.86,7.86s-7.86-3.52-7.86-7.86,3.52-7.86,7.86-7.86,7.86,3.52,7.86,7.86Z"></path><path class="cls-4" d="M32.14,35.82c0,4.34-3.52,7.86-7.86,7.86s-7.86-3.52-7.86-7.86,3.52-7.86,7.86-7.86,7.86,3.52,7.86,7.86Z"></path><path class="cls-4" d="M34.91,39.84c.67,3.52-2.36,6.55-5.89,5.89-1.97-.37-3.56-1.96-3.93-3.93-.67-3.52,2.36-6.55,5.89-5.89,1.97.37,3.56,1.96,3.93,3.93Z"></path><path class="cls-4" d="M34.91,4.02c.67,3.52-2.36,6.55-5.89,5.89-1.97-.37-3.56-1.96-3.93-3.93-.67-3.52,2.36-6.55,5.89-5.89,1.97.37,3.56,1.96,3.93,3.93Z"></path><path class="cls-4" d="M21.34,11.37c.67,3.52-2.36,6.55-5.89,5.89-1.97-.37-3.56-1.96-3.93-3.93-.67-3.52,2.36-6.55,5.89-5.89,1.97.37,3.56,1.96,3.93,3.93Z"></path><path class="cls-9" d="M33.93,27.96c0,4.34-3.52,7.86-7.86,7.86s-7.86-3.52-7.86-7.86,3.52-7.86,7.86-7.86,7.86,3.52,7.86,7.86Z"></path><circle class="cls-9" cx="19.5" cy="20.2" r="5"></circle><path class="cls-9" d="M33.98,16.56c0,3.05-2.47,5.52-5.52,5.52s-5.52-2.47-5.52-5.52,2.47-5.52,5.52-5.52,5.52,2.47,5.52,5.52Z"></path></g><path class="cls-4" d="M36.18,15.38c1.92-.52,3.33-2.26,3.33-4.34,0-2.49-2.02-4.51-4.51-4.51v8.67c.41,0,.8.07,1.18.18Z"></path><path class="cls-9" d="M35,6.53c-2.49,0-4.51,2.02-4.51,4.51,0,2.08,1.42,3.81,3.33,4.34.38-.1.77-.18,1.18-.18V6.53Z"></path><path class="cls-9" d="M35,19.45c1.61,0,3.12.45,4.41,1.22.07-.31.11-.63.11-.95,0-2.08-1.42-3.81-3.33-4.34-.38.1-.77.18-1.18.18v3.89Z"></path><path class="cls-10" d="M35,15.56c-.41,0-.8-.07-1.18-.18-1.91.52-3.33,2.26-3.33,4.34,0,.33.04.65.11.95,1.29-.77,2.79-1.22,4.41-1.22v-3.89Z"></path><path class="cls-9" d="M35,15.2c-.41,0-.8.07-1.18.18.38.1.77.18,1.18.18v-.35Z"></path><path class="cls-9" d="M35,15.56c.41,0,.8-.07,1.18-.18-.38-.1-.77-.18-1.18-.18v.35Z"></path><path class="cls-4" d="M35,41.48c2.49,0,4.51-2.02,4.51-4.51,0-.5-.1-.98-.25-1.43-1.26.72-2.71,1.13-4.26,1.13v4.81Z"></path><path class="cls-9" d="M30.74,35.54c-.15.45-.25.92-.25,1.43,0,2.49,2.02,4.51,4.51,4.51v-4.81c-1.55,0-3-.42-4.26-1.13Z"></path><path class="cls-9" d="M43.61,28.06c0-3.14-1.69-5.89-4.21-7.39-.44,2.03-2.24,3.56-4.41,3.56v8.22c1.99,0,3.66,1.3,4.26,3.09,2.6-1.48,4.35-4.27,4.35-7.48Z"></path><path class="cls-10" d="M35,32.45v-8.22c-2.16,0-3.97-1.53-4.41-3.56-2.52,1.5-4.21,4.25-4.21,7.39s1.75,6,4.35,7.48c.6-1.79,2.27-3.09,4.26-3.09Z"></path><path class="cls-9" d="M35,24.23c2.16,0,3.97-1.53,4.41-3.56-1.29-.77-2.79-1.22-4.41-1.22v4.78Z"></path><path class="cls-10" d="M35,24.23v-4.78c-1.61,0-3.12.45-4.41,1.22.44,2.03,2.24,3.56,4.41,3.56Z"></path><path class="cls-9" d="M35,32.45v4.22c1.55,0,3-.42,4.26-1.13-.6-1.79-2.27-3.09-4.26-3.09Z"></path><path class="cls-10" d="M35,32.45c-1.99,0-3.66,1.3-4.26,3.09,1.26.72,2.71,1.13,4.26,1.13v-4.22Z"></path><path class="cls-10" d="M32.87,19.45c0,1.88-1.52,3.4-3.4,3.4s-3.4-1.52-3.4-3.4,1.52-3.4,3.4-3.4,3.4,1.52,3.4,3.4Z"></path><circle class="cls-10" cx="27.14" cy="24.23" r="3.4"></circle><circle class="cls-9" cx="42.26" cy="20.79" r="3.44"></circle><circle class="cls-9" cx="42.26" cy="26.62" r="3.44"></circle><circle class="cls-9" cx="41.55" cy="30.06" r="3.44"></circle><path class="cls-10" d="M31.83,28.51c.46,2.42-1.63,4.51-4.05,4.05-1.35-.26-2.45-1.36-2.7-2.7-.46-2.42,1.63-4.51,4.05-4.05,1.35.25,2.45,1.36,2.7,2.7Z"></path></g></svg>