<?xml version="1.0" encoding="UTF-8"?>
<svg xmlns="http://www.w3.org/2000/svg" version="1.1" viewBox="0 0 610.8 290.1">
  <defs>
    <style>.cls-1 {
  font-size: 113.7px;
}

.cls-1, .cls-2, .cls-3, .cls-4, .cls-5, .cls-6 {
  fill: #fbf4e4;
}

.cls-1, .cls-3, .cls-4, .cls-7, .cls-5, .cls-6 {
  isolation: isolate;
}

.cls-1, .cls-3, .cls-4, .cls-5, .cls-6 {
  font-style: italic;
}

.cls-1, .cls-3, .cls-4, .cls-6 {
  font-family: RobotoCondensed-BoldItalic, Roboto Condensed;
  font-weight: 700;
}

.cls-2, .cls-8, .cls-9, .cls-10 {
  stroke-width: 0;
}

.cls-11 {
  stroke: #fbf4e4;
  stroke-width: 2.7px;
}

.cls-11, .cls-12 {
  fill: none;
  stroke-linecap: round;
  stroke-linejoin: round;
}

.cls-3 {
  letter-spacing: 0;
}

.cls-3, .cls-6 {
  font-size: 152.2px;
}

.cls-8 {
  fill: #6c8a2c;
}

.cls-4 {
  letter-spacing: 0;
  font-size: 274.4px;
}

.cls-9 {
  fill: #4f7302;
}

.cls-12 {
  stroke: #6c8a2c;
  stroke-width: 3.8px;
}

.cls-5 {
  font-family: RobotoCondensed-LightItalic, Roboto Condensed;
  font-size: 52.6px;
  font-weight: 300;
}

.cls-10 {
  fill: #fff;
}
</style>
  </defs>
  <g id="Calque_2" data-name="Calque 2">
    <g id="Calque_1-2" data-name="Calque 1-2">
      <g class="cls-7">
        <text class="cls-3" transform="translate(-630.8 133.8)"><tspan x="0" y="0">f</tspan></text>
        <text class="cls-6" transform="translate(-583.6 133.8)"><tspan x="0" y="0">erme</tspan></text>
      </g>
      <g class="cls-7">
        <text class="cls-1" transform="translate(-601.8 259.3)"><tspan x="0" y="0">maison</tspan></text>
      </g>
      <g class="cls-7">
        <text class="cls-5" transform="translate(-566 45)"><tspan x="0" y="0">de la</tspan></text>
      </g>
      <g class="cls-7">
        <text class="cls-5" transform="translate(-394.6 182.5)"><tspan x="0" y="0">à la</tspan></text>
      </g>
      <circle class="cls-10" cx="-147.5" cy="131.8" r="127.5"></circle>
      <path class="cls-9" d="M-79.6,156.1c.6-2.3,1-4.7,1.1-7.1.4-7.5-1.6-15-.6-22.5,1.4-10.1,8-18.7,11.8-28.1,6.6-16.2,4.5-35.7-5.2-49.4-9.8-13.7-26.8-21.1-43.3-18.9-16.5,2.3-31.7,14.2-38.7,30.3-2.3,5.2-4.3,11.5-9.4,13.4-3.5,1.3-7.3,0-10.9-.8-29-7.1-61.2,16.8-63,48.8-.4,7.2.7,14.4,3.2,21.1,5.1,13.2,16.1,23.6,29.2,27.6,3.7,1.1,8.2,2,11.1,5,3.1,3.3,2.6,7.8,2.6,12.2,0,14,8.7,27.3,21.1,31.9s27.6.4,36.6-10.3c5.4-6.5,8.7-14.9,15.2-20.3,6.5-5.4,15.3-6.7,22.6-10.9,8-4.6,14.1-12.8,16.5-22h0Z"></path>
      <path class="cls-8" d="M-156.7,181.1c-5.6,7.7-11.8,15.8-15.5,24.4-1.7,4.2-2.9,8.5-4,13.2-1,4.6-2,9.5-2.9,14.3-1.1,5.7-6.6,9.4-12.3,8.4-6.8-1.2-10.6-9-7.4-15.1,4.8-9.3,9.4-18.9,16.1-27.2,6.8-8.3,15-14.2,23.2-20.6,1.8-1.3,4.1.9,2.7,2.7h0Z"></path>
      <path class="cls-12" d="M-169.4,191.4c12.9,2.3,27.8,1.2,43.7-16.9"></path>
      <path class="cls-12" d="M-176.8,201.4c-5-6.1-5.7-15.4-1.6-22.2"></path>
      <polygon class="cls-2" points="-198.5 146.6 -197.8 147.9 -196.5 148.6 -197.8 149.3 -198.5 150.6 -199.3 149.3 -200.6 148.6 -199.3 147.9 -198.5 146.6"></polygon>
      <polygon class="cls-2" points="-189.7 135.8 -188.4 138.2 -186 139.5 -188.4 140.8 -189.7 143.2 -191 140.8 -193.3 139.5 -191 138.2 -189.7 135.8"></polygon>
      <polygon class="cls-2" points="-219.3 144 -218.8 145 -217.8 145.5 -218.8 146 -219.3 146.9 -219.8 146 -220.7 145.5 -219.8 145 -219.3 144"></polygon>
      <polygon class="cls-2" points="-139.8 72 -138.7 74 -136.8 75 -138.7 76.1 -139.8 78.1 -140.9 76.1 -142.8 75 -140.9 74 -139.8 72"></polygon>
      <polygon class="cls-2" points="-113.4 50.9 -112.3 52.9 -110.3 54 -112.3 55.1 -113.4 57.1 -114.5 55.1 -116.5 54 -114.5 52.9 -113.4 50.9"></polygon>
      <polygon class="cls-2" points="-86 84.4 -85.6 85.1 -84.9 85.5 -85.6 85.9 -86 86.6 -86.3 85.9 -87 85.5 -86.3 85.1 -86 84.4"></polygon>
      <polygon class="cls-2" points="-101.1 144.4 -100.2 146 -98.6 146.9 -100.2 147.8 -101.1 149.5 -102 147.8 -103.7 146.9 -102 146 -101.1 144.4"></polygon>
      <polygon class="cls-2" points="-99.2 160.3 -98.7 161.4 -97.6 161.9 -98.7 162.5 -99.2 163.5 -99.8 162.5 -100.8 161.9 -99.8 161.4 -99.2 160.3"></polygon>
      <polygon class="cls-2" points="-181.1 84.6 -180.4 85.9 -179.1 86.6 -180.4 87.3 -181.1 88.6 -181.8 87.3 -183.1 86.6 -181.8 85.9 -181.1 84.6"></polygon>
      <polygon class="cls-2" points="-84.9 102.2 -84.1 103.6 -82.6 104.5 -84.1 105.3 -84.9 106.8 -85.7 105.3 -87.2 104.5 -85.7 103.6 -84.9 102.2"></polygon>
      <path class="cls-11" d="M-194.7,233.9c-.8-4.4.4-9,3.2-12.5"></path>
    </g>
    <g id="Calque_1-2-2" data-name="Calque 1-2">
      <g class="cls-7">
        <text class="cls-3" transform="translate(-348 -378.2)"><tspan x="0" y="0">f</tspan></text>
        <text class="cls-6" transform="translate(-300.8 -378.2)"><tspan x="0" y="0">erme</tspan></text>
      </g>
      <g class="cls-7">
        <text class="cls-1" transform="translate(-319 -252.7)"><tspan x="0" y="0">maison</tspan></text>
      </g>
      <g class="cls-7">
        <text class="cls-5" transform="translate(-283.2 -467)"><tspan x="0" y="0">de la</tspan></text>
      </g>
      <g class="cls-7">
        <text class="cls-5" transform="translate(-111.9 -329.5)"><tspan x="0" y="0">à la</tspan></text>
      </g>
      <circle class="cls-10" cx="135.3" cy="-380.2" r="127.5"></circle>
      <path class="cls-9" d="M203.2-355.9c.6-2.3,1-4.7,1.1-7.1.4-7.5-1.6-15-.6-22.5,1.4-10.1,8-18.7,11.8-28.1,6.6-16.2,4.5-35.7-5.2-49.4-9.8-13.7-26.8-21.1-43.3-18.9-16.5,2.3-31.7,14.2-38.7,30.3-2.3,5.2-4.3,11.5-9.4,13.4-3.5,1.3-7.3,0-10.9-.8-29-7.1-61.2,16.8-63,48.8-.4,7.2.7,14.4,3.2,21.1,5.1,13.2,16.1,23.6,29.2,27.6,3.7,1.1,8.2,2,11.1,5,3.1,3.3,2.6,7.8,2.6,12.2,0,14,8.7,27.3,21.1,31.9s27.6.4,36.6-10.3c5.4-6.5,8.7-14.9,15.2-20.3,6.5-5.4,15.3-6.7,22.6-10.9,8-4.6,14.1-12.8,16.5-22h0Z"></path>
      <path class="cls-8" d="M126.1-330.9c-5.6,7.7-11.8,15.8-15.5,24.4-1.7,4.2-2.9,8.5-4,13.2-1,4.6-2,9.5-2.9,14.3-1.1,5.7-6.6,9.4-12.3,8.4-6.8-1.2-10.6-9-7.4-15.1,4.8-9.3,9.4-18.9,16.1-27.2,6.8-8.3,15-14.2,23.2-20.6,1.8-1.3,4.1.9,2.7,2.7h0Z"></path>
      <path class="cls-12" d="M113.4-320.6c12.9,2.3,27.8,1.2,43.7-16.9"></path>
      <path class="cls-12" d="M106-310.6c-5-6.1-5.7-15.4-1.6-22.2"></path>
      <polygon class="cls-2" points="84.3 -365.4 85 -364.1 86.3 -363.4 85 -362.7 84.3 -361.4 83.5 -362.7 82.2 -363.4 83.5 -364.1 84.3 -365.4"></polygon>
      <polygon class="cls-2" points="93.1 -376.2 94.4 -373.8 96.8 -372.5 94.4 -371.2 93.1 -368.8 91.8 -371.2 89.5 -372.5 91.8 -373.8 93.1 -376.2"></polygon>
      <polygon class="cls-2" points="63.5 -368 64 -367 65 -366.5 64 -366 63.5 -365.1 63 -366 62.1 -366.5 63 -367 63.5 -368"></polygon>
      <polygon class="cls-2" points="143 -440 144.1 -438 146 -437 144.1 -435.9 143 -433.9 141.9 -435.9 140 -437 141.9 -438 143 -440"></polygon>
      <polygon class="cls-2" points="169.4 -461.1 170.5 -459.1 172.5 -458 170.5 -456.9 169.4 -454.9 168.3 -456.9 166.3 -458 168.3 -459.1 169.4 -461.1"></polygon>
      <polygon class="cls-2" points="196.8 -427.6 197.2 -426.9 197.9 -426.5 197.2 -426.1 196.8 -425.4 196.5 -426.1 195.8 -426.5 196.5 -426.9 196.8 -427.6"></polygon>
      <polygon class="cls-2" points="181.7 -367.6 182.6 -366 184.2 -365.1 182.6 -364.2 181.7 -362.5 180.8 -364.2 179.1 -365.1 180.8 -366 181.7 -367.6"></polygon>
      <polygon class="cls-2" points="183.6 -351.7 184.1 -350.6 185.2 -350.1 184.1 -349.5 183.6 -348.5 183 -349.5 182 -350.1 183 -350.6 183.6 -351.7"></polygon>
      <polygon class="cls-2" points="101.7 -427.4 102.4 -426.1 103.7 -425.4 102.4 -424.7 101.7 -423.4 101 -424.7 99.7 -425.4 101 -426.1 101.7 -427.4"></polygon>
      <polygon class="cls-2" points="197.9 -409.8 198.7 -408.4 200.2 -407.5 198.7 -406.7 197.9 -405.2 197.1 -406.7 195.6 -407.5 197.1 -408.4 197.9 -409.8"></polygon>
      <path class="cls-11" d="M88.1-278.1c-.8-4.4.4-9,3.2-12.5"></path>
    </g>
  </g>
  <g id="Calque_2_-_copie" data-name="Calque 2 - copie">
    <g id="Calque_1-2-3" data-name="Calque 1-2">
      <g class="cls-7">
        <text class="cls-3" transform="translate(-630.8 133.8)"><tspan x="0" y="0">f</tspan></text>
        <text class="cls-6" transform="translate(-583.6 133.8)"><tspan x="0" y="0">erme</tspan></text>
      </g>
      <g class="cls-7">
        <text class="cls-1" transform="translate(-601.8 259.3)"><tspan x="0" y="0">maison</tspan></text>
      </g>
      <g class="cls-7">
        <text class="cls-5" transform="translate(-566 45)"><tspan x="0" y="0">de la</tspan></text>
      </g>
      <g class="cls-7">
        <text class="cls-5" transform="translate(-394.6 182.5)"><tspan x="0" y="0">à la</tspan></text>
      </g>
      <circle class="cls-10" cx="-147.5" cy="131.8" r="127.5"></circle>
      <path class="cls-9" d="M-79.6,156.1c.6-2.3,1-4.7,1.1-7.1.4-7.5-1.6-15-.6-22.5,1.4-10.1,8-18.7,11.8-28.1,6.6-16.2,4.5-35.7-5.2-49.4-9.8-13.7-26.8-21.1-43.3-18.9-16.5,2.3-31.7,14.2-38.7,30.3-2.3,5.2-4.3,11.5-9.4,13.4-3.5,1.3-7.3,0-10.9-.8-29-7.1-61.2,16.8-63,48.8-.4,7.2.7,14.4,3.2,21.1,5.1,13.2,16.1,23.6,29.2,27.6,3.7,1.1,8.2,2,11.1,5,3.1,3.3,2.6,7.8,2.6,12.2,0,14,8.7,27.3,21.1,31.9s27.6.4,36.6-10.3c5.4-6.5,8.7-14.9,15.2-20.3,6.5-5.4,15.3-6.7,22.6-10.9,8-4.6,14.1-12.8,16.5-22h0Z"></path>
      <path class="cls-8" d="M-156.7,181.1c-5.6,7.7-11.8,15.8-15.5,24.4-1.7,4.2-2.9,8.5-4,13.2-1,4.6-2,9.5-2.9,14.3-1.1,5.7-6.6,9.4-12.3,8.4-6.8-1.2-10.6-9-7.4-15.1,4.8-9.3,9.4-18.9,16.1-27.2,6.8-8.3,15-14.2,23.2-20.6,1.8-1.3,4.1.9,2.7,2.7h0Z"></path>
      <path class="cls-12" d="M-169.4,191.4c12.9,2.3,27.8,1.2,43.7-16.9"></path>
      <path class="cls-12" d="M-176.8,201.4c-5-6.1-5.7-15.4-1.6-22.2"></path>
      <polygon class="cls-2" points="-198.5 146.6 -197.8 147.9 -196.5 148.6 -197.8 149.3 -198.5 150.6 -199.3 149.3 -200.6 148.6 -199.3 147.9 -198.5 146.6"></polygon>
      <polygon class="cls-2" points="-189.7 135.8 -188.4 138.2 -186 139.5 -188.4 140.8 -189.7 143.2 -191 140.8 -193.3 139.5 -191 138.2 -189.7 135.8"></polygon>
      <polygon class="cls-2" points="-219.3 144 -218.8 145 -217.8 145.5 -218.8 146 -219.3 146.9 -219.8 146 -220.7 145.5 -219.8 145 -219.3 144"></polygon>
      <polygon class="cls-2" points="-139.8 72 -138.7 74 -136.8 75 -138.7 76.1 -139.8 78.1 -140.9 76.1 -142.8 75 -140.9 74 -139.8 72"></polygon>
      <polygon class="cls-2" points="-113.4 50.9 -112.3 52.9 -110.3 54 -112.3 55.1 -113.4 57.1 -114.5 55.1 -116.5 54 -114.5 52.9 -113.4 50.9"></polygon>
      <polygon class="cls-2" points="-86 84.4 -85.6 85.1 -84.9 85.5 -85.6 85.9 -86 86.6 -86.3 85.9 -87 85.5 -86.3 85.1 -86 84.4"></polygon>
      <polygon class="cls-2" points="-101.1 144.4 -100.2 146 -98.6 146.9 -100.2 147.8 -101.1 149.5 -102 147.8 -103.7 146.9 -102 146 -101.1 144.4"></polygon>
      <polygon class="cls-2" points="-99.2 160.3 -98.7 161.4 -97.6 161.9 -98.7 162.5 -99.2 163.5 -99.8 162.5 -100.8 161.9 -99.8 161.4 -99.2 160.3"></polygon>
      <polygon class="cls-2" points="-181.1 84.6 -180.4 85.9 -179.1 86.6 -180.4 87.3 -181.1 88.6 -181.8 87.3 -183.1 86.6 -181.8 85.9 -181.1 84.6"></polygon>
      <polygon class="cls-2" points="-84.9 102.2 -84.1 103.6 -82.6 104.5 -84.1 105.3 -84.9 106.8 -85.7 105.3 -87.2 104.5 -85.7 103.6 -84.9 102.2"></polygon>
      <path class="cls-11" d="M-194.7,233.9c-.8-4.4.4-9,3.2-12.5"></path>
    </g>
    <g id="Calque_1-2-4" data-name="Calque 1-2">
      <g class="cls-7">
        <text class="cls-4" transform="translate(283.5 240.1)"><tspan x="0" y="0">f</tspan></text>
      </g>
      <g class="cls-7">
        <text class="cls-1" transform="translate(337.2 240.1)"><tspan x="0" y="0">m</tspan></text>
      </g>
      <path class="cls-2" d="M551.2,156.1c.6-2.3,1-4.7,1.1-7.1.4-7.5-1.6-15-.6-22.5,1.4-10.1,8-18.7,11.8-28.1,6.6-16.2,4.5-35.7-5.2-49.4-9.8-13.7-26.8-21.1-43.3-18.9-16.5,2.3-31.7,14.2-38.7,30.3-2.3,5.2-4.3,11.5-9.4,13.4-3.5,1.3-7.3,0-10.9-.8-29-7.1-61.2,16.8-63,48.8-.4,7.2.7,14.4,3.2,21.1,5.1,13.2,16.1,23.6,29.2,27.6,3.7,1.1,8.2,2,11.1,5,3.1,3.3,2.6,7.8,2.6,12.2,0,14,8.7,27.3,21.1,31.9s27.6.4,36.6-10.3c5.4-6.5,8.7-14.9,15.2-20.3,6.5-5.4,15.3-6.7,22.6-10.9,8-4.6,14.1-12.8,16.5-22h0Z"></path>
      <path class="cls-2" d="M474.1,181c-5.6,7.7-11.8,15.8-15.5,24.4-1.7,4.2-2.9,8.5-4,13.2-1,4.6-2,9.5-2.9,14.3-1.1,5.7-6.6,9.4-12.3,8.4-6.8-1.2-10.6-9-7.4-15.1,4.8-9.3,9.4-18.9,16.1-27.2,6.8-8.3,15-14.2,23.2-20.6,1.8-1.3,4.1.9,2.7,2.7h0Z"></path>
      <path class="cls-12" d="M461.4,191.4c12.9,2.3,27.8,1.2,43.7-16.9"></path>
      <path class="cls-12" d="M454,201.4c-5-6.1-5.7-15.4-1.6-22.2"></path>
      <polygon class="cls-9" points="432.3 146.6 433 147.9 434.3 148.6 433 149.3 432.3 150.6 431.5 149.3 430.2 148.6 431.5 147.9 432.3 146.6"></polygon>
      <polygon class="cls-9" points="441.1 135.8 442.4 138.2 444.8 139.5 442.4 140.8 441.1 143.2 439.8 140.8 437.5 139.5 439.8 138.2 441.1 135.8"></polygon>
      <polygon class="cls-9" points="411.5 144 412 145 413 145.5 412 146 411.5 146.9 411 146 410.1 145.5 411 145 411.5 144"></polygon>
      <polygon class="cls-9" points="491 72 492.1 74 494 75 492.1 76.1 491 78.1 489.9 76.1 488 75 489.9 74 491 72"></polygon>
      <polygon class="cls-9" points="517.4 50.9 518.5 52.9 520.5 54 518.5 55.1 517.4 57.1 516.3 55.1 514.3 54 516.3 52.9 517.4 50.9"></polygon>
      <polygon class="cls-9" points="544.8 84.4 545.2 85.1 545.9 85.5 545.2 85.9 544.8 86.6 544.5 85.9 543.8 85.5 544.5 85.1 544.8 84.4"></polygon>
      <polygon class="cls-9" points="529.7 144.4 530.6 146 532.2 146.9 530.6 147.8 529.7 149.5 528.8 147.8 527.1 146.9 528.8 146 529.7 144.4"></polygon>
      <polygon class="cls-9" points="531.6 160.3 532.1 161.4 533.2 161.9 532.1 162.5 531.6 163.5 531 162.5 530 161.9 531 161.4 531.6 160.3"></polygon>
      <polygon class="cls-9" points="449.7 84.6 450.4 85.9 451.7 86.6 450.4 87.3 449.7 88.6 449 87.3 447.7 86.6 449 85.9 449.7 84.6"></polygon>
      <polygon class="cls-9" points="545.9 102.1 546.7 103.6 548.2 104.5 546.7 105.3 545.9 106.8 545.1 105.3 543.6 104.5 545.1 103.6 545.9 102.1"></polygon>
      <path class="cls-11" d="M436.1,233.9c-.8-4.4.4-9,3.2-12.5"></path>
    </g>
  </g>
</svg>