<?xml version="1.0" encoding="UTF-8"?><svg id="Calque_1" xmlns="http://www.w3.org/2000/svg" viewBox="0 0 507.12 258.55"><defs><style>.cls-1 {
  fill: #ff3a1a;
}

.cls-1, .cls-2, .cls-3, .cls-4, .cls-5, .cls-6, .cls-7 {
  stroke-width: 0;
}

.cls-2 {
  fill: #f8784b;
}

.cls-3 {
  fill: #fbf4e4;
}

.cls-4 {
  fill: #ff521d;
}

.cls-5 {
  fill: #74733d;
}

.cls-6 {
  fill: #7e9b46;
}

.cls-7 {
  fill: #a5c45b;
}
</style></defs><path class="cls-3" d="M313.37,240.76h-39.56l24.25-143.43c1.22-9.23,3.96-17.47,8.21-24.74,4.24-7.27,9.94-12.94,17.09-17.02,7.14-4.08,15.62-6,25.41-5.76,3.11.08,6.1.41,9,.98,2.9.57,5.82,1.23,8.76,1.96l-3.31,30.25c-1.3-.41-2.57-.75-3.8-1.04-1.22-.28-2.53-.43-3.92-.43-3.19,0-5.96.72-8.33,2.14-2.37,1.43-4.33,3.35-5.88,5.76-1.55,2.41-2.61,5.08-3.19,8.02l-24.74,143.31ZM356,108.23l-5.27,28.66h-73.86l4.9-28.66h74.23Z"></path><path class="cls-3" d="M386.41,139.84l-18.76,107.26h-40.97l24.15-138.99h38.15l-2.57,31.73ZM376.13,172.98l-8.09.39c.51-7.28,1.73-14.92,3.66-22.93,1.92-8,4.8-15.48,8.6-22.41s8.84-12.52,15.09-16.76,13.92-6.18,23-5.84c6.51.17,11.69,1.84,15.54,5.01,3.86,3.17,6.68,7.17,8.48,12.01s2.87,10.08,3.21,15.73c.35,5.66.21,11.05-.38,16.19l-15.29,92.74h-41.23l14.39-87.35c.26-2.48.63-5.35,1.09-8.61.47-3.25.3-6.12-.51-8.6s-3.14-3.77-7-3.85c-4.02-.26-7.26.86-9.7,3.34-2.45,2.48-4.41,5.61-5.91,9.38-1.5,3.77-2.62,7.6-3.35,11.5s-1.27,7.26-1.6,10.08ZM437.79,172.85l-9.89.26c.6-7.36,1.84-15.03,3.72-22.99,1.89-7.97,4.64-15.37,8.29-22.22,3.64-6.85,8.55-12.36,14.7-16.51,6.17-4.15,13.83-6.14,23-5.97,7.37.26,13.14,2.1,17.34,5.53,4.19,3.43,7.16,7.84,8.92,13.23,1.75,5.39,2.78,11.2,3.08,17.41.3,6.21.15,12.23-.45,18.05l-14.64,87.48h-41.11l14.39-87.61c.26-2.4.6-5.23,1.02-8.48s.24-6.12-.58-8.61c-.81-2.48-3.1-3.77-6.86-3.85-4.28,0-7.7,1.18-10.22,3.53s-4.5,5.35-5.91,8.99-2.42,7.43-3.02,11.37-1.2,7.41-1.8,10.4Z"></path><g id="_ÎÓÈ_1"><path class="cls-6" d="M134.94,29.58V0l-5.49,2.26v50.09l9.79,1.9s-4.25-6.69-4.3-24.67Z"></path><path class="cls-7" d="M126.53,3.5s-3.41,12.53-2.04,24.62c1.37,12.09-4.87,22.37-4.87,22.37l9.79,1.9V2.26l-2.92,1.2.04.04Z"></path><path class="cls-6" d="M129.45,48.67l-24.4-5.71c-10.14-2.39-19.27-8.02-25.95-16.03l-.18-.22c-4.78-5.8-10.89-10.36-17.76-13.33l-1.51-.66s11.47,6.24,16.7,17.98c5.23,11.74,10.67,27.02,37.38,27.37,26.71.4,15.72-9.39,15.72-9.39Z"></path><path class="cls-6" d="M129.45,59.3s-11.6-1.33-22.45-15.85c-10.85-14.57-11.34-28.08-11.34-28.08l3.81,6.29c5.49,8.99,12.93,16.56,21.52,22.63,4.38,3.1,8.46,7.93,8.46,15.01Z"></path><path class="cls-5" d="M131.67,48.67l24.4-5.71c10.14-2.39,19.27-8.02,25.91-16.03l.18-.22c4.78-5.8,10.89-10.36,17.76-13.33l1.51-.66s-11.47,6.24-16.7,17.98c-5.23,11.74-10.67,27.02-37.38,27.37-26.71.4-15.72-9.39-15.72-9.39h.04Z"></path><path class="cls-5" d="M131.67,59.3s11.6-1.33,22.45-15.85c10.85-14.57,11.34-28.08,11.34-28.08l-3.81,6.29c-5.49,8.99-12.93,16.56-21.52,22.63-4.38,3.1-8.46,7.93-8.46,15.01Z"></path><path class="cls-4" d="M129.45,258.55h-21.83C48.18,258.55,0,206.38,0,142.03v-2.08C0,90.79,37.16,45.08,82.2,50.98c12.05,1.59,47.21,4.16,47.21,4.16v203.41h.04Z"></path><path class="cls-1" d="M129.45,258.55h21.83c59.43,0,107.62-52.17,107.62-116.52v-2.08c0-49.16-37.16-94.91-82.2-89.02-12.05,1.59-47.21,4.16-47.21,4.16v203.41l-.04.04Z"></path><path class="cls-2" d="M64.7,65.32s-21.39,3.54-30.65,26.04c-13.55,32.99,2.61,61.91,20.37,59.92,17.72-1.99,28.52-56.38,28.65-67.27.31-21.66-18.38-18.65-18.38-18.65v-.04Z"></path></g></svg>