<?xml version="1.0" encoding="UTF-8"?><svg id="Calque_2" xmlns="http://www.w3.org/2000/svg" viewBox="0 0 409.93 210.58"><defs><style>.cls-1 {
  fill: #d96b0b;
}

.cls-1, .cls-2, .cls-3 {
  stroke-width: 0;
}

.cls-2 {
  fill: #fbf4e4;
}

.cls-3 {
  fill: #f3f6ee;
}

.cls-4 {
  stroke: #f3f6ee;
  stroke-width: 4.22px;
}

.cls-4, .cls-5 {
  fill: none;
  stroke-linecap: round;
  stroke-linejoin: round;
}

.cls-5 {
  stroke: #fbf4e4;
  stroke-width: 3.02px;
}
</style></defs><g id="Calque_1-2"><path class="cls-1" d="M155.78,59.87c-10.11-6.1-22.63-7.34-34.27-5.31-11.63,2.04-22.52,7.13-32.77,12.99-2.74,1.56-5.58,3.21-8.49,4.62-20.19-9.27-45.83-11.57-63.21,2.25C2.94,85.63-2.48,105.58,1.04,123.25s14.9,33.05,28.87,44.42c4.94,4.02,10.28,7.66,14.35,12.56,3,3.61,5.22,7.78,7.58,11.84,2.49,10.54,13.92,18.51,27.65,18.51,6.52,0,12.52-1.8,17.29-4.82,2.84,1.17,5.8,2.02,8.86,2.46,11.71,1.68,24.6-3.32,30.64-13.5,7.65-12.9,5.89-28.03,14.71-40.79,7.91-11.44,18.45-21.01,22.84-34.59,6.87-21.28,1.1-47.92-18.05-59.48Z"></path><path class="cls-4" d="M58.74,41.72c13.49,10.38,22.13,26.81,23.04,43.81"></path><path class="cls-3" d="M76.63,63.62c-3.36-16.22,2.73-33.6,16.05-45.79C106,5.65,126.25-1.07,146.02.14c.75,14.22-7.98,30.53-18.66,41.66-10.69,11.13-33.86,19.25-50.72,21.82"></path><polygon class="cls-2" points="49.82 83.86 50.95 85.92 53.01 87.05 50.95 88.18 49.82 90.25 48.69 88.18 46.62 87.05 48.69 85.92 49.82 83.86"></polygon><polygon class="cls-2" points="19.75 122.42 21.28 125.22 24.09 126.76 21.28 128.29 19.75 131.1 18.22 128.29 15.41 126.76 18.22 125.22 19.75 122.42"></polygon><polygon class="cls-2" points="24.09 99.36 24.6 100.3 25.54 100.81 24.6 101.33 24.09 102.27 23.57 101.33 22.63 100.81 23.57 100.3 24.09 99.36"></polygon><polygon class="cls-2" points="70.26 176.08 72.22 179.66 75.8 181.62 72.22 183.58 70.26 187.16 68.3 183.58 64.72 181.62 68.3 179.66 70.26 176.08"></polygon><polygon class="cls-2" points="90.29 174.72 90.77 175.6 91.65 176.08 90.77 176.56 90.29 177.44 89.8 176.56 88.92 176.08 89.8 175.6 90.29 174.72"></polygon><polygon class="cls-2" points="114.82 179.43 116.32 182.17 119.05 183.66 116.32 185.16 114.82 187.89 113.32 185.16 110.59 183.66 113.32 182.17 114.82 179.43"></polygon><polygon class="cls-2" points="106.79 75.8 108.79 79.44 112.43 81.44 108.79 83.43 106.79 87.08 104.8 83.43 101.15 81.44 104.8 79.44 106.79 75.8"></polygon><path class="cls-5" d="M82.32,48.84c1.17-5.59,3.24-10.99,6.11-15.92"></path><path class="cls-5" d="M92.79,27.04c1.22-1.13,2.43-2.26,3.65-3.4"></path><polygon class="cls-2" points="129.47 72.99 130.47 74.81 132.28 75.8 130.47 76.79 129.47 78.61 128.48 76.79 126.66 75.8 128.48 74.81 129.47 72.99"></polygon><polygon class="cls-2" points="159.57 102.54 160.68 104.57 162.71 105.68 160.68 106.79 159.57 108.82 158.46 106.79 156.43 105.68 158.46 104.57 159.57 102.54"></polygon><path class="cls-2" d="M216.18,191.38h-39.56l24.25-143.43c1.22-9.23,3.96-17.47,8.21-24.74,4.24-7.27,9.94-12.94,17.09-17.02,7.14-4.08,15.62-6,25.41-5.76,3.11.08,6.1.41,9,.98,2.9.57,5.82,1.23,8.76,1.96l-3.31,30.25c-1.3-.41-2.57-.75-3.8-1.04-1.22-.28-2.53-.43-3.92-.43-3.19,0-5.96.72-8.33,2.14-2.37,1.43-4.33,3.35-5.88,5.76-1.55,2.41-2.61,5.08-3.19,8.02l-24.74,143.31ZM258.81,58.85l-5.27,28.66h-73.86l4.9-28.66h74.23Z"></path><path class="cls-2" d="M289.22,90.46l-18.76,107.26h-40.97l24.15-138.99h38.15l-2.57,31.73ZM278.94,123.6l-8.09.39c.51-7.28,1.73-14.92,3.66-22.93,1.92-8,4.8-15.48,8.6-22.41s8.84-12.52,15.09-16.76,13.92-6.18,23-5.84c6.51.17,11.69,1.84,15.54,5.01,3.86,3.17,6.68,7.17,8.48,12.01s2.87,10.08,3.21,15.73c.35,5.66.21,11.05-.38,16.19l-15.29,92.74h-41.23l14.39-87.35c.26-2.48.63-5.35,1.09-8.61.47-3.25.3-6.12-.51-8.6s-3.14-3.77-7-3.85c-4.02-.26-7.26.86-9.7,3.34-2.45,2.48-4.41,5.61-5.91,9.38-1.5,3.77-2.62,7.6-3.35,11.5s-1.27,7.26-1.6,10.08ZM340.61,123.47l-9.89.26c.6-7.36,1.84-15.03,3.72-22.99,1.89-7.97,4.64-15.37,8.29-22.22,3.64-6.85,8.55-12.36,14.7-16.51,6.17-4.15,13.83-6.14,23-5.97,7.37.26,13.14,2.1,17.34,5.53,4.19,3.43,7.16,7.84,8.92,13.23,1.75,5.39,2.78,11.2,3.08,17.41.3,6.21.15,12.23-.45,18.05l-14.64,87.48h-41.11l14.39-87.61c.26-2.4.6-5.23,1.02-8.48s.24-6.12-.58-8.61c-.81-2.48-3.1-3.77-6.86-3.85-4.28,0-7.7,1.18-10.22,3.53s-4.5,5.35-5.91,8.99-2.42,7.43-3.02,11.37-1.2,7.41-1.8,10.4Z"></path></g></svg>