<?xml version="1.0" encoding="UTF-8"?><svg id="Calque_2" xmlns="http://www.w3.org/2000/svg" viewBox="0 0 253.54 253.54"><defs><style>.cls-1 {
  stroke: #fbf4e4;
  stroke-width: 2.71px;
}

.cls-1, .cls-2 {
  fill: none;
  stroke-linecap: round;
  stroke-linejoin: round;
}

.cls-3, .cls-4, .cls-5, .cls-6 {
  stroke-width: 0;
}

.cls-3, .cls-7 {
  fill: #fbf4e4;
}

.cls-2 {
  stroke: #6c8a2c;
  stroke-width: 3.82px;
}

.cls-4 {
  fill: #4f7302;
}

.cls-5 {
  fill: #6c8a2c;
}

.cls-7 {
  font-family: Montserrat-BlackItalic, Montserrat;
  font-size: 19.54px;
  font-style: italic;
  font-weight: 800;
}

.cls-6 {
  fill: #fff;
}
</style></defs><g id="OBJECTS"><circle class="cls-6" cx="126.77" cy="126.77" r="126.77"></circle></g><g id="TEXTS"><path class="cls-4" d="M194.29,150.95c.62-2.32,1.01-4.7,1.13-7.1.39-7.48-1.58-14.93-.56-22.37,1.38-10.06,7.93-18.55,11.76-27.97,6.55-16.12,4.5-35.5-5.2-49.14-9.7-13.64-26.68-21.03-43.06-18.75-16.38,2.28-31.56,14.16-38.48,30.12-2.25,5.18-4.31,11.41-9.38,13.33-3.52,1.33-7.29.05-10.86-.82-28.9-7.04-60.92,16.72-62.6,48.58-.38,7.16.68,14.37,3.22,20.93,5.09,13.16,16.04,23.49,29.05,27.43,3.64,1.1,8.16,1.96,11.03,4.97,3.11,3.26,2.57,7.77,2.55,12.11-.07,13.93,8.66,27.14,21.01,31.77,12.34,4.62,27.48.36,36.41-10.25,5.41-6.44,8.68-14.86,15.09-20.19,6.52-5.41,15.18-6.69,22.46-10.83,7.98-4.54,14.01-12.73,16.44-21.84Z"></path><text class="cls-7" transform="translate(100.63 142.16)"><tspan x="0" y="0"> </tspan></text><path class="cls-5" d="M117.61,175.73c-5.57,7.69-11.74,15.69-15.38,24.26-1.7,4.14-2.89,8.48-3.94,13.1-1.04,4.61-1.96,9.42-2.88,14.26-1.08,5.67-6.55,9.4-12.22,8.32-6.76-1.17-10.55-8.97-7.37-15.02,4.78-9.24,9.3-18.74,15.97-27.1,6.78-8.24,14.91-14.15,23.09-20.5,1.75-1.34,4.04.91,2.72,2.68h0Z"></path><path class="cls-2" d="M104.91,186.05c12.79,2.31,27.69,1.16,43.5-16.84"></path><path class="cls-2" d="M97.58,195.99c-5-6.06-5.68-15.32-1.63-22.05"></path><polygon class="cls-3" points="75.96 141.45 76.67 142.75 77.97 143.46 76.67 144.17 75.96 145.47 75.26 144.17 73.96 143.46 75.26 142.75 75.96 141.45"></polygon><polygon class="cls-3" points="84.8 130.75 86.1 133.12 88.47 134.41 86.1 135.71 84.8 138.08 83.5 135.71 81.13 134.41 83.5 133.12 84.8 130.75"></polygon><polygon class="cls-3" points="55.33 138.92 55.84 139.84 56.77 140.35 55.84 140.86 55.33 141.79 54.82 140.86 53.9 140.35 54.82 139.84 55.33 138.92"></polygon><polygon class="cls-3" points="134.39 67.28 135.45 69.22 137.4 70.29 135.45 71.35 134.39 73.29 133.33 71.35 131.38 70.29 133.33 69.22 134.39 67.28"></polygon><polygon class="cls-3" points="160.65 46.31 161.74 48.31 163.73 49.4 161.74 50.49 160.65 52.48 159.56 50.49 157.56 49.4 159.56 48.31 160.65 46.31"></polygon><polygon class="cls-3" points="187.94 79.61 188.32 80.31 189.01 80.69 188.32 81.07 187.94 81.77 187.55 81.07 186.86 80.69 187.55 80.31 187.94 79.61"></polygon><polygon class="cls-3" points="172.84 139.26 173.74 140.9 175.37 141.79 173.74 142.68 172.84 144.32 171.95 142.68 170.31 141.79 171.95 140.9 172.84 139.26"></polygon><polygon class="cls-3" points="174.74 155.12 175.3 156.14 176.31 156.69 175.3 157.25 174.74 158.26 174.19 157.25 173.18 156.69 174.19 156.14 174.74 155.12"></polygon><polygon class="cls-3" points="93.32 79.79 94.01 81.07 95.29 81.77 94.01 82.46 93.32 83.74 92.62 82.46 91.34 81.77 92.62 81.07 93.32 79.79"></polygon><polygon class="cls-3" points="189.01 97.25 189.83 98.74 191.31 99.55 189.83 100.37 189.01 101.86 188.2 100.37 186.71 99.55 188.2 98.74 189.01 97.25"></polygon><path class="cls-1" d="M79.77,228.31c-.77-4.33.41-8.97,3.16-12.4"></path><path class="cls-3" d="M71.63,125.26h-7.17l4.39-25.98c.22-1.67.72-3.17,1.49-4.48.77-1.32,1.8-2.34,3.1-3.08,1.29-.74,2.83-1.09,4.6-1.04.56.01,1.11.07,1.63.18.53.1,1.05.22,1.59.36l-.6,5.48c-.24-.07-.47-.14-.69-.19-.22-.05-.46-.08-.71-.08-.58,0-1.08.13-1.51.39-.43.26-.78.61-1.07,1.04-.28.44-.47.92-.58,1.45l-4.48,25.96ZM79.35,101.25l-.95,5.19h-13.38l.89-5.19h13.45Z"></path><path class="cls-3" d="M87.58,125.7c-1.57-.03-2.95-.32-4.14-.87-1.19-.55-2.17-1.31-2.93-2.27s-1.3-2.1-1.61-3.4c-.31-1.29-.4-2.7-.27-4.23l.33-2.62c.21-1.63.58-3.14,1.11-4.55.53-1.4,1.25-2.64,2.16-3.71.91-1.07,2.02-1.89,3.34-2.47,1.32-.58,2.87-.85,4.66-.79,1.61.04,2.95.38,4,1.02,1.06.64,1.88,1.49,2.46,2.55.58,1.06.96,2.26,1.14,3.59.18,1.33.18,2.71.02,4.15l-.51,3.48h-16.24l.82-4.68,9.08.02.16-.89c.07-.53.13-1.06.16-1.59s-.07-.97-.3-1.33c-.23-.36-.68-.57-1.36-.63-.83-.03-1.46.14-1.91.5-.44.36-.77.84-.99,1.44s-.37,1.24-.46,1.93c-.09.69-.16,1.33-.22,1.94l-.33,2.64c-.06.59-.1,1.17-.11,1.74-.02.57.06,1.1.21,1.58s.42.87.8,1.15c.38.29.94.45,1.7.48.92.03,1.78-.12,2.6-.46s1.55-.82,2.2-1.48l2.62,4.59c-.61.8-1.37,1.42-2.3,1.87-.92.45-1.9.78-2.93.98-1.03.2-2.02.29-2.96.28Z"></path><path class="cls-3" d="M108.8,107.57l-3.06,17.68h-7.12l4.17-24.01h6.59l-.58,6.32ZM115.27,101.09l-1,6.92c-.36-.06-.71-.11-1.07-.16-.35-.04-.72-.07-1.09-.09-.72-.01-1.35.1-1.89.35-.53.25-.97.6-1.32,1.05-.35.45-.63.96-.84,1.54-.21.58-.37,1.2-.48,1.86l-1.09-.89c.12-.93.3-2.02.54-3.26.24-1.24.61-2.46,1.09-3.65.48-1.19,1.13-2.17,1.95-2.93.82-.76,1.88-1.14,3.16-1.12.35.02.69.06,1.02.12.33.07.66.14,1,.23Z"></path><path class="cls-3" d="M124.19,106.73l-3.24,18.53h-7.08l4.17-24.01h6.59l-.44,5.48ZM122.42,112.45l-1.4.07c.09-1.26.3-2.58.63-3.96.33-1.38.83-2.67,1.49-3.87s1.53-2.16,2.61-2.9c1.08-.73,2.4-1.07,3.97-1.01,1.12.03,2.02.32,2.68.87.67.55,1.15,1.24,1.46,2.07.31.84.5,1.74.55,2.72.06.98.04,1.91-.07,2.8l-2.64,16.02h-7.12l2.49-15.09c.04-.43.11-.92.19-1.49.08-.56.05-1.06-.09-1.49s-.54-.65-1.21-.67c-.7-.04-1.25.15-1.67.58-.42.43-.76.97-1.02,1.62-.26.65-.45,1.31-.58,1.99-.13.67-.22,1.25-.28,1.74ZM133.07,112.43l-1.71.04c.1-1.27.32-2.6.64-3.97.33-1.38.8-2.66,1.43-3.84.63-1.18,1.48-2.13,2.54-2.85,1.07-.72,2.39-1.06,3.97-1.03,1.27.04,2.27.36,3,.95.72.59,1.24,1.35,1.54,2.29.3.93.48,1.93.53,3.01.05,1.07.03,2.11-.08,3.12l-2.53,15.11h-7.1l2.49-15.13c.04-.41.1-.9.18-1.46.07-.56.04-1.06-.1-1.49-.14-.43-.54-.65-1.19-.67-.74,0-1.33.2-1.76.61-.44.41-.78.92-1.02,1.55s-.42,1.28-.52,1.96c-.1.68-.21,1.28-.31,1.8Z"></path><path class="cls-3" d="M156.61,125.7c-1.57-.03-2.95-.32-4.14-.87-1.19-.55-2.17-1.31-2.93-2.27s-1.3-2.1-1.61-3.4c-.31-1.29-.4-2.7-.27-4.23l.33-2.62c.21-1.63.58-3.14,1.11-4.55.53-1.4,1.25-2.64,2.16-3.71.91-1.07,2.02-1.89,3.34-2.47,1.32-.58,2.87-.85,4.66-.79,1.61.04,2.95.38,4,1.02,1.06.64,1.88,1.49,2.46,2.55.58,1.06.96,2.26,1.14,3.59.18,1.33.18,2.71.02,4.15l-.51,3.48h-16.24l.82-4.68,9.08.02.16-.89c.07-.53.13-1.06.16-1.59s-.07-.97-.3-1.33c-.23-.36-.68-.57-1.36-.63-.83-.03-1.46.14-1.91.5-.44.36-.77.84-.99,1.44s-.37,1.24-.46,1.93c-.09.69-.16,1.33-.22,1.94l-.33,2.64c-.06.59-.1,1.17-.11,1.74-.02.57.06,1.1.21,1.58s.42.87.8,1.15c.38.29.94.45,1.7.48.92.03,1.78-.12,2.6-.46s1.55-.82,2.2-1.48l2.62,4.59c-.61.8-1.37,1.42-2.3,1.87-.92.45-1.9.78-2.93.98-1.03.2-2.02.29-2.96.28Z"></path><path class="cls-3" d="M95.49,150.9l-1.89,10.83h-4.14l2.44-14.04h3.85l-.26,3.21ZM94.45,154.25l-.82.04c.05-.74.17-1.51.37-2.32.19-.81.48-1.56.87-2.26s.89-1.27,1.52-1.69,1.41-.62,2.32-.59c.66.02,1.18.19,1.57.51.39.32.67.72.86,1.21s.29,1.02.32,1.59c.04.57.02,1.12-.04,1.64l-1.54,9.37h-4.17l1.45-8.82c.03-.25.06-.54.11-.87.05-.33.03-.62-.05-.87s-.32-.38-.71-.39c-.41-.03-.73.09-.98.34-.25.25-.45.57-.6.95-.15.38-.26.77-.34,1.16s-.13.73-.16,1.02ZM100.68,154.24l-1,.03c.06-.74.19-1.52.38-2.32.19-.8.47-1.55.84-2.24.37-.69.86-1.25,1.49-1.67.62-.42,1.4-.62,2.32-.6.74.03,1.33.21,1.75.56.42.35.72.79.9,1.34.18.54.28,1.13.31,1.76.03.63.01,1.23-.05,1.82l-1.48,8.84h-4.15l1.45-8.85c.03-.24.06-.53.1-.86s.02-.62-.06-.87c-.08-.25-.31-.38-.69-.39-.43,0-.78.12-1.03.36s-.45.54-.6.91-.24.75-.3,1.15-.12.75-.18,1.05Z"></path><path class="cls-3" d="M116.1,153.16l-.39,2.34h-.88c-.32,0-.6.07-.83.2s-.43.31-.58.52-.27.45-.36.72c-.09.27-.15.55-.18.84-.03.19-.06.37-.07.55-.01.18.02.32.08.44.07.12.23.18.48.18s.5-.06.71-.18c.22-.12.4-.28.54-.47.15-.19.24-.41.27-.65l.25,1.76c-.16.33-.33.65-.49.96-.17.31-.35.59-.56.84-.21.25-.46.45-.76.59s-.67.21-1.12.21c-.77,0-1.43-.19-1.98-.56-.55-.37-.96-.86-1.23-1.47s-.4-1.28-.37-2.04c.03-.86.22-1.59.58-2.21.36-.61.83-1.11,1.42-1.49.59-.38,1.24-.66,1.96-.84s1.47-.27,2.25-.27h1.26ZM114.75,158.21l.97-6.23c.02-.23.04-.45.07-.67s0-.41-.08-.57c-.08-.16-.28-.24-.59-.23-.3,0-.52.06-.64.21s-.2.34-.23.58c-.03.23-.07.47-.11.7l-4.17.03c.03-.74.21-1.41.53-1.99s.73-1.06,1.25-1.45c.52-.39,1.11-.68,1.76-.88.65-.2,1.33-.29,2.04-.27.93,0,1.73.2,2.43.56s1.21.9,1.56,1.59c.35.69.47,1.51.38,2.47l-.99,6.15c-.08.54-.13,1.09-.16,1.65s.02,1.11.16,1.63v.25s-4.05.01-4.05.01c-.18-.56-.27-1.15-.27-1.75,0-.61.05-1.2.14-1.79Z"></path><path class="cls-3" d="M127.22,147.7l-2.43,14.04h-4.17l2.44-14.04h4.15ZM123.49,144.14c0-.65.22-1.18.66-1.58s.97-.61,1.6-.62c.61,0,1.14.18,1.58.56.44.39.66.89.66,1.52s-.22,1.16-.66,1.57c-.44.41-.97.61-1.6.62-.61,0-1.14-.18-1.57-.56s-.65-.89-.66-1.51Z"></path><path class="cls-3" d="M133.67,157.82c.05-.26-.03-.48-.25-.67s-.48-.36-.77-.51c-.29-.15-.51-.28-.66-.4-.46-.23-.89-.49-1.3-.76s-.77-.58-1.08-.93c-.31-.35-.55-.74-.73-1.18-.17-.44-.24-.94-.21-1.51.03-.71.19-1.34.49-1.89s.7-1.02,1.2-1.4c.5-.38,1.05-.67,1.67-.87.62-.2,1.26-.29,1.94-.26.91,0,1.72.19,2.45.54.72.35,1.29.86,1.71,1.52.42.66.62,1.46.62,2.39h-4.14c0-.25.01-.49.01-.73s-.06-.43-.17-.58-.33-.23-.66-.23c-.23,0-.44.08-.61.2-.17.13-.31.29-.42.48-.1.19-.18.4-.22.6-.04.18-.04.35.02.5.06.15.14.29.25.42.11.13.23.24.38.34.14.1.29.19.43.27.7.29,1.36.62,1.98.99.62.37,1.12.83,1.51,1.39.39.56.57,1.28.54,2.16-.04.74-.22,1.38-.55,1.92s-.77.99-1.31,1.35c-.54.35-1.14.62-1.78.8s-1.31.26-1.97.24c-.91-.02-1.72-.22-2.44-.61-.72-.39-1.28-.93-1.7-1.62s-.63-1.5-.65-2.43h3.85c0,.33,0,.62.05.88.04.26.15.47.32.62.17.16.44.23.81.23.27,0,.49-.06.67-.17s.33-.25.45-.43c.12-.19.2-.4.25-.66Z"></path><path class="cls-3" d="M139.58,155.38l.16-1.3c.12-.91.34-1.76.66-2.57.32-.8.75-1.52,1.29-2.14.54-.62,1.19-1.11,1.95-1.46.76-.35,1.64-.51,2.64-.47.94.03,1.74.22,2.38.59s1.16.86,1.54,1.49c.38.62.64,1.33.77,2.11s.16,1.6.08,2.45l-.17,1.32c-.11.89-.33,1.74-.66,2.55-.32.81-.76,1.52-1.3,2.14s-1.19,1.1-1.95,1.45c-.76.35-1.63.5-2.63.47-.94-.02-1.74-.21-2.38-.58-.64-.37-1.16-.87-1.54-1.49-.38-.62-.64-1.32-.78-2.1-.13-.78-.16-1.6-.07-2.45ZM143.92,154.07l-.17,1.32c0,.24-.04.54-.09.9-.05.35-.07.71-.06,1.07.01.36.1.66.25.9.16.24.43.38.82.4.46.03.82-.05,1.08-.27.26-.21.45-.49.58-.83s.22-.71.27-1.09c.05-.38.09-.75.13-1.1l.17-1.32c0-.23.04-.53.09-.88.05-.35.07-.71.06-1.06-.01-.35-.1-.66-.26-.91s-.44-.39-.84-.42c-.42-.02-.75.08-1.01.3s-.45.5-.59.85c-.14.35-.24.72-.3,1.1-.06.38-.11.73-.14,1.04Z"></path><path class="cls-3" d="M157.5,150.93l-1.88,10.81h-4.17l2.44-14.04h3.88l-.27,3.23ZM156.49,154.29l-.74.04c.05-.73.17-1.51.35-2.33.18-.82.46-1.58.83-2.28s.87-1.27,1.49-1.69c.62-.43,1.39-.63,2.32-.62.74.03,1.32.23,1.75.58.43.35.74.8.92,1.34.19.55.29,1.13.31,1.76.02.63,0,1.23-.05,1.81l-1.48,8.84h-4.18l1.48-8.88c.03-.29.04-.6.04-.92,0-.32-.06-.59-.19-.82s-.39-.34-.79-.35c-.44,0-.79.11-1.05.35s-.45.55-.58.93c-.13.38-.22.77-.28,1.17-.06.4-.11.76-.15,1.07Z"></path><path class="cls-3" d="M101.61,88.64l.1-.76c.06-.46.15-.93.29-1.4.13-.47.33-.9.57-1.29s.56-.7.94-.93c.38-.23.85-.34,1.4-.32.41.02.75.12,1.03.31.28.19.51.44.67.74.17.3.29.64.36,1,.07.36.09.72.07,1.08l-.37,2.48c-.07.38-.19.76-.36,1.12s-.38.69-.62.98-.55.51-.89.68c-.34.17-.73.24-1.15.22-.52-.01-.93-.14-1.22-.4-.29-.26-.51-.58-.64-.98-.13-.4-.21-.82-.22-1.27-.01-.45,0-.87.05-1.27ZM102.56,87.87l-.09.79c-.04.3-.06.62-.06.97,0,.35.03.69.1,1,.08.32.22.58.43.79s.52.32.92.33c.38.02.74-.07,1.07-.25s.62-.42.85-.73.4-.64.49-1.01l.47-2.84c0-.27-.02-.53-.09-.78-.07-.25-.18-.48-.33-.68-.15-.2-.33-.37-.55-.49-.22-.12-.47-.19-.75-.2-.43-.02-.8.06-1.1.25-.3.18-.54.43-.72.74-.18.31-.33.65-.43,1.02-.1.37-.17.73-.21,1.09ZM105.9,90.73l1.75-10.11h.85l-2.05,11.77h-.8l.25-1.66Z"></path><path class="cls-3" d="M111.39,92.56c-.53-.01-.97-.13-1.31-.35-.34-.22-.61-.51-.79-.87-.18-.36-.3-.76-.36-1.2s-.06-.89,0-1.34l.11-.95c.06-.48.18-.95.35-1.41.17-.47.4-.89.67-1.27.28-.38.62-.68,1.04-.91.41-.23.89-.32,1.44-.3.51.02.92.13,1.23.35.31.22.54.51.69.86.15.35.24.74.27,1.17.03.43.02.85-.03,1.28l-.1.71h-5.11l.13-.8h4.25s.04-.21.04-.21c.05-.37.04-.75,0-1.14-.05-.39-.18-.72-.4-.98-.22-.27-.56-.41-1.02-.43-.43-.02-.8.07-1.11.25-.31.18-.56.42-.76.73-.2.31-.36.65-.47,1.02-.12.37-.2.74-.24,1.1l-.12.96c-.04.33-.05.66-.02,1s.1.66.21.95.29.52.54.71c.24.18.57.28.98.28.4.02.77-.05,1.11-.21.34-.16.65-.38.94-.66l.38.57c-.2.26-.44.47-.7.63-.27.17-.55.29-.86.36-.31.08-.62.12-.95.12Z"></path><path class="cls-3" d="M122.11,80.62l-2.05,11.77h-.83l2.05-11.77h.84Z"></path><path class="cls-3" d="M127.49,87.55l-.12.73h-1.4c-.31,0-.61.03-.92.1-.3.07-.58.18-.83.33-.25.15-.46.35-.63.6-.17.25-.27.55-.3.89-.03.29,0,.55.07.78s.2.41.39.54c.19.13.44.2.75.2.39,0,.75-.07,1.07-.23s.61-.37.85-.65.44-.59.58-.93l.16.52c-.11.3-.25.57-.43.84-.18.26-.39.49-.64.68-.25.19-.51.35-.81.45-.29.11-.6.16-.92.16-.46,0-.83-.11-1.13-.31-.29-.2-.5-.48-.64-.83-.13-.35-.19-.74-.16-1.16.03-.46.15-.86.34-1.2s.46-.62.78-.85c.32-.22.68-.39,1.08-.51.4-.11.81-.17,1.24-.16h1.62ZM126.71,90.91l.73-4.54c.03-.33,0-.62-.08-.86-.08-.24-.23-.43-.45-.56s-.5-.2-.85-.21c-.34-.01-.64.05-.92.19-.28.14-.51.33-.69.58-.18.25-.3.54-.37.87h-.84c.05-.37.16-.7.33-1.01.17-.3.39-.56.65-.78.26-.22.56-.38.89-.5.33-.12.68-.17,1.05-.17.51.01.92.12,1.26.33s.57.49.72.86c.15.37.2.8.15,1.29l-.7,4.24c-.05.29-.07.56-.07.83s0,.54,0,.82l-.02.1h-.85c-.03-.25-.04-.49-.03-.74.01-.25.04-.5.07-.74Z"></path><path class="cls-3" d="M106.37,137.08l-.12.73h-1.4c-.31,0-.61.03-.92.1-.3.07-.58.18-.83.33-.25.15-.46.35-.63.6-.17.25-.27.55-.3.89-.03.29,0,.55.07.78s.2.41.39.54c.19.13.44.2.75.2.39,0,.75-.07,1.07-.23s.61-.37.85-.65.44-.59.58-.93l.16.52c-.11.3-.25.57-.43.84-.18.26-.39.49-.64.68-.25.19-.51.35-.81.45-.29.11-.6.16-.92.16-.46,0-.83-.11-1.13-.31-.29-.2-.5-.48-.64-.83-.13-.35-.19-.74-.16-1.16.03-.46.15-.86.34-1.2s.46-.62.78-.85c.32-.22.68-.39,1.08-.51.4-.11.81-.17,1.24-.16h1.62ZM105.59,140.44l.73-4.54c.03-.33,0-.62-.08-.86-.08-.24-.23-.43-.45-.56s-.5-.2-.85-.21c-.34-.01-.64.05-.92.19-.28.14-.51.33-.69.58-.18.25-.3.54-.37.87h-.84c.05-.37.16-.7.33-1.01.17-.3.39-.56.65-.78.26-.22.56-.38.89-.5.33-.12.68-.17,1.05-.17.51.01.92.12,1.26.33s.57.49.72.86c.15.37.2.8.15,1.29l-.7,4.24c-.05.29-.07.56-.07.83s0,.54,0,.82l-.02.1h-.85c-.03-.25-.04-.49-.03-.74.01-.25.04-.5.07-.74ZM105.02,130.16l1.09,2.15h-.76l-1.36-2.15h1.04Z"></path><path class="cls-3" d="M114.89,130.15l-2.05,11.77h-.83l2.05-11.77h.84Z"></path><path class="cls-3" d="M120.27,137.08l-.12.73h-1.4c-.31,0-.61.03-.92.1-.3.07-.58.18-.83.33-.25.15-.46.35-.63.6-.17.25-.27.55-.3.89-.03.29,0,.55.07.78s.2.41.39.54c.19.13.44.2.75.2.39,0,.75-.07,1.07-.23s.61-.37.85-.65.44-.59.58-.93l.16.52c-.11.3-.25.57-.43.84-.18.26-.39.49-.64.68-.25.19-.51.35-.81.45-.29.11-.6.16-.92.16-.46,0-.83-.11-1.13-.31-.29-.2-.5-.48-.64-.83-.13-.35-.19-.74-.16-1.16.03-.46.15-.86.34-1.2s.46-.62.78-.85c.32-.22.68-.39,1.08-.51.4-.11.81-.17,1.24-.16h1.62ZM119.49,140.44l.73-4.54c.03-.33,0-.62-.08-.86-.08-.24-.23-.43-.45-.56s-.5-.2-.85-.21c-.34-.01-.64.05-.92.19-.28.14-.51.33-.69.58-.18.25-.3.54-.37.87h-.84c.05-.37.16-.7.33-1.01.17-.3.39-.56.65-.78.26-.22.56-.38.89-.5.33-.12.68-.17,1.05-.17.51.01.92.12,1.26.33s.57.49.72.86c.15.37.2.8.15,1.29l-.7,4.24c-.05.29-.07.56-.07.83s0,.54,0,.82l-.02.1h-.85c-.03-.25-.04-.49-.03-.74.01-.25.04-.5.07-.74Z"></path></g></svg>