<?xml version="1.0" encoding="UTF-8"?><svg id="Calque_2" xmlns="http://www.w3.org/2000/svg" viewBox="0 0 64.59 70"><defs><style>.cls-1 {
  fill: #e77c2a;
}

.cls-1, .cls-2, .cls-3, .cls-4, .cls-5, .cls-6, .cls-7, .cls-8, .cls-9, .cls-10, .cls-11, .cls-12, .cls-13 {
  stroke-width: 0;
}

.cls-2 {
  fill: #ffc389;
}

.cls-3 {
  fill: #e5701f;
}

.cls-4 {
  fill: #ffdec2;
}

.cls-5 {
  fill: #e67624;
}

.cls-6 {
  fill: #ffa557;
}

.cls-7 {
  fill: #e46a19;
}

.cls-8 {
  fill: #e15808;
}

.cls-9 {
  fill: #ff9136;
}

.cls-10 {
  fill: #e25e0e;
}

.cls-11 {
  fill: #ffaf68;
}

.cls-12 {
  fill: #ffb979;
}

.cls-13 {
  fill: #ff9b47;
}
</style></defs><g id="_ÎÓÈ_1"><path class="cls-1" d="M41.52,47.88c0-13.87-2.73-20.82-5.07-25.86-2.75-5.94-3.39-21.02-3.39-21.02l-.38-1s.32,16.08,1.7,22.02c1.17,5.05,2.53,11.99,2.53,25.86,0,12.12-1.41,22.12-3.16,22.12h1.45c3.49,0,6.32-10,6.32-22.12Z"></path><path class="cls-5" d="M46.14,47.88c0-13.87-4.09-20.82-7.6-25.86-4.13-5.94-5.09-22.02-5.09-22.02l-.38,1s.64,15.08,3.39,21.02c2.34,5.05,5.07,11.99,5.07,25.86,0,12.12-2.83,22.12-6.32,22.12h1.45c5.23,0,9.48-10,9.48-22.12Z"></path><path class="cls-1" d="M36.91,47.88c0-13.87-1.36-20.82-2.53-25.86-1.38-5.94-1.7-22.02-1.7-22.02l-.38,1v69h1.45c1.74,0,3.16-10,3.16-22.12Z"></path><path class="cls-10" d="M59.98,47.88c0-13.87-8.19-20.82-15.21-25.86-8.26-5.94-10.17-21.02-10.17-21.02l-.38-1s1.6,16.08,8.48,22.02c5.85,5.05,12.67,11.99,12.67,25.86,0,12.12-7.07,22.12-15.8,22.12h1.45c10.47,0,18.96-10,18.96-22.12Z"></path><path class="cls-8" d="M46.85,22.02C37.22,16.08,34.99,0,34.99,0l-.38,1s1.92,15.08,10.17,21.02c7.02,5.05,15.2,11.99,15.21,25.86,0,12.12-8.49,22.12-18.96,22.12h1.45c12.21,0,22.12-10,22.12-22.12,0-13.87-9.55-20.82-17.74-25.86Z"></path><path class="cls-3" d="M50.75,47.88c0-13.87-5.46-20.82-10.14-25.86-5.5-5.94-6.78-21.02-6.78-21.02l-.38-1s.96,16.08,5.09,22.02c3.51,5.05,7.6,11.99,7.6,25.86,0,12.12-4.24,22.12-9.48,22.12h1.45c6.98,0,12.64-10,12.64-22.12Z"></path><path class="cls-7" d="M55.37,47.88c0-13.87-6.82-20.82-12.67-25.86C35.81,16.08,34.22,0,34.22,0l-.38,1s1.28,15.08,6.78,21.02c4.68,5.05,10.14,11.99,10.14,25.86,0,12.12-5.66,22.12-12.64,22.12h1.45c8.72,0,15.8-10,15.8-22.12Z"></path><path class="cls-11" d="M18.46,47.88c0-13.87,4.09-20.82,7.6-25.86C30.19,16.08,31.14,0,31.14,0l-.38,1s-1.28,15.08-6.78,21.02c-4.68,5.05-10.14,11.99-10.14,25.86,0,12.12,5.66,22.12,12.64,22.12h1.45c-5.23,0-9.48-10-9.48-22.12Z"></path><path class="cls-12" d="M13.84,47.88c0-13.87,5.46-20.82,10.14-25.86,5.5-5.94,6.78-21.02,6.78-21.02l-.38-1s-1.6,16.08-8.48,22.02c-5.85,5.05-12.67,11.99-12.67,25.86,0,12.12,7.07,22.12,15.8,22.12h1.45c-6.98,0-12.64-10-12.64-22.12Z"></path><path class="cls-2" d="M4.61,47.88c0-13.87,8.19-20.82,15.21-25.86C28.08,16.08,29.99,1,29.99,1l-.38-1s-2.23,16.08-11.87,22.02C9.55,27.07,0,34.01,0,47.88c0,12.12,9.9,22.12,22.12,22.12h1.45c-10.47,0-18.96-10-18.96-22.12Z"></path><path class="cls-2" d="M9.23,47.88c0-13.87,6.82-20.82,12.67-25.86C28.78,16.08,30.38,0,30.38,0l-.38,1s-1.92,15.08-10.17,21.02c-7.02,5.05-15.2,11.99-15.21,25.86,0,12.12,8.49,22.12,18.96,22.12h1.45c-8.73,0-15.8-10-15.8-22.12Z"></path><path class="cls-4" d="M12.15,45.84c0-11.2,4.41-16.81,8.19-20.89,4.45-4.79,3.31-4.79-3.36,0-5.67,4.08-12.28,9.69-12.28,20.89,0,9.79,7.45,9.79,7.45,0Z"></path><path class="cls-9" d="M32.3,22.02V1l-.38-1s-.32,16.08-1.7,22.02c-1.17,5.05-2.53,11.99-2.53,25.86,0,12.12,1.41,22.12,3.16,22.12h1.45V22.02Z"></path><path class="cls-6" d="M23.07,47.88c0-13.87,2.73-20.82,5.07-25.86,2.75-5.94,3.39-21.02,3.39-21.02l-.38-1s-.96,16.08-5.09,22.02c-3.51,5.05-7.6,11.99-7.6,25.86,0,12.12,4.24,22.12,9.48,22.12h1.45c-3.49,0-6.32-10-6.32-22.12Z"></path><path class="cls-13" d="M27.68,47.88c0-13.87,1.36-20.82,2.53-25.86,1.38-5.94,1.7-22.02,1.7-22.02l-.38,1s-.64,15.08-3.39,21.02c-2.34,5.05-5.07,11.99-5.07,25.86,0,12.12,2.83,22.12,6.32,22.12h1.45c-1.75,0-3.16-10-3.16-22.12Z"></path></g></svg>