<?xml version="1.0" encoding="UTF-8"?><svg id="Calque_2" xmlns="http://www.w3.org/2000/svg" viewBox="0 0 66.88 70"><defs><style>.cls-1 {
  fill: #e9ffb3;
}

.cls-1, .cls-2, .cls-3, .cls-4, .cls-5 {
  stroke-width: 0;
}

.cls-2 {
  fill: #60a003;
}

.cls-3 {
  fill: #9bca24;
}

.cls-4 {
  fill: #75b008;
}

.cls-5 {
  fill: #cbdc4f;
}
</style></defs><g id="_ÎÓÈ_1"><path class="cls-4" d="M54.33,3.3s-12.5,24.3-15.66,29.82c-10.32,18.04-22.56,35.46-22.56,35.46,0,0,9.74,5.55,19.54-5.26,9.8-10.81,26.32-40.03,21.67-48.43-2.22-4.01-2.01-11.02-2.01-11.02l-.99-.56Z"></path><path class="cls-4" d="M54.17,2.83s-18.5,20.12-23.01,24.59C16.42,42.07,0,55.62,0,55.62c0,0,7.92,7.94,20.24.12,12.32-7.83,36-31.61,33.75-40.94-1.08-4.46.99-11.16.99-11.16l-.81-.81Z"></path><path class="cls-2" d="M55.17,3.83s-18.5,20.12-23.01,24.59C17.43,43.08,1,56.62,1,56.62c0,0,7.92,7.94,20.24.11,12.32-7.82,36-31.61,33.75-40.94-1.08-4.46.99-11.16.99-11.16l-.81-.81Z"></path><path class="cls-2" d="M55.18,3.84s-18.24,20.33-22.64,24.89C18.14,43.65,2.34,57.69,2.34,57.69c0,0,6.34,6.67,17.98-1.69S55.13,23.45,53.96,14.98c-.56-4.05,1.87-10.46,1.87-10.46l-.65-.68Z"></path><path class="cls-3" d="M47.38,12.23l-.55.56c-.41.41-.52,1.02-.34,1.57.12.38.14.79.04,1.19-.16.64.01,1.35.51,1.86l.75.75c1.33,1.33,3.49,1.33,4.82,0l.05-.05c1.33-1.33,1.33-3.49,0-4.82l-.75-.75c-.5-.5-1.21-.67-1.86-.51-.31.08-.74-.02-1.12-.15-.54-.19-1.15-.06-1.55.35Z"></path><path class="cls-1" d="M49.3,14.34c-1.23-1.23.27-2.88,1.57-1.57,2.09,1.4.1,3.7-1.57,1.57Z"></path><path class="cls-3" d="M41.6,19.01l-.79.8c-.58.59-.74,1.46-.48,2.25.18.54.2,1.12.05,1.69-.23.92.02,1.93.73,2.65l1.07,1.07c1.9,1.9,4.98,1.9,6.87,0l.07-.07c1.9-1.9,1.9-4.98,0-6.87l-1.07-1.07c-.72-.72-1.73-.96-2.65-.73-.45.11-1.06-.02-1.59-.21-.78-.27-1.64-.08-2.21.5Z"></path><path class="cls-1" d="M44.41,22.44c-2.01-2.01.62-4.81,2.71-2.71,3.45,2.44.02,6.23-2.71,2.71Z"></path><path class="cls-3" d="M33.99,26.63l-.79.8c-.58.59-.74,1.46-.48,2.24.18.54.2,1.12.05,1.69-.23.92.02,1.93.73,2.65l1.07,1.07c1.9,1.9,4.98,1.9,6.87,0l.07-.07c1.9-1.9,1.9-4.98,0-6.87l-1.07-1.07c-.72-.72-1.73-.96-2.65-.73-.45.11-1.06-.03-1.59-.21-.78-.27-1.64-.08-2.21.5Z"></path><path class="cls-1" d="M36.8,30.05c-2.01-2.01.62-4.81,2.71-2.71,3.45,2.44.02,6.23-2.71,2.71Z"></path><path class="cls-3" d="M26.38,34.24l-.79.8c-.58.59-.75,1.46-.48,2.24.18.54.2,1.12.05,1.69-.23.92.02,1.93.73,2.65l1.07,1.07c1.9,1.9,4.98,1.9,6.87,0l.07-.07c1.9-1.9,1.9-4.98,0-6.87l-1.07-1.07c-.72-.72-1.73-.96-2.65-.73-.45.11-1.06-.02-1.59-.21-.78-.27-1.64-.08-2.21.5Z"></path><path class="cls-1" d="M29.19,37.66c-2.01-2.01.62-4.81,2.71-2.71,3.45,2.44.02,6.23-2.71,2.71Z"></path><path class="cls-3" d="M18.26,41.35l-.79.8c-.58.59-.74,1.46-.48,2.24.18.54.2,1.12.05,1.69-.23.92.02,1.93.73,2.65l1.07,1.07c1.9,1.9,4.98,1.9,6.87,0l.07-.07c1.9-1.9,1.9-4.98,0-6.87l-1.07-1.07c-.72-.72-1.73-.96-2.65-.73-.45.11-1.06-.03-1.59-.21-.78-.27-1.64-.08-2.21.5Z"></path><path class="cls-1" d="M21.07,44.77c-2.01-2.01.62-4.81,2.71-2.71,3.45,2.44.02,6.23-2.71,2.71Z"></path><path class="cls-3" d="M10.62,48.99l-.74.75c-.55.55-.7,1.36-.45,2.1.17.5.18,1.05.05,1.58-.21.86.01,1.81.69,2.48l1.01,1c1.78,1.78,4.66,1.78,6.44,0l.06-.07c1.78-1.78,1.78-4.66,0-6.44l-1-1.01c-.67-.67-1.62-.9-2.48-.69-.42.1-.99-.02-1.49-.2-.73-.25-1.53-.07-2.07.47Z"></path><path class="cls-1" d="M13.35,52.03c-1.83-1.83.56-4.38,2.47-2.47,3.17,2.24.03,5.71-2.47,2.47Z"></path><path class="cls-5" d="M57.88,9.18c4.02,4.53,1.97,3.88,1.97,3.88,0,0-1.03-2.33-3.98-2.56-2.95-.23-1.33-7.41-1.33-7.41,0,0,.16,3.6-2.32,4.3s-6.75.62-6.75.62c0,0,5.32-1.13,6.09-3.24.77-2.11,6.88-6.22,10.69-4.25,3.81,1.97,4.63,1.78,4.63,1.78l-1.34,1.34s-2.62-2.45-5.06-2.39-6.62,3.4-2.59,7.93Z"></path></g></svg>