<?xml version="1.0" encoding="UTF-8"?><svg id="Calque_2" xmlns="http://www.w3.org/2000/svg" viewBox="0 0 53.95 70"><defs><style>.cls-1 {
  fill: #508419;
}

.cls-1, .cls-2, .cls-3, .cls-4, .cls-5, .cls-6, .cls-7, .cls-8, .cls-9 {
  stroke-width: 0;
}

.cls-2 {
  fill: #fcd200;
}

.cls-3 {
  fill: #fcbb03;
}

.cls-4 {
  fill: #fec901;
}

.cls-5 {
  fill: #f7aa00;
}

.cls-6 {
  fill: #fde000;
}

.cls-7 {
  fill: #649d32;
}

.cls-8 {
  fill: #fed501;
}

.cls-9 {
  fill: #73b72a;
}
</style></defs><g id="_ÎÓÈ_1"><path class="cls-4" d="M35.53,21.87c0,2.09-3.83,3.78-8.55,3.78s-8.55-1.69-8.55-3.78,3.83-3.78,8.55-3.78,8.55,1.69,8.55,3.78Z"></path><path class="cls-5" d="M26.98,21.07v-7.76s-1.99-.8-5.37.99c-3.38,1.79-4.18,3.78-4.18,3.78l4.77,3.78h4.77v-.8Z"></path><path class="cls-4" d="M13.85,16.69c-5.69-.97-9.95,2.39-11.54,5.17-1.59,2.78-1.19,11.93-1.19,11.93l22.28-3.38,5.17-8.55s-10.87-4.52-14.72-5.17Z"></path><path class="cls-8" d="M25.59,23.86s-5.17-3.38-12.73-2.78c-7.56.6-11.74,3.78-12.73,9.55-.99,5.77,3.87,26.41,9.15,33.22,1.81,2.34,5.17,3.58,11.34,3.38s4.97-43.36,4.97-43.36Z"></path><path class="cls-5" d="M26.98,21.07v-7.76s1.99-.8,5.37.99c3.38,1.79,4.18,3.78,4.18,3.78l-4.77,3.78h-4.77v-.8Z"></path><path class="cls-3" d="M40.11,16.69c5.69-.97,9.95,2.39,11.54,5.17,1.59,2.78,1.19,11.93,1.19,11.93l-22.28-3.38-5.17-8.55s10.87-4.52,14.72-5.17Z"></path><path class="cls-4" d="M28.37,23.86s5.17-3.38,12.73-2.78c7.56.6,11.74,3.78,12.73,9.55.99,5.77-4.82,26.22-9.95,33.22-1.63,2.23-4.38,3.58-10.54,3.38-6.17-.2-4.97-43.36-4.97-43.36Z"></path><path class="cls-7" d="M19.02,21.42c0,1.54,3.24,4.22,7.97,4.22v-5.57c-2.82,0-3.21.24-4.77.92-1.06.46-3.19-.2-3.19.42Z"></path><path class="cls-1" d="M26.98,20.08v5.57c4.72,0,7.67-2.62,7.67-4.16,0-.92-.8.57-2.9.06-1.42-.34-2.87-1.47-4.77-1.47Z"></path><path class="cls-9" d="M35.63,2.57c-.24-.86-.48-1.71-.71-2.57-11.21.55-12.27,9.4-10.26,20.44.48,1.3,1.25,1.45,1.76,1.42.17,0,.32-.02.47-.03-1.66-9.98-.55-17.97,8.75-19.26Z"></path><path class="cls-7" d="M29.46,20.3c-1.46-8.06-1.11-14.12,7.07-14.52-.3-1.07-.6-2.14-.89-3.21-9.3,1.29-10.41,9.28-8.75,19.26,1.94-.16,2.16-.66,2.57-1.53Z"></path><path class="cls-6" d="M26.78,70V23.66s-6.76-1.99-10.94,1.59c-4.18,3.58-3.43,18.7-1.21,28.24,2.21,9.55,2.21,14.12,6.58,15.12l5.57,1.39Z"></path><path class="cls-2" d="M26.78,70V23.66s6.76-1.99,10.94,1.59c4.18,3.58,3.43,18.7,1.22,28.24s-2.21,14.12-6.59,15.12l-5.57,1.39Z"></path></g></svg>