<?xml version="1.0" encoding="UTF-8"?><svg id="Calque_2" xmlns="http://www.w3.org/2000/svg" viewBox="0 0 75 71.5"><defs><style>.cls-1 {
  fill: #e54051;
}

.cls-1, .cls-2, .cls-3, .cls-4, .cls-5, .cls-6, .cls-7 {
  stroke-width: 0;
}

.cls-2 {
  fill: #f9efee;
}

.cls-3 {
  fill: #e5be33;
}

.cls-4 {
  fill: #b0c91b;
}

.cls-5 {
  fill: #9dbe33;
}

.cls-6 {
  fill: #c9e553;
}

.cls-7 {
  fill: #e1093c;
}
</style></defs><g id="_ÎÓÈ_1"><path class="cls-5" d="M41.31,39.87s23.82-10.54,33.69-10.24l-33.69,10.24Z"></path><path class="cls-6" d="M40.36,40.42s9.56-4.32,17.77-7.06c4.1-1.38,8.27-2.56,11.46-3.16.4-.08.78-.15,1.14-.22.37-.05.71-.09,1.04-.13.65-.08,1.22-.18,1.7-.17.95-.03,1.49-.05,1.49-.05,0,0,.08-.24,0-.7-.09-.46-.33-1.14-1.09-1.99-1.12-1.23-2.36-1.42-3.31-1.38-.49.01-.86.13-1.13.23-.27.1-.42.19-.42.19,0,0,.06-.27-.1-.64-.16-.37-.54-.84-1.45-1.23-2.12-.88-3.27-.51-3.87.02-.59.55-.65,1.3-.65,1.3,0,0,.26-1.62-1.87-1.97-1.92-.32-5.12,1.17-5.6,3.2-.64,2.61-2.33,4.75-2.33,4.75,0,0,.21-.76.14-1.57-.06-.8-.41-1.66-1.54-1.82-1.12-.15-1.89.98-2.35,2.15-.46,1.18-.63,2.38-.63,2.38,0,0-.5-1.12-2.43.22-1.93,1.34-.16,4.58-.16,4.58l-6.14,2.62.32.47Z"></path><path class="cls-4" d="M40.36,40.42s9.56-4.32,17.77-7.06c4.1-1.38,8.27-2.56,11.46-3.16.4-.08.78-.15,1.14-.22.37-.05.71-.09,1.04-.13.65-.08,1.22-.18,1.7-.17.95-.03,1.49-.05,1.49-.05,0,0,.06.24-.05.71-.1.46-.37,1.16-.89,2.06-.67,1.21-1.5,1.74-2.2,1.9-.34.07-.66.1-.9.1-.23,0-.38-.03-.38-.03,0,0,.13.24.13.64,0,.4-.13.97-.63,1.63-1.17,1.57-2.1,1.77-2.77,1.54-.68-.2-1.08-.82-1.08-.82,0,0,.92,1.29-.39,2.6-1.17,1.17-4.17,1.69-5.71.36-1.97-1.73-4.57-2.34-4.57-2.34,0,0,.63.46,1.08,1.13.45.67.72,1.54.02,2.36-.69.83-1.93.42-3.01-.16-1.08-.58-2-1.38-2-1.38,0,0,.38,1.14-1.85,1.46-2.23.32-3.24-3.32-3.24-3.32l-6.15,2.58-.02-.23Z"></path><path class="cls-3" d="M39.07,37.84L47.19.09l-8.11,37.75Z"></path><path class="cls-6" d="M38.87,38.49L47.18.12s-.89-.49-2.91.51c-2.8,1.39-2.46,4.16-2.46,4.16,0,0-.92-.63-2.33.67-3.3,3.04-.78,4.64-.78,4.64,0,0-1.31-.97-2.62.75-1.17,1.54-1.5,5.1-.02,6.61,1.9,1.94,2.79,4.68,2.79,4.68,0,0-2.12-2.46-3.61-.61-1.49,1.85,2.15,5.22,2.15,5.22,0,0-1.2-.19-1.2,2.31,0,2.5,3.63,3.32,3.63,3.32l-1.38,5.93.42.18Z"></path><path class="cls-4" d="M38.7,38.54L47.18.12s1.01-.08,2.44,1.66c1.98,2.42.54,4.81.54,4.81,0,0,1.09-.2,1.85,1.56,1.76,4.13-1.19,4.55-1.19,4.55,0,0,1.59-.34,2.08,1.76.43,1.88-.73,5.27-2.7,6.04-2.53.99-4.47,3.12-4.47,3.12,0,0,2.94-1.37,3.54.93.6,2.29-4.11,3.88-4.11,3.88,0,0,1.17.32.14,2.59-1.03,2.28-3.83,1.51-3.83,1.51l-2.46,5.94-.3.08Z"></path><path class="cls-3" d="M39.68,39.37l24.55-29.8-24.55,29.8Z"></path><path class="cls-6" d="M39.2,39.86l25.01-30.27s-.56-.84-2.82-.88c-3.13-.05-4.1,2.56-4.1,2.56,0,0-.52-.98-2.37-.48-4.33,1.18-2.83,3.76-2.83,3.76,0,0-.72-1.46-2.67-.54-1.74.83-3.67,3.84-3.05,5.87.79,2.6.33,5.44.33,5.44,0,0-.76-3.16-2.93-2.2-2.17.96-.49,5.63-.49,5.63,0,0-.98-.72-2.12,1.5-1.14,2.22,1.7,4.62,1.7,4.62l-3.95,4.63.29.35Z"></path><path class="cls-4" d="M39.03,39.82l25.19-30.23s.93.39,1.4,2.59c.65,3.06-1.73,4.52-1.73,4.52,0,0,1.06.33.92,2.24-.33,4.47-3.15,3.49-3.15,3.49,0,0,1.57.43,1.04,2.52-.48,1.87-3.07,4.34-5.17,4.12-2.7-.28-5.4.72-5.4.72,0,0,3.24.14,2.72,2.45-.52,2.31-5.43,1.56-5.43,1.56,0,0,.9.82-1.07,2.37-1.96,1.55-4.09-.42-4.09-.42l-4.91,4.14-.31-.07Z"></path><path class="cls-7" d="M27.15,64.2c-7.72-2.07-12.3-10.01-10.23-17.73,2.07-7.72,10.01-12.3,17.73-10.23,7.72,2.07,12.3,10.01,10.23,17.73-2.07,7.72-10.01,12.3-17.73,10.22Z"></path><path class="cls-7" d="M25.76,64.94c2.77-.2,8.58-1.14,8.58-1.14l-14.68-6.51s1.48,3.62,2.31,6.47c.59,2.01-2.83,3.5-5.22,5.37l1.04.62c3.05-1.34,5.65-4.63,7.97-4.8Z"></path><path class="cls-2" d="M17.79,69.74l-1.04-.62c-9.77,4.1-16.75.04-16.75.04,0,0,5.95,4.86,17.79.58Z"></path><path class="cls-1" d="M30.26,46c-1.42,2.39-4.17,3.38-6.14,2.21-1.97-1.17-2.41-4.06-.98-6.45,1.42-2.39,4.17-3.38,6.14-2.21,1.97,1.17,2.41,4.06.98,6.45Z"></path></g></svg>